<svg aria-hidden="true" style="width:0;height:0;position:absolute;overflow:hidden" xmlns="http://www.w3.org/2000/svg"><defs><symbol id="icon-twitter" viewBox="0 0 34 32"><path d="M34.133 3.669a13.11 13.11 0 0 1-3.96 1.229l-.072.009c1.451-.969 2.558-2.492 3.078-4.324a12.957 12.957 0 0 1-4.349 1.875l-.088.017C27.458.948 25.627 0 23.631 0c-3.874 0-6.993 3.516-6.993 7.825 0 .619.047 1.216.162 1.783C10.982 9.29 5.835 6.173 2.377 1.425a8.477 8.477 0 0 0-.958 3.944v.012-.001c0 2.709 1.248 5.109 3.108 6.5a6.332 6.332 0 0 1-3.188-.98l.026.015V11c0 3.804 2.426 6.961 5.606 7.689-.57.173-1.19.256-1.835.256-.448 0-.9-.028-1.325-.132.907 3.098 3.479 5.376 6.539 5.449-2.381 2.082-5.404 3.337-8.676 3.337-.574 0-1.124-.03-1.675-.107 3.1 2.234 6.773 3.509 10.735 3.509 12.877 0 19.917-11.925 19.917-22.259 0-.346-.011-.681-.026-1.011a15.072 15.072 0 0 0 3.469-3.993l.038-.068z"/></symbol><symbol id="icon-tel" viewBox="0 0 32 32"><path d="M29.43 20.47h-.033c-2.027 0-3.978-.324-5.805-.924l.131.037c-.894-.295-1.991-.025-2.535.519l-3.599 2.649c-4.172-2.171-6.742-4.677-8.938-8.711l2.634-3.414a2.48 2.48 0 0 0 .638-2.555c-.577-1.653-.911-3.559-.911-5.543v-.026.001C11.01 1.122 9.855 0 8.442 0H2.566C1.151 0-.001 1.122-.001 2.503c0 15.815 13.201 28.682 29.43 28.682 1.415 0 2.567-1.122 2.567-2.503v-5.711c0-1.378-1.152-2.501-2.567-2.501z"/></symbol><symbol id="icon-people" viewBox="0 0 32 32"><path fill="#674d40" style="fill:var(--color1,#674d40)" d="M10.607 0C7.314 0 4.632 3.078 4.632 6.856c0 3.779 2.682 6.856 5.975 6.856s5.976-3.078 5.976-6.856C16.583 3.077 13.901 0 10.605 0zm0 12.562c-2.749 0-4.98-2.566-4.98-5.714 0-3.145 2.237-5.713 4.98-5.713 2.75 0 4.98 2.566 4.98 5.714 0 3.147-2.235 5.713-4.98 5.713zm12.239-9.716c-2.475 0-4.486 2.306-4.486 5.144 0 2.84 2.011 5.146 4.486 5.146 2.473 0 4.485-2.306 4.485-5.146 0-2.839-2.011-5.144-4.485-5.144zm0 9.156c-1.926 0-3.49-1.795-3.49-4.003s1.565-4.003 3.49-4.003c1.925 0 3.49 1.795 3.49 4.003 0 2.21-1.565 4.003-3.49 4.003z"/><path fill="#674d40" style="fill:var(--color1,#674d40)" d="M30.868 20.678c-.451-3.125-2.144-5.76-5.029-7.142 0 0-1.277 1.108-2.993 1.073-1.876-.043-2.994-1.073-2.994-1.073s-1.393.596-2.517 1.836c-1.039-1.058-2.793-1.92-2.793-1.92s-1.606 1.402-3.941 1.381c-2.449-.021-3.927-1.381-3.927-1.381S1.376 15.54.257 22.628c0 0-1.198 3.756 1.576 9.371h17.554s1.246-2.488 1.466-4.003h8.731c2.146-3.729 1.283-7.317 1.283-7.317zM18.77 30.857H2.45c-2.133-4.648-1.21-8.04-1.21-8.04.52-3.555 2.511-6.554 5.359-8.076 1.123.774 2.513 1.236 4.011 1.236s2.888-.462 4.036-1.251l-.024.016c2.846 1.522 4.838 4.521 5.358 8.076-.006 0 .881 4.177-1.21 8.04zm10.234-4.003h-7.948c.305-2.018-.098-4.227-.098-4.227-.361-2.494-1.387-4.745-2.891-6.484a7.144 7.144 0 0 1 1.705-1.317 5.556 5.556 0 0 0 6.141 0c2.107 1.155 3.586 3.392 3.971 6.042 0 0 .727 2.831-.881 5.986z"/></symbol><symbol id="icon-menu" viewBox="0 0 60 32"><path d="M2 0h56a2 2 0 1 1 0 4H2a2 2 0 1 1 0-4zM2 14h56a2 2 0 1 1 0 4H2a2 2 0 1 1 0-4zM2 28h56a2 2 0 1 1 0 4H2a2 2 0 1 1 0-4z"/></symbol><symbol id="icon-logo" viewBox="0 0 61 32"><path d="M36.151 16.031c0 .256-.007.512 0 .768.076 2.603-.629 4.949-1.762 7.16a33.89 33.89 0 0 0-1.07 2.271c-.27.637-.645 1.083-1.228 1.344-.326.145-.628.397-.901.657-1.257 1.196-2.683 2.052-4.208 2.655-1.013.4-2.056.753-3.156.737-.328-.004-.657.112-.986.113s-.657-.122-.983-.105c-1.419.07-2.734-.433-4.039-.961-1.424-.576-2.682-1.485-3.865-2.569-1.67-1.529-2.859-3.454-3.734-5.658-.471-1.188-.855-2.414-.964-3.733-.018-.219-.081-.435-.137-.648-.397-1.479-.169-2.929.077-4.403.188-1.127.381-2.24.747-3.31.967-2.83 2.502-5.148 4.628-6.968C16.343 1.865 18.327.933 20.484.533c2.475-.459 4.892-.129 7.236.945 1.17.537 2.274 1.218 3.238 2.119.899.841 1.71 1.824 2.477 2.829.694.911 1.187 1.996 1.628 3.103.688 1.729 1.136 3.519 1.09 5.443-.01.355-.003.708-.003 1.06zm-.95-3.504c-.068-.604-.111-1.305-.239-1.984-.365-1.955-1.348-3.482-2.658-4.728-.744-.709-1.554-1.324-2.354-1.951-.271-.212-.585-.407-.901-.472-.812-.172-1.634-.333-2.457-.382-1.429-.084-2.713-.509-3.792-1.653-.794-.842-1.659-.924-2.485-.182-.936.839-2 1.332-3.086 1.82-.795.357-1.561.808-2.326 1.253-.639.372-1.011.953-1.002 1.833.005.493-.191.905-.588 1.179a9.23 9.23 0 0 0-.958.765l.007-.006c-.846.767-1.505 1.631-1.647 2.971-.113 1.06-.391 2.108-1.022 2.981a2.17 2.17 0 0 0-.376 1.049c-.058.792-.034 1.594-.017 2.392.005.213.085.442.18.63.258.524.494.947.749 1.357l-.038-.066c.619.992 1.158 2.008 1.282 3.268.12 1.22.632 2.215 1.498 2.974 1.254 1.1 2.463 2.268 3.736 3.339.684.577 1.417 1.082 2.319 1.199s1.787.4 2.596.924c.17.105.356.171.547.193 1.142.142 2.198-.184 3.201-.799.314-.193.638-.368.963-.536.783-.404 1.652-.669 2.334-1.232.759-.627 1.571-.905 2.442-1.081.376-.076.684-.255.929-.577.292-.383.563-.787.868-1.157.315-.381.543-.787.598-1.331.084-.833.394-1.569.787-2.276.665-1.194 1.043-2.514 1.24-3.918.052-.368.081-.679-.077-1.003-.458-.935-.271-1.997-.416-2.992-.073-.538.095-1.127.166-1.797l-.002.001zm-5.509-9.34c-.193-.246-.255-.357-.342-.426-.158-.126-.33-.229-.498-.338-1.437-.932-3.01-1.385-4.618-1.711-.323-.066-.663-.036-.992-.022-.086.004-.188.1-.243.186-.025.039.031.177.079.243a3.12 3.12 0 0 0 1.35 1.072 7.983 7.983 0 0 0 2.826.611c.408.013.816.102 1.223.166.347.057.693.125 1.216.219zM17.486 30.053c-.964-.908-1.81-1.719-2.67-2.509a97.596 97.596 0 0 0-2.168-1.915c-.082-.071-.211-.069-.39-.122.877 1.696 3.806 4.273 5.227 4.546zM10.988 8.869c.582-.512 1.12-1.05 1.71-1.496.828-.622 1.145-1.394.949-2.721-.588.554-1.007 1.22-1.46 1.826-.479.639-.834 1.4-1.233 2.115-.031.058.019.172.034.276zm19.614 19.355c-.543-.043-1.089.067-1.429.405-.646.64-1.414.961-2.196 1.281-.41.168-.797.414-1.184.649-.053.032-.063.205-.052.307.004.034.148.091.208.067.702-.276 1.427-.498 2.092-.866.815-.45 1.58-1.021 2.36-1.55.082-.053.125-.178.201-.294zM9.875 19.353c-.156.529-.125.823-.027 1.135.272.866.437 1.78.927 2.537.182.281.219.908.554.773.295-.118-.05-.615-.07-.95-.077-1.28-.662-2.311-1.384-3.495zm5.263-15.938.073.126c.405-.173.814-.337 1.216-.522a94.136 94.136 0 0 0 3.636-1.687l-1.028.456c.175-.085.335-.221.484-.359.042-.039.034-.172.021-.254-.007-.037-.089-.076-.137-.079a.756.756 0 0 0-.245.047l.005-.002c-1.178.385-2.289.956-3.352 1.648-.249.162-.45.414-.673.624zm20.69 13.745c.071-.095.127-.135.131-.18.115-1.394-.013-2.776-.179-4.154-.008-.069-.092-.168-.148-.177-.063-.009-.16.05-.198.115a.818.818 0 0 0-.113.345 15.327 15.327 0 0 0 .207 3.487l-.013-.091c.038.226.2.424.314.655zM9.591 13.312c.46-.202.528-.568.578-.898.12-.805.42-1.58.321-2.431-.481 1.016-.907 2.045-.899 3.329zm11.127 17.673c-1.031-.525-1.31-.58-2.228-.433.389.17.739.439 1.091.444.367.006.765.524 1.137-.011z"/><path d="M22.843 20.542c-.705-.015-1.189-.354-1.547-1.011-.334-.612-.889-.93-1.398-1.307-.641-.475-1.163-1.011-1.311-1.975a2.998 2.998 0 0 1 .247-1.736 2.8 2.8 0 0 1 .9-1.088c.393-.278.718-.54.9-1.053.205-.591.722-.626 1.18-.733.431-.1.87-.164 1.295-.289.582-.171 1.109-.118 1.534.403.328.405.712.695 1.139.941.445.255.591.553.452 1.086-.095.362-.003.608.114.897.128.315.26.635.348.968.293 1.107-.044 2.039-.946 2.532-.559.305-.987.713-1.126 1.429-.056.289-.212.452-.433.527-.446.15-.899.274-1.348.409zm2.958-4.641c.014-1.95-1.269-3.51-2.938-3.512-1.498 0-3.004 1.167-3.063 3.404-.047 1.79 1.248 3.458 2.936 3.464 2.056.012 3.025-1.632 3.065-3.356zm-6.017 1.864c0-.25.021-.378-.003-.493-.221-1.059-.365-2.109.137-3.129.036-.073-.047-.224-.075-.339-.099.037-.218.044-.292.115-.83.784-1.2 2.667.234 3.847zm3.081-5.865c.347.146.545.25.753.315.765.233 1.417.652 1.871 1.424.09.152.205.378.376.205.091-.092.121-.375.068-.516-.071-.188-.232-.422-.386-.459-.42-.101-.65-.452-.924-.757-.46-.509-.975-.669-1.758-.211zm-.047 7.676-.01-.074c-.22 0-.443-.022-.66.009-.112.016-.213.125-.319.192.096.098.18.252.291.284.593.172 1.19.209 1.774-.054.1-.045.211-.104.274-.197a.525.525 0 0 0 .062-.324c-.004-.039-.143-.099-.211-.086-.401.072-.801.164-1.2.249l-.002.001zm3.03-2c.41-.088.594-.354.618-.764a7.606 7.606 0 0 0-.015-1.065l.002.028c-.006-.091-.117-.172-.179-.258-.091.1-.277.233-.26.293.167.598-.182 1.133-.166 1.764v.001zm3.755 2.7c-.024.014-.119.106-.222.118-.094.013-.231-.024-.289-.099a16.734 16.734 0 0 1-.836-1.176c-.068-.107-.096-.394-.057-.418.128-.081.379-.167.435-.096.33.419.621.88.919 1.332.029.045.02.123.05.34zM15.628 23.56c.153.014.454.025.748.083.073.015.171.18.171.278s-.084.268-.158.289c-.571.163-1.14.204-1.645-.236a.31.31 0 0 1-.064-.108l-.001-.002a.317.317 0 0 1-.017-.105l.001-.028v.001c.011-.066.1-.157.159-.162.219-.021.439-.009.806-.009zM33.53 9.716l.216.136c-.061.126-.099.33-.188.366a7.53 7.53 0 0 1-1.208.404l-.055.011c-.123.028-.303-.112-.417-.227-.131-.133-.053-.423.113-.452.487-.086.977-.152 1.539-.238zM18.988 26.378c.229.123.42.157.513.289.232.327.464.704.673 1.095l.028.057c.103.191.009.398-.164.454-.095.03-.266-.059-.336-.157a11.977 11.977 0 0 1-.741-1.152l-.033-.062c-.055-.1.03-.302.061-.522zm8.966-15.233c.014-.112 0-.24.046-.289.062-.065.194-.118.257-.083.087.048.143.178.202.281.166.286.329.573.487.866.07.131.165.271.171.412a.59.59 0 0 1-.148.39c-.048.05-.244.018-.292-.052-.316-.463-.695-.896-.723-1.526zm.984-4.915c-.068.472-.096.82-.175 1.153a.96.96 0 0 1-.274.456c-.091.084-.249.072-.376.103-.01-.137-.048-.281-.026-.411.067-.402.156-.8.236-1.199.006-.031.004-.064.012-.094.063-.241.199-.424.417-.325.11.05.161.271.186.317zM23.04 9.302c.192.028.441.043.678.109.081.022.201.191.187.263-.025.13-.118.3-.217.339a.711.711 0 0 1-.487.001l.005.002c-.274-.1-.529-.134-.801-.002-.179.087-.348-.004-.395-.21-.064-.276.116-.409.318-.448.216-.041.438-.035.713-.053zm4.266 13.572c-.078.391-.137.734-.221 1.069-.016.066-.137.154-.187.139-.091-.026-.219-.108-.237-.194a1.447 1.447 0 0 1-.013-.575l-.001.009c.064-.343.128-.669.007-1.02-.057-.168-.041-.436.181-.435.119 0 .291.17.345.311.087.225.093.489.127.697zm-3.366-.1c-.044.092-.066.2-.125.246-.36.286-.721.573-1.1.823-.097.064-.267.024-.39-.018-.181-.062-.219-.336-.068-.447.415-.306.832-.609 1.259-.891.068-.045.205.004.294.054.06.035.085.146.131.233zM19.351 4.41c.058.039.169.074.183.136.143.607.281 1.215.394 1.829.031.17-.165.265-.296.163-.414-.32-.671-1.507-.43-2.004.025-.049.086-.074.148-.125zm5.111 1.723c-.125-.096-.259-.144-.277-.227-.02-.09.045-.243.115-.315.297-.306.607-.593.932-.865l.019-.016c.111-.09.342-.154.428-.083.202.163.096.394-.045.562-.189.227-.376.466-.594.65-.167.138-.381.198-.577.294zm-7.864 3.205-.302.329c-.086-.107-.214-.197-.25-.325a26.167 26.167 0 0 1-.382-1.526c-.016-.07.034-.215.085-.239.084-.039.222-.055.285 0 .126.107.269.25.31.41.108.417.165.853.254 1.351zm-3.311 8.42c-.277.585-.488 1.185-1.005 1.504-.087.054-.279-.015-.372-.1-.158-.144 0-.265.077-.388.242-.384.467-.785.724-1.155.066-.095.235-.142.35-.129.078.008.142.161.226.267zm3.134.05c.145.096.25.125.269.189.032.104.049.267 0 .339-.079.115-.215.181-.332.258-.303.2-.603.412-.918.583a.371.371 0 0 1-.356-.034c-.176-.144-.114-.376.027-.478.433-.312.888-.585 1.309-.857zm15.683-2.651c-.111.289-.268.726-.454 1.146-.029.065-.209.1-.285.061-.071-.037-.148-.201-.134-.29.075-.466.157-.935.283-1.385.038-.137.211-.262.344-.308.049-.017.178.197.239.328.035.074.006.187.006.448zM13.2 11.678c.491.507.432 1.196.487 1.831.01.118-.117.287-.219.372-.053.045-.27-.027-.275-.069a41.603 41.603 0 0 1-.184-1.934c-.004-.055.112-.122.192-.201zm11.471 15.701c.097.03.177.061.255.097l-.013-.005c.295.157.591.311.879.484.137.082.274.184.372.315.113.152-.016.442-.174.403-.535-.133-1.058-.319-1.458-.779-.059-.068-.058-.239-.039-.352.011-.064.115-.108.177-.162zM18.16 11.864c.028.102.126.26.091.359-.18.526-.388 1.039-.599 1.549-.026.063-.137.118-.203.108-.057-.008-.137-.101-.152-.172-.112-.568.241-1.585.636-1.841.041-.026.106-.004.226-.004zm15.298 8.625c-.062-.045-.19-.1-.257-.206-.027-.042.06-.234.134-.296.329-.276.665-.539 1.015-.774.094-.063.291-.068.36.003.064.066.074.315.016.406-.293.471-.664.83-1.268.866zm-2.032 4.054c-.254-.03-.364-.033-.47-.061-.045-.011-.111-.072-.112-.112a.46.46 0 0 1 .058-.254.426.426 0 0 1 .205-.148c.391-.135.783-.271 1.18-.381.086-.024.268.042.279.098a.9.9 0 0 1-.051.433c-.024.072-.121.131-.195.157-.34.108-.681.204-.894.267zm-11.784-3.254c-.028.137-.074.442-.161.729-.022.071-.193.14-.272.114s-.171-.175-.169-.268c.008-.531.031-1.063.078-1.592.01-.115.137-.217.21-.325.088.107.23.201.252.323.05.274.039.562.062 1.019zM37.981 4.672c0-1.125.236-1.978.709-2.559.478-.587 1.091-.881 1.837-.881s1.34.253 1.78.76c.446.507.669 1.317.669 2.429s-.236 1.953-.709 2.522c-.473.569-1.104.853-1.893.853-.682 0-1.241-.226-1.676-.677-.225-.235-.403-.559-.532-.974-.124-.42-.185-.912-.185-1.474zm2.522-3.348c-.542 0-.988.278-1.337.835-.344.556-.515 1.372-.515 2.448s.164 1.861.492 2.355c.327.495.763.742 1.305.742.548 0 .994-.278 1.337-.835.349-.563.524-1.375.524-2.439 0-1.069-.166-1.854-.499-2.355-.328-.501-.763-.751-1.305-.751zm3.867 6.435h-.669V1.268h.669v2.986h2.619V1.268h.669v6.491h-.669V4.347H44.37v3.412zm6.725 0h-.105l.701-6.491h.266l1.692 5.999 1.684-5.999h.266l.701 6.491h-.669l-.556-5.192-1.458 5.192h-.508l-1.474-5.128-.54 5.128zm9.668-6.49a.667.667 0 0 1 .153.454c0 .155-.03.312-.089.473l-1.442 3.366v2.197h-.669V5.765l-1.612-4.497h.685l1.539 4.182 1.402-3.255c.059-.155.089-.315.089-.482s-.04-.297-.121-.389l.064-.056zM1.136 9.465c.364-.021.791-.032 1.22-.033h.001c.407 0 .833.049 1.278.147.454.098.899.283 1.335.556.445.261.819.605 1.122 1.029.312.414.563.964.753 1.65s.284 1.52.284 2.5-.142 1.863-.426 2.647c-.274.773-.653 1.367-1.136 1.781-.937.806-2.068 1.209-3.393 1.209-.464 0-.951-.022-1.462-.065h-.71V9.465h1.136zm.042 11.29c.199.022.45.033.752.033s.53-.005.682-.016c.151-.011.36-.054.625-.131.265-.087.511-.202.738-.343s.464-.349.71-.621c.256-.283.473-.615.653-.997.407-.893.611-2.059.611-3.497 0-1.024-.109-1.906-.327-2.647-.218-.752-.469-1.307-.752-1.667a3.001 3.001 0 0 0-1.008-.85c-.398-.218-.715-.343-.951-.376s-.511-.049-.823-.049-.615.016-.909.049v11.111zm37.034.131h-.185V9.448h.483l5.906 10.572V9.448h.185v11.438h-1.036l-5.353-9.477v9.477zM53.343 9.448h.185v6.536c0 1.71-.293 2.968-.88 3.774-.587.795-1.354 1.193-2.3 1.193-.596 0-1.103-.06-1.519-.18a3.145 3.145 0 0 1-1.179-.703c-.757-.675-1.136-2.037-1.136-4.085V9.447h1.179v6.519c0 1.983.26 3.306.781 3.97.265.327.539.55.824.67.293.12.643.18 1.051.18.909 0 1.633-.381 2.172-1.144.549-.773.824-1.999.824-3.676V9.447zm5.028 11.438h-1.179V9.612h-2.456v-.163h6.105v.163H58.37v11.274z"/></symbol><symbol id="icon-Instagram" viewBox="0 0 32 32"><path d="M16.316 32h-.319c-2.508.006-4.826-.058-7.08-.195-2.067-.126-3.953-.84-5.455-2.065-1.45-1.182-2.44-2.781-2.943-4.75-.437-1.715-.461-3.398-.483-5.026A323.738 323.738 0 0 1 0 16.07v-.067c.003-1.414.02-2.798.036-3.966.022-1.628.046-3.311.483-5.026.503-1.97 1.493-3.568 2.943-4.75C4.964 1.036 6.851.322 8.917.196c2.254-.137 4.572-.201 7.086-.195 2.509-.005 4.826.058 7.08.195 2.066.126 3.953.84 5.455 2.065 1.45 1.182 2.44 2.78 2.943 4.75.437 1.715.461 3.398.483 5.026.016 1.168.033 2.553.036 3.96v.006c-.003 1.408-.02 2.792-.036 3.96-.022 1.628-.045 3.311-.483 5.026-.503 1.97-1.493 3.568-2.943 4.75-1.502 1.225-3.389 1.939-5.455 2.065-2.159.131-4.376.195-6.768.195zm-.319-2.5c2.468.006 4.733-.056 6.934-.19 1.563-.095 2.917-.602 4.027-1.507 1.026-.837 1.732-1.991 2.1-3.431.364-1.428.385-2.96.406-4.442.017-1.099.031-2.477.036-3.857v-.072c-.005-1.452-.018-2.83-.039-4.207l.003.278c-.02-1.482-.041-3.015-.406-4.443-.367-1.44-1.074-2.594-2.1-3.431-1.11-.905-2.465-1.412-4.027-1.507a108.807 108.807 0 0 0-6.928-.19c-2.467-.006-4.733.056-6.934.19-1.563.095-2.917.602-4.027 1.507-1.026.837-1.732 1.991-2.1 3.431-.364 1.428-.385 2.96-.405 4.443a363.726 363.726 0 0 0-.036 3.932c.004 1.389.02 2.765.036 3.926.02 1.482.041 3.015.406 4.442.367 1.44 1.074 2.594 2.1 3.431 1.11.905 2.465 1.412 4.027 1.507 2.201.134 4.468.197 6.928.191zm-.06-5.688c-4.308 0-7.813-3.505-7.813-7.812s3.505-7.813 7.813-7.813S23.75 11.692 23.75 16s-3.505 7.812-7.813 7.812zm0-13.125c-2.929 0-5.313 2.383-5.313 5.313s2.383 5.312 5.313 5.312c2.93 0 5.313-2.383 5.313-5.312s-2.383-5.313-5.313-5.313zm8.688-5a1.874 1.874 0 1 0 0 3.75 1.874 1.874 0 1 0 0-3.75z"/></symbol><symbol id="icon-facebook" viewBox="0 0 16 32"><path d="M14.512.006 10.896 0c-4.064 0-6.69 3.092-6.69 7.876v3.63H.568c-.314 0-.568.294-.568.654v5.26c0 .36.254.652.568.652h3.638v13.276c0 .36.254.652.568.652H9.52c.314 0 .568-.292.568-.652V18.072h4.252c.314 0 .568-.292.568-.652l.002-5.26c0-.174-.06-.34-.166-.462a.535.535 0 0 0-.402-.192h-4.254V8.428c0-1.48.308-2.23 1.988-2.23h2.436c.314 0 .568-.294.568-.654V.66c0-.36-.254-.652-.568-.654z"/></symbol><symbol id="icon-chat" viewBox="0 0 40 32"><path fill="#674d40" style="fill:var(--color1,#674d40)" d="M30.413 13.711C30.413 5.429 22.805 0 15.209 0 7.578 0 0 5.455 0 13.711c0 3.125 1.192 6.178 3.358 8.602a.412.412 0 0 1 .082.368l.001-.003c-.681 2.859-2.293 5.44-2.952 6.419a1.09 1.09 0 0 0-.086 1.055L.4 30.145a.848.848 0 0 0 .765.542h.024c3.234-.094 6.984-1.141 9.299-3.753a.3.3 0 0 1 .315-.095l-.002-.001c1.425.386 2.906.584 4.405.584 7.627 0 15.209-5.453 15.209-13.711zM11.068 25.544a1.354 1.354 0 0 0-1.388.438l-.002.002c-2.319 2.618-6.103 3.211-7.895 3.343.819-1.295 2.15-3.676 2.773-6.298a1.872 1.872 0 0 0-.394-1.671l.002.003c-1.967-2.202-3.008-4.847-3.008-7.65 0-6.827 6.302-12.382 14.052-12.382 7.746 0 14.048 5.553 14.048 12.382 0 6.827-6.302 12.382-14.048 12.382h-.019c-1.466 0-2.885-.2-4.231-.574l.111.026z"/><path fill="#674d40" style="fill:var(--color1,#674d40)" d="M34.138 24.749c3.375-1.958 5.391-5.295 5.391-8.924 0-5.131-4.043-9.517-9.613-10.426-.316-.051-.61.201-.655.565s.175.698.491.751c4.994.815 8.619 4.648 8.619 9.111 0 3.119-1.779 6.012-4.757 7.736-.578.339-.888 1.08-.753 1.807.282 1.523.883 2.931 1.363 3.887-3.418-.653-4.715-2.536-5.126-3.351-.252-.503-.727-.815-1.237-.815h-.047c-.64 0-1.284-.051-1.911-.151-.316-.051-.61.201-.653.565-.045.363.175.698.493.751a13.08 13.08 0 0 0 2.071.164h.047a.264.264 0 0 1 .233.149l.001.002c1.568 3.117 5.175 3.915 6.65 4.111.328.043.638-.126.811-.446a1.073 1.073 0 0 0-.008-1.037l.003.005c-.444-.794-1.239-2.387-1.559-4.111a.33.33 0 0 1 .143-.342l.001-.001zM6.197 11.334c-1.107 0-2.007 1.033-2.007 2.302 0 1.271.9 2.304 2.007 2.304s2.007-1.035 2.007-2.304-.9-2.302-2.007-2.302zm0 3.275c-.469 0-.849-.435-.849-.973 0-.536.38-.973.847-.973.471 0 .851.437.851.973 0 .538-.382.975-.849.975zm5.724-3.275c-1.107 0-2.007 1.033-2.007 2.302 0 1.271.9 2.304 2.007 2.304s2.007-1.035 2.007-2.304-.9-2.302-2.007-2.302zm0 3.275c-.467 0-.847-.435-.847-.973 0-.536.38-.973.847-.973.469 0 .849.437.849.973 0 .538-.38.975-.847.975zm5.726-3.275c-1.107 0-2.008 1.033-2.008 2.302 0 1.271.902 2.304 2.008 2.304 1.105 0 2.007-1.035 2.007-2.304s-.902-2.302-2.007-2.302zm0 3.275c-.471 0-.849-.435-.849-.973 0-.536.38-.973.847-.973.471 0 .849.437.849.973 0 .538-.38.975-.847.975zm5.724-3.275c-1.107 0-2.007 1.033-2.007 2.302 0 1.271.9 2.304 2.007 2.304s2.007-1.035 2.007-2.304-.9-2.302-2.007-2.302zm0 3.275c-.467 0-.847-.435-.847-.973 0-.536.38-.973.847-.973.469 0 .849.437.849.973 0 .538-.38.975-.847.975z"/></symbol><symbol id="icon-map" viewBox="0 0 23 32"><path d="M11.733 0c6.47 0 11.733 5.131 11.733 11.435 0 2.496-.811 4.866-2.34 6.854l-8.67 11.381c-.021.026-.055.036-.079.062a.886.886 0 0 1-1.364-.062l-.002-.002c-2.498-3.245-7.074-9.308-8.832-11.595l-.004-.004-.011-.013a11.071 11.071 0 0 1-2.165-6.605v-.017.001C-.001 5.131 5.262 0 11.732 0zm0 17.604c3.484 0 6.33-2.773 6.33-6.17 0-3.394-2.846-6.17-6.33-6.17s-6.33 2.773-6.33 6.17c0 3.394 2.846 6.17 6.33 6.17z"/></symbol><symbol id="icon-close" viewBox="0 0 32 32"><path d="M30.354 32a1.646 1.646 0 0 0 1.162-2.81L2.812.481A1.647 1.647 0 0 0 .483 2.81l28.708 28.708c.322.32.743.484 1.164.484z"/><path d="M1.644 32c.421 0 .843-.16 1.164-.484L31.517 2.81A1.647 1.647 0 0 0 29.188.481L.479 29.19a1.645 1.645 0 0 0 1.164 2.809z"/></symbol><symbol id="icon-clock" viewBox="0 0 32 32"><path fill="#674d40" style="fill:var(--color1,#674d40)" d="M16 0C7.177 0 0 7.177 0 16s7.177 16 16 16 16-7.177 16-16S24.823 0 16 0zm0 30.933C7.765 30.933 1.067 24.234 1.067 16S7.766 1.067 16 1.067c8.235 0 14.933 6.699 14.933 14.933S24.234 30.933 16 30.933z"/><path fill="#674d40" style="fill:var(--color1,#674d40)" d="M16.533 13.877v-5.41a.533.533 0 1 0-1.066 0v5.41a2.132 2.132 0 0 0-1.524 1.524h-3.81a.533.533 0 1 0 0 1.066h3.81a2.13 2.13 0 0 0 2.057 1.6 2.134 2.134 0 0 0 2.133-2.133c0-.99-.683-1.818-1.6-2.057zM16 17.001a1.067 1.067 0 0 1 .002-2.134h.002a1.067 1.067 0 0 1-.002 2.134H16zm0-11.732a.533.533 0 0 0 .533-.533v-.533a.533.533 0 1 0-1.066 0v.533c0 .294.239.533.533.533zm0 21.334a.533.533 0 0 0-.533.533v.533a.533.533 0 1 0 1.066 0v-.533a.533.533 0 0 0-.533-.533zm11.733-11.2H27.2a.533.533 0 1 0 0 1.066h.533a.533.533 0 1 0 0-1.066zm-22.933 0h-.533a.533.533 0 1 0 0 1.066H4.8a.533.533 0 1 0 0-1.066zm19.119-8.142-.376.378a.533.533 0 1 0 .754.754l.376-.378a.533.533 0 1 0-.754-.754zM7.703 23.477l-.376.378a.533.533 0 1 0 .754.754l.376-.378a.533.533 0 1 0-.754-.754zm16.594 0a.533.533 0 1 0-.754.754l.376.378a.533.533 0 1 0 .754-.754l-.376-.378zM8.081 7.261a.533.533 0 1 0-.754.754l.376.378a.53.53 0 0 0 .754 0 .53.53 0 0 0 0-.754l-.376-.378z"/></symbol><symbol id="icon-chef-hat" viewBox="0 0 34 32"><path fill="#674d40" style="fill:var(--color1,#674d40)" d="M24.307 8.344a.48.48 0 0 1-.48-.48 7.029 7.029 0 0 0-14.052-.009v.009a.48.48 0 0 1-.96 0 7.987 7.987 0 0 1 15.972-.006v.006a.48.48 0 0 1-.48.48z"/><path fill="#674d40" style="fill:var(--color1,#674d40)" d="M25.709 19.206h-.003a.48.48 0 0 1-.003-.96 6.98 6.98 0 0 0 6.938-6.883v-.005a6.973 6.973 0 0 0-6.971-6.903h-.056.003c-.707 0-1.413.104-2.09.31a.48.48 0 0 1-.285-.917l.003-.001a8.109 8.109 0 0 1 2.373-.352h.05a7.932 7.932 0 0 1 7.932 7.859v.004a7.943 7.943 0 0 1-7.882 7.848H25.709zm-17.818 0h-.006A7.942 7.942 0 0 1 0 11.363v-.005a7.932 7.932 0 0 1 7.931-7.863h.054-.003c.805 0 1.603.117 2.373.352a.48.48 0 1 1-.285.917l.003.001a6.97 6.97 0 0 0-2.081-.31h-.011.001-.052a6.971 6.971 0 0 0-6.971 6.899v.004a6.98 6.98 0 0 0 6.935 6.888h.002a.482.482 0 0 1 .437.669l.001-.003a.482.482 0 0 1-.443.294h-.002z"/><path fill="#674d40" style="fill:var(--color1,#674d40)" d="M25.709 31.147H7.891a.48.48 0 0 1-.48-.48V18.726a.48.48 0 0 1 .96 0v11.461h16.858V18.726a.48.48 0 0 1 .96 0v11.941a.48.48 0 0 1-.48.48z"/><path fill="#674d40" style="fill:var(--color1,#674d40)" d="M29.05 26.496H11.232a.48.48 0 0 1 0-.96H29.05a.48.48 0 0 1 0 .96z"/></symbol><symbol id="icon-rate-five" viewBox="0 0 181 32"><path fill="#ab816c" style="fill:var(--color1,#ab816c)" d="M14.732 3.903c.399-1.228 2.137-1.228 2.536 0l2.025 6.232c.178.549.69.921 1.268.921h6.552c1.292 0 1.829 1.653.784 2.412l-5.301 3.851a1.333 1.333 0 0 0-.484 1.491l2.025 6.232c.399 1.228-1.007 2.25-2.052 1.491l-5.301-3.851a1.334 1.334 0 0 0-1.567 0l-5.301 3.851c-1.045.759-2.451-.262-2.052-1.491l2.025-6.232a1.335 1.335 0 0 0-.484-1.491l-5.301-3.851c-1.045-.759-.508-2.412.784-2.412h6.552c.578 0 1.09-.372 1.268-.921l2.025-6.232zM164.065 3.903c.399-1.228 2.137-1.228 2.536 0l2.025 6.232c.179.549.689.921 1.268.921h6.552c1.292 0 1.828 1.653.784 2.412l-5.301 3.851a1.333 1.333 0 0 0-.484 1.491l2.024 6.232c.4 1.228-1.007 2.25-2.051 1.491l-5.301-3.851a1.336 1.336 0 0 0-1.568 0l-5.301 3.851c-1.044.759-2.451-.262-2.051-1.491l2.024-6.232a1.334 1.334 0 0 0-.484-1.491l-5.301-3.851c-1.044-.759-.508-2.412.784-2.412h6.552c.579 0 1.089-.372 1.268-.921l2.025-6.232zM126.732 3.903c.399-1.228 2.137-1.228 2.536 0l2.025 6.232c.178.549.69.921 1.268.921h6.552c1.292 0 1.828 1.653.784 2.412l-5.301 3.851a1.333 1.333 0 0 0-.484 1.491l2.024 6.232c.4 1.228-1.007 2.25-2.051 1.491l-5.302-3.851a1.334 1.334 0 0 0-1.567 0l-5.301 3.851c-1.045.759-2.451-.262-2.052-1.491l2.025-6.232a1.334 1.334 0 0 0-.484-1.491l-5.301-3.851c-1.045-.759-.508-2.412.784-2.412h6.552c.578 0 1.09-.372 1.268-.921l2.025-6.232zM89.399 3.903c.399-1.228 2.137-1.228 2.536 0l2.025 6.232c.178.549.69.921 1.268.921h6.552c1.292 0 1.829 1.653.784 2.412l-5.301 3.851a1.333 1.333 0 0 0-.484 1.491l2.025 6.232c.399 1.228-1.007 2.25-2.052 1.491l-5.301-3.851a1.334 1.334 0 0 0-1.567 0l-5.301 3.851c-1.045.759-2.451-.262-2.052-1.491l2.025-6.232a1.334 1.334 0 0 0-.484-1.491l-5.301-3.851c-1.045-.759-.508-2.412.784-2.412h6.552c.578 0 1.09-.372 1.268-.921L89.4 3.903zM52.065 3.903c.399-1.228 2.137-1.228 2.536 0l2.025 6.232c.178.549.69.921 1.268.921h6.552c1.292 0 1.829 1.653.784 2.412l-5.301 3.851a1.333 1.333 0 0 0-.484 1.491l2.025 6.232c.399 1.228-1.007 2.25-2.052 1.491l-5.301-3.851a1.334 1.334 0 0 0-1.567 0l-5.301 3.851c-1.045.759-2.451-.262-2.052-1.491l2.025-6.232a1.334 1.334 0 0 0-.484-1.491l-5.301-3.851c-1.045-.759-.508-2.412.784-2.412h6.552c.578 0 1.09-.372 1.268-.921l2.025-6.232z"/></symbol><symbol id="icon-rate-four" viewBox="0 0 181 32"><path fill="#ab816c" style="fill:var(--color1,#ab816c)" d="M14.732 3.903c.399-1.228 2.137-1.228 2.536 0l2.025 6.232c.178.549.69.921 1.268.921h6.552c1.292 0 1.829 1.653.784 2.412l-5.301 3.851a1.333 1.333 0 0 0-.484 1.491l2.025 6.232c.399 1.228-1.007 2.25-2.052 1.491l-5.301-3.851a1.334 1.334 0 0 0-1.567 0l-5.301 3.851c-1.045.759-2.451-.262-2.052-1.491l2.025-6.232a1.335 1.335 0 0 0-.484-1.491l-5.301-3.851c-1.045-.759-.508-2.412.784-2.412h6.552c.578 0 1.09-.372 1.268-.921l2.025-6.232z"/><path fill="none" stroke="#ab816c" style="stroke:var(--color1,#ab816c)" stroke-width="1.333" d="M164.699 4.109c.2-.614 1.069-.614 1.269 0l2.024 6.232a2 2 0 0 0 1.903 1.382h6.552c.645 0 .915.826.392 1.206l-5.301 3.851a2 2 0 0 0-.727 2.236l2.025 6.232c.2.614-.504 1.125-1.027.745l-5.3-3.851a2.002 2.002 0 0 0-2.352 0l-5.3 3.851c-.523.38-1.227-.131-1.027-.745l2.025-6.232a1.998 1.998 0 0 0-.727-2.236l-5.301-3.851c-.523-.38-.253-1.206.392-1.206h6.552a2 2 0 0 0 1.903-1.382l2.024-6.232z"/><path fill="#ab816c" style="fill:var(--color1,#ab816c)" d="M126.732 3.903c.399-1.228 2.137-1.228 2.536 0l2.025 6.232c.178.549.69.921 1.268.921h6.552c1.292 0 1.828 1.653.784 2.412l-5.301 3.851a1.333 1.333 0 0 0-.484 1.491l2.024 6.232c.4 1.228-1.007 2.25-2.051 1.491l-5.302-3.851a1.334 1.334 0 0 0-1.567 0l-5.301 3.851c-1.045.759-2.451-.262-2.052-1.491l2.025-6.232a1.334 1.334 0 0 0-.484-1.491l-5.301-3.851c-1.045-.759-.508-2.412.784-2.412h6.552c.578 0 1.09-.372 1.268-.921l2.025-6.232zM89.399 3.903c.399-1.228 2.137-1.228 2.536 0l2.025 6.232c.178.549.69.921 1.268.921h6.552c1.292 0 1.829 1.653.784 2.412l-5.301 3.851a1.333 1.333 0 0 0-.484 1.491l2.025 6.232c.399 1.228-1.007 2.25-2.052 1.491l-5.301-3.851a1.334 1.334 0 0 0-1.567 0l-5.301 3.851c-1.045.759-2.451-.262-2.052-1.491l2.025-6.232a1.334 1.334 0 0 0-.484-1.491l-5.301-3.851c-1.045-.759-.508-2.412.784-2.412h6.552c.578 0 1.09-.372 1.268-.921L89.4 3.903zM52.065 3.903c.399-1.228 2.137-1.228 2.536 0l2.025 6.232c.178.549.69.921 1.268.921h6.552c1.292 0 1.829 1.653.784 2.412l-5.301 3.851a1.333 1.333 0 0 0-.484 1.491l2.025 6.232c.399 1.228-1.007 2.25-2.052 1.491l-5.301-3.851a1.334 1.334 0 0 0-1.567 0l-5.301 3.851c-1.045.759-2.451-.262-2.052-1.491l2.025-6.232a1.334 1.334 0 0 0-.484-1.491l-5.301-3.851c-1.045-.759-.508-2.412.784-2.412h6.552c.578 0 1.09-.372 1.268-.921l2.025-6.232z"/></symbol><symbol id="icon-logo-2" viewBox="0 0 68 32"><path d="M40.514 15.811c0 .255-.008.511 0 .766.085 2.598-.705 4.939-1.975 7.146-.426.74-.832 1.493-1.199 2.266-.302.636-.723 1.081-1.376 1.342-.365.145-.703.396-1.009.655-1.408 1.193-3.006 2.048-4.715 2.65-1.135.4-2.304.751-3.537.735-.368-.004-.736.112-1.105.113s-.736-.121-1.101-.105c-1.59.07-3.063-.432-4.526-.959-1.596-.574-3.006-1.482-4.332-2.564-1.871-1.526-3.204-3.447-4.185-5.647-.528-1.186-.958-2.41-1.08-3.725-.02-.218-.091-.435-.153-.646-.445-1.476-.189-2.924.086-4.394.21-1.125.427-2.236.837-3.304 1.083-2.825 2.804-5.138 5.187-6.954 1.987-1.513 4.21-2.443 6.628-2.843 2.774-.459 5.482-.128 8.11.943 1.311.536 2.548 1.216 3.628 2.115 1.008.839 1.917 1.82 2.776 2.823.778.909 1.331 1.992 1.824 3.097.771 1.726 1.273 3.512 1.222 5.432-.011.355-.003.706-.003 1.058zm-1.065-3.497c-.077-.603-.125-1.302-.268-1.98-.409-1.951-1.511-3.475-2.979-4.719-.833-.707-1.742-1.322-2.638-1.947-.303-.212-.656-.406-1.01-.471-.91-.172-1.831-.333-2.754-.381-1.602-.084-3.04-.508-4.25-1.65-.89-.84-1.859-.922-2.784-.182-1.049.838-2.242 1.33-3.458 1.816-.891.357-1.75.806-2.607 1.25-.716.372-1.133.951-1.123 1.829.006.492-.214.904-.659 1.176a10.18 10.18 0 0 0-1.066.757c-.948.765-1.687 1.627-1.846 2.965-.126 1.058-.438 2.104-1.145 2.975-.236.3-.383.663-.422 1.047-.065.791-.038 1.591-.019 2.387.005.213.095.441.202.629.244.443.51.873.797 1.288.694.99 1.297 2.004 1.437 3.261.135 1.218.708 2.21 1.679 2.968 1.405 1.098 2.76 2.263 4.187 3.332.767.576 1.588 1.08 2.599 1.196s2.003.399 2.909.922c.19.105.398.171.613.193 1.279.141 2.463-.184 3.587-.798.352-.193.715-.367 1.08-.535.878-.403 1.851-.668 2.616-1.229.851-.626 1.76-.904 2.737-1.079.422-.076.767-.254 1.041-.576.328-.382.631-.786.973-1.155.353-.381.608-.786.67-1.328.095-.832.442-1.566.882-2.272.745-1.192 1.169-2.509 1.389-3.91.058-.367.091-.678-.087-1.002-.513-.933-.304-1.993-.466-2.986-.082-.537.107-1.124.186-1.794l-.002.001zm-6.174-9.322c-.217-.246-.285-.357-.383-.425-.177-.126-.37-.228-.559-.337C30.723 1.3 28.96.847 27.158.522 26.796.456 26.415.486 26.046.5c-.096.004-.211.099-.272.186-.028.039.035.177.088.242.401.49.924.86 1.513 1.069a9.866 9.866 0 0 0 3.167.61c.458.013.914.102 1.37.165.389.057.777.125 1.362.218zM19.596 29.805c-1.081-.906-2.028-1.716-2.992-2.504a111.381 111.381 0 0 0-2.429-1.911c-.092-.071-.236-.069-.437-.122.983 1.693 4.265 4.264 5.858 4.537zM12.315 8.663c.652-.511 1.255-1.048 1.917-1.493.928-.62 1.283-1.392 1.064-2.716-.659.552-1.128 1.218-1.636 1.823-.537.638-.935 1.397-1.382 2.111-.034.058.021.172.038.275zm21.979 19.316c-.608-.043-1.22.067-1.602.404-.724.638-1.585.959-2.461 1.279-.46.167-.894.413-1.327.648-.06.032-.071.205-.059.306.004.034.166.09.233.067.787-.275 1.599-.497 2.344-.864.914-.45 1.771-1.019 2.645-1.547.092-.053.14-.177.225-.293zm-23.227-8.853c-.175.528-.14.821-.03 1.133.305.864.49 1.777 1.039 2.532.204.28.245.906.621.771.331-.118-.056-.614-.079-.948-.087-1.277-.741-2.307-1.551-3.488zM16.964 3.22l.082.126c.454-.173.913-.336 1.363-.521.977-.402 1.951-.812 2.923-1.229a2.38 2.38 0 0 0 .542-.358c.047-.039.038-.171.024-.253-.008-.037-.1-.076-.153-.079a.908.908 0 0 0-.268.046c-1.32.385-2.565.954-3.757 1.645-.279.162-.505.413-.754.623zm23.188 13.717c.08-.095.142-.135.147-.18.129-1.392-.015-2.771-.201-4.146-.009-.069-.103-.168-.166-.176-.07-.009-.179.05-.222.115a.749.749 0 0 0-.127.345c-.07 1.134.003 2.273.217 3.389.042.225.224.423.352.654zm-29.404-3.84c.515-.202.592-.567.647-.896.135-.803.471-1.577.36-2.426-.539 1.014-1.016 2.041-1.007 3.322zm12.47 17.638c-1.155-.524-1.468-.579-2.496-.432.436.169.828.438 1.223.443.411.006.857.523 1.274-.011z"/><path d="M25.6 20.313c-.79-.015-1.332-.354-1.734-1.009-.374-.611-.997-.928-1.567-1.304-.719-.474-1.303-1.009-1.469-1.971-.115-.652.019-1.218.277-1.733a2.9 2.9 0 0 1 1.009-1.086c.44-.277.805-.539 1.008-1.051.23-.589.81-.625 1.323-.731.483-.1.975-.164 1.451-.289.652-.171 1.243-.118 1.719.403.368.404.798.693 1.277.939.498.255.663.552.507 1.084-.106.361-.003.607.128.895.143.314.291.634.389.966.328 1.105-.049 2.035-1.06 2.527-.626.305-1.106.711-1.262 1.426a.66.66 0 0 1-.485.526c-.5.15-1.007.274-1.511.408zm3.315-4.632c.016-1.946-1.422-3.503-3.293-3.505-1.678 0-3.367 1.165-3.432 3.397-.053 1.787 1.398 3.451 3.29 3.457 2.304.012 3.39-1.629 3.435-3.35zm-6.743 1.861c0-.25.023-.377-.003-.492-.248-1.057-.409-2.104.153-3.123.041-.073-.053-.224-.084-.339-.11.037-.244.044-.327.114a2.426 2.426 0 0 0 .262 3.839zm3.452-5.854c.389.146.611.25.843.314.857.233 1.588.651 2.097 1.421.1.152.23.377.422.204.102-.092.135-.374.077-.515-.079-.187-.26-.421-.433-.458-.471-.101-.728-.451-1.035-.756-.516-.508-1.092-.668-1.971-.211zm-.053 7.661-.012-.073c-.247 0-.496-.022-.739.009-.125.016-.238.125-.357.191.108.098.202.252.326.284.664.172 1.333.209 1.988-.054.112-.045.237-.104.307-.196.062-.079.082-.218.07-.324-.005-.039-.16-.099-.236-.086-.45.072-.897.163-1.344.249l-.002.001zm3.396-1.996c.46-.088.666-.354.692-.763.02-.345.015-.691-.015-1.034-.007-.091-.131-.172-.201-.257-.102.099-.31.233-.291.293.187.597-.204 1.131-.186 1.761v.001zM33.175 20.048c-.026.014-.133.105-.248.118-.105.012-.258-.024-.324-.099a16.847 16.847 0 0 1-.937-1.174c-.077-.106-.108-.393-.064-.418.144-.081.425-.166.487-.096.37.418.695.878 1.03 1.33.033.045.023.123.056.339zM17.514 23.325c.171.014.509.025.838.082.082.015.192.179.192.277s-.095.268-.177.289c-.64.163-1.277.203-1.844-.236-.032-.031-.057-.068-.072-.11s-.022-.087-.018-.131c.012-.066.112-.157.178-.162.246-.021.492-.009.903-.009zM37.576 9.508l.242.136c-.069.126-.111.329-.211.365a9.71 9.71 0 0 1-1.415.414c-.138.028-.339-.112-.467-.227-.147-.133-.059-.422.126-.451.545-.086 1.095-.152 1.724-.237zM21.28 26.138c.256.123.47.157.575.288.287.365.549.749.785 1.15.115.191.01.398-.184.453-.106.03-.299-.059-.377-.157a12.645 12.645 0 0 1-.867-1.212c-.061-.1.034-.301.068-.521zM31.328 10.934c.016-.112 0-.239.051-.288.069-.064.217-.118.288-.083.097.048.16.178.227.281.186.285.369.572.546.864.079.131.185.27.192.411.008.13-.07.3-.166.389-.053.05-.273.018-.327-.052-.354-.462-.779-.894-.81-1.522zM32.43 6.029c-.077.471-.107.818-.197 1.151a.949.949 0 0 1-.307.455c-.102.084-.279.072-.422.103-.011-.137-.053-.28-.029-.41.075-.402.175-.798.264-1.197.007-.031.005-.064.014-.094.071-.24.223-.424.467-.324.123.05.181.271.209.317zM25.82 9.095c.215.028.494.042.76.108.091.022.225.19.209.262-.028.129-.133.299-.243.338a.904.904 0 0 1-.54.003c-.307-.1-.592-.134-.898-.002-.201.086-.389-.004-.443-.209-.072-.275.13-.408.357-.447.241-.041.491-.035.799-.053zM30.601 22.641c-.087.39-.153.732-.247 1.067-.018.066-.153.154-.21.139-.102-.026-.245-.108-.266-.194a1.314 1.314 0 0 1-.015-.565c.072-.343.143-.668.008-1.018-.064-.168-.046-.435.202-.434.134 0 .326.17.386.31.098.224.104.488.142.696zM26.829 22.541c-.05.092-.074.2-.14.246-.404.285-.808.572-1.233.821-.108.064-.299.024-.437-.018-.203-.062-.245-.335-.077-.446.465-.305.932-.608 1.411-.889.077-.045.23.003.329.054.067.035.096.146.147.232zM21.686 4.212c.066.039.189.074.205.136.16.605.315 1.213.442 1.826.035.17-.184.265-.332.163-.463-.32-.752-1.504-.482-2 .028-.049.096-.074.166-.125zM27.413 5.932c-.14-.095-.29-.144-.311-.227-.022-.09.05-.242.128-.314.34-.312.696-.605 1.066-.878.125-.09.383-.154.479-.083.226.163.107.393-.05.561-.212.227-.422.466-.665.649-.187.138-.427.197-.647.293zM18.6 9.131l-.339.328c-.097-.107-.24-.196-.281-.325a23.548 23.548 0 0 1-.428-1.523c-.018-.07.038-.214.096-.238.094-.039.248-.055.32 0 .141.106.301.249.347.409.121.416.184.852.285 1.349zM14.89 17.535c-.311.584-.547 1.183-1.126 1.501-.097.053-.313-.015-.417-.1-.177-.144 0-.264.086-.387.272-.384.523-.783.812-1.152.074-.095.263-.141.392-.128.087.008.159.161.253.267zM18.402 17.584c.162.096.28.125.302.188.036.104.055.267 0 .339-.089.115-.241.181-.372.258-.34.2-.675.411-1.029.581a.459.459 0 0 1-.399-.034c-.197-.144-.128-.375.031-.477.485-.312.996-.584 1.467-.855zM35.978 14.938c-.125.289-.3.724-.509 1.143-.032.065-.234.1-.319.061-.079-.037-.166-.2-.15-.289a11.3 11.3 0 0 1 .317-1.382c.043-.137.237-.262.386-.308.055-.017.2.196.268.327.039.074.007.187.007.448zM14.793 11.467c.55.506.485 1.193.546 1.828.011.118-.132.286-.246.372-.06.045-.303-.027-.309-.068a37.791 37.791 0 0 1-.207-1.93c-.004-.055.125-.122.215-.201zM27.648 27.137c.092.025.183.055.272.091.33.157.663.31.985.483.153.082.307.184.417.314.127.151-.018.442-.195.402-.6-.133-1.185-.318-1.634-.778-.066-.068-.065-.238-.043-.351.013-.064.128-.108.199-.161zM20.352 11.652c.032.102.141.26.102.359a23.74 23.74 0 0 1-.672 1.546c-.029.063-.153.118-.227.108-.064-.008-.153-.101-.17-.171-.126-.567.271-1.582.713-1.837.046-.026.118-.004.254-.004zM37.496 20.26c-.069-.045-.213-.099-.288-.205-.03-.042.067-.234.15-.295.369-.275.745-.538 1.138-.773.106-.063.326-.068.404.003.072.066.082.314.018.405-.329.47-.744.828-1.421.864zM35.218 24.306c-.284-.03-.408-.033-.527-.061-.05-.011-.125-.072-.126-.112a.425.425 0 0 1 .065-.253.471.471 0 0 1 .23-.147c.439-.135.877-.271 1.323-.38.097-.024.3.042.313.098.029.134-.006.297-.057.432-.027.071-.136.131-.219.157-.381.107-.764.203-1.002.266zM22.012 21.059c-.031.137-.082.441-.181.727-.025.071-.216.14-.304.114s-.192-.175-.189-.268c.009-.53.035-1.061.087-1.588.011-.115.153-.217.235-.324.098.106.257.2.282.323.056.273.044.561.069 1.017zM42.564 4.474c0-1.123.265-1.974.795-2.554.536-.586 1.222-.879 2.059-.879s1.502.253 1.995.759c.5.506.749 1.314.749 2.425s-.265 1.95-.795 2.517c-.53.568-1.237.851-2.122.851-.764 0-1.391-.225-1.878-.676-.253-.234-.452-.558-.596-.972-.138-.42-.208-.91-.208-1.471zm2.827-3.341c-.608 0-1.108.278-1.499.833-.385.555-.578 1.37-.578 2.443s.184 1.857.551 2.351c.367.494.855.74 1.463.74.614 0 1.114-.278 1.499-.833.391-.561.587-1.373.587-2.434 0-1.067-.187-1.851-.56-2.35-.367-.5-.855-.75-1.463-.75zM49.724 7.556h-.749V1.078h.749v2.98h2.935v-2.98h.749v6.478h-.749V4.151h-2.935v3.405zM57.261 7.556h-.117l.786-6.478h.298l1.896 5.987 1.887-5.987h.298l.786 6.478h-.749l-.623-5.182-1.634 5.182h-.569l-1.652-5.117-.605 5.117zM68.095 1.078a.623.623 0 0 1 .172.453c0 .154-.033.312-.099.472l-1.616 3.359v2.193h-.749v-1.99l-1.806-4.488h.767l1.725 4.173 1.571-3.248c.066-.154.099-.315.099-.481s-.045-.296-.135-.389l.072-.056zM1.273 9.258a29.08 29.08 0 0 1 1.368-.033c.456 0 .933.049 1.432.147a5.034 5.034 0 0 1 1.496.554c.499.261.918.603 1.257 1.027.35.413.631.962.843 1.647s.318 1.517.318 2.495c0 .978-.159 1.859-.477 2.642-.308.772-.732 1.364-1.273 1.777-1.05.804-2.318 1.207-3.803 1.207-.52 0-1.066-.022-1.639-.065h-.796V9.257h1.273zm.048 11.268c.223.022.504.033.843.033s.594-.005.764-.016c.17-.011.403-.054.7-.13.297-.087.573-.201.827-.342s.52-.348.796-.62c.286-.283.53-.614.732-.995.456-.891.684-2.055.684-3.49 0-1.022-.122-1.902-.366-2.642-.244-.75-.525-1.305-.843-1.663a3.293 3.293 0 0 0-1.13-.848c-.446-.217-.801-.342-1.066-.375s-.573-.049-.923-.049-.69.016-1.018.049v11.089zM42.823 20.656h-.207V9.241h.541l6.619 10.551V9.241h.207v11.415h-1.162l-5.999-9.458v9.458zM59.781 9.241h.207v6.523c0 1.707-.329 2.962-.987 3.767-.658.794-1.517 1.19-2.578 1.19-.668 0-1.236-.06-1.702-.179a3.626 3.626 0 0 1-1.321-.701c-.849-.674-1.273-2.033-1.273-4.077V9.241h1.321v6.507c0 1.979.292 3.3.875 3.963.297.326.605.549.923.669.329.12.721.179 1.177.179 1.018 0 1.83-.381 2.434-1.142.615-.772.923-1.995.923-3.669V9.241zM65.415 20.656h-1.321V9.404h-2.753v-.163h6.842v.163h-2.769v11.252z"/></symbol></defs></svg>