<svg aria-hidden="true" style="width:0;height:0;position:absolute;overflow:hidden" xmlns="http://www.w3.org/2000/svg"><defs><symbol id="icon-twitter" viewBox="0 0 34 32"><path d="M34.133 3.669a13.11 13.11 0 0 1-3.96 1.229l-.072.009c1.451-.969 2.558-2.492 3.078-4.324a12.957 12.957 0 0 1-4.349 1.875l-.088.017C27.458.948 25.627 0 23.631 0c-3.874 0-6.993 3.516-6.993 7.825 0 .619.047 1.216.162 1.783C10.982 9.29 5.835 6.173 2.377 1.425a8.477 8.477 0 0 0-.958 3.944v.012-.001c0 2.709 1.248 5.109 3.108 6.5a6.332 6.332 0 0 1-3.188-.98l.026.015V11c0 3.804 2.426 6.961 5.606 7.689-.57.173-1.19.256-1.835.256-.448 0-.9-.028-1.325-.132.907 3.098 3.479 5.376 6.539 5.449-2.381 2.082-5.404 3.337-8.676 3.337-.574 0-1.124-.03-1.675-.107 3.1 2.234 6.773 3.509 10.735 3.509 12.877 0 19.917-11.925 19.917-22.259 0-.346-.011-.681-.026-1.011a15.072 15.072 0 0 0 3.469-3.993l.038-.068z"/></symbol><symbol id="icon-tel" viewBox="0 0 32 32"><path d="M29.43 20.47h-.033c-2.027 0-3.978-.324-5.805-.924l.131.037c-.894-.295-1.991-.025-2.535.519l-3.599 2.649c-4.172-2.171-6.742-4.677-8.938-8.711l2.634-3.414a2.48 2.48 0 0 0 .638-2.555c-.577-1.653-.911-3.559-.911-5.543v-.026.001C11.01 1.122 9.855 0 8.442 0H2.566C1.151 0-.001 1.122-.001 2.503c0 15.815 13.201 28.682 29.43 28.682 1.415 0 2.567-1.122 2.567-2.503v-5.711c0-1.378-1.152-2.501-2.567-2.501z"/></symbol><symbol id="icon-people" viewBox="0 0 32 32"><path fill="#674d40" style="fill:var(--color1,#674d40)" d="M10.607 0C7.314 0 4.632 3.078 4.632 6.856c0 3.779 2.682 6.856 5.975 6.856s5.976-3.078 5.976-6.856C16.583 3.077 13.901 0 10.605 0zm0 12.562c-2.749 0-4.98-2.566-4.98-5.714 0-3.145 2.237-5.713 4.98-5.713 2.75 0 4.98 2.566 4.98 5.714 0 3.147-2.235 5.713-4.98 5.713zm12.239-9.716c-2.475 0-4.486 2.306-4.486 5.144 0 2.84 2.011 5.146 4.486 5.146 2.473 0 4.485-2.306 4.485-5.146 0-2.839-2.011-5.144-4.485-5.144zm0 9.156c-1.926 0-3.49-1.795-3.49-4.003s1.565-4.003 3.49-4.003c1.925 0 3.49 1.795 3.49 4.003 0 2.21-1.565 4.003-3.49 4.003z"/><path fill="#674d40" style="fill:var(--color1,#674d40)" d="M30.868 20.678c-.451-3.125-2.144-5.76-5.029-7.142 0 0-1.277 1.108-2.993 1.073-1.876-.043-2.994-1.073-2.994-1.073s-1.393.596-2.517 1.836c-1.039-1.058-2.793-1.92-2.793-1.92s-1.606 1.402-3.941 1.381c-2.449-.021-3.927-1.381-3.927-1.381S1.376 15.54.257 22.628c0 0-1.198 3.756 1.576 9.371h17.554s1.246-2.488 1.466-4.003h8.731c2.146-3.729 1.283-7.317 1.283-7.317zM18.77 30.857H2.45c-2.133-4.648-1.21-8.04-1.21-8.04.52-3.555 2.511-6.554 5.359-8.076 1.123.774 2.513 1.236 4.011 1.236s2.888-.462 4.036-1.251l-.024.016c2.846 1.522 4.838 4.521 5.358 8.076-.006 0 .881 4.177-1.21 8.04zm10.234-4.003h-7.948c.305-2.018-.098-4.227-.098-4.227-.361-2.494-1.387-4.745-2.891-6.484a7.144 7.144 0 0 1 1.705-1.317 5.556 5.556 0 0 0 6.141 0c2.107 1.155 3.586 3.392 3.971 6.042 0 0 .727 2.831-.881 5.986z"/></symbol><symbol id="icon-menu" viewBox="0 0 60 32"><path d="M2 0h56a2 2 0 1 1 0 4H2a2 2 0 1 1 0-4zM2 14h56a2 2 0 1 1 0 4H2a2 2 0 1 1 0-4zM2 28h56a2 2 0 1 1 0 4H2a2 2 0 1 1 0-4z"/></symbol><symbol id="icon-logo" viewBox="0 0 61 32"><path d="M36.151 16.031c0 .256-.007.512 0 .768.076 2.603-.629 4.949-1.762 7.16a33.89 33.89 0 0 0-1.07 2.271c-.27.637-.645 1.083-1.228 1.344-.326.145-.628.397-.901.657-1.257 1.196-2.683 2.052-4.208 2.655-1.013.4-2.056.753-3.156.737-.328-.004-.657.112-.986.113s-.657-.122-.983-.105c-1.419.07-2.734-.433-4.039-.961-1.424-.576-2.682-1.485-3.865-2.569-1.67-1.529-2.859-3.454-3.734-5.658-.471-1.188-.855-2.414-.964-3.733-.018-.219-.081-.435-.137-.648-.397-1.479-.169-2.929.077-4.403.188-1.127.381-2.24.747-3.31.967-2.83 2.502-5.148 4.628-6.968C16.343 1.865 18.327.933 20.484.533c2.475-.459 4.892-.129 7.236.945 1.17.537 2.274 1.218 3.238 2.119.899.841 1.71 1.824 2.477 2.829.694.911 1.187 1.996 1.628 3.103.688 1.729 1.136 3.519 1.09 5.443-.01.355-.003.708-.003 1.06zm-.95-3.504c-.068-.604-.111-1.305-.239-1.984-.365-1.955-1.348-3.482-2.658-4.728-.744-.709-1.554-1.324-2.354-1.951-.271-.212-.585-.407-.901-.472-.812-.172-1.634-.333-2.457-.382-1.429-.084-2.713-.509-3.792-1.653-.794-.842-1.659-.924-2.485-.182-.936.839-2 1.332-3.086 1.82-.795.357-1.561.808-2.326 1.253-.639.372-1.011.953-1.002 1.833.005.493-.191.905-.588 1.179a9.23 9.23 0 0 0-.958.765l.007-.006c-.846.767-1.505 1.631-1.647 2.971-.113 1.06-.391 2.108-1.022 2.981a2.17 2.17 0 0 0-.376 1.049c-.058.792-.034 1.594-.017 2.392.005.213.085.442.18.63.258.524.494.947.749 1.357l-.038-.066c.619.992 1.158 2.008 1.282 3.268.12 1.22.632 2.215 1.498 2.974 1.254 1.1 2.463 2.268 3.736 3.339.684.577 1.417 1.082 2.319 1.199s1.787.4 2.596.924c.17.105.356.171.547.193 1.142.142 2.198-.184 3.201-.799.314-.193.638-.368.963-.536.783-.404 1.652-.669 2.334-1.232.759-.627 1.571-.905 2.442-1.081.376-.076.684-.255.929-.577.292-.383.563-.787.868-1.157.315-.381.543-.787.598-1.331.084-.833.394-1.569.787-2.276.665-1.194 1.043-2.514 1.24-3.918.052-.368.081-.679-.077-1.003-.458-.935-.271-1.997-.416-2.992-.073-.538.095-1.127.166-1.797l-.002.001zm-5.509-9.34c-.193-.246-.255-.357-.342-.426-.158-.126-.33-.229-.498-.338-1.437-.932-3.01-1.385-4.618-1.711-.323-.066-.663-.036-.992-.022-.086.004-.188.1-.243.186-.025.039.031.177.079.243a3.12 3.12 0 0 0 1.35 1.072 7.983 7.983 0 0 0 2.826.611c.408.013.816.102 1.223.166.347.057.693.125 1.216.219zM17.486 30.053c-.964-.908-1.81-1.719-2.67-2.509a97.596 97.596 0 0 0-2.168-1.915c-.082-.071-.211-.069-.39-.122.877 1.696 3.806 4.273 5.227 4.546zM10.988 8.869c.582-.512 1.12-1.05 1.71-1.496.828-.622 1.145-1.394.949-2.721-.588.554-1.007 1.22-1.46 1.826-.479.639-.834 1.4-1.233 2.115-.031.058.019.172.034.276zm19.614 19.355c-.543-.043-1.089.067-1.429.405-.646.64-1.414.961-2.196 1.281-.41.168-.797.414-1.184.649-.053.032-.063.205-.052.307.004.034.148.091.208.067.702-.276 1.427-.498 2.092-.866.815-.45 1.58-1.021 2.36-1.55.082-.053.125-.178.201-.294zM9.875 19.353c-.156.529-.125.823-.027 1.135.272.866.437 1.78.927 2.537.182.281.219.908.554.773.295-.118-.05-.615-.07-.95-.077-1.28-.662-2.311-1.384-3.495zm5.263-15.938.073.126c.405-.173.814-.337 1.216-.522a94.136 94.136 0 0 0 3.636-1.687l-1.028.456c.175-.085.335-.221.484-.359.042-.039.034-.172.021-.254-.007-.037-.089-.076-.137-.079a.756.756 0 0 0-.245.047l.005-.002c-1.178.385-2.289.956-3.352 1.648-.249.162-.45.414-.673.624zm20.69 13.745c.071-.095.127-.135.131-.18.115-1.394-.013-2.776-.179-4.154-.008-.069-.092-.168-.148-.177-.063-.009-.16.05-.198.115a.818.818 0 0 0-.113.345 15.327 15.327 0 0 0 .207 3.487l-.013-.091c.038.226.2.424.314.655zM9.591 13.312c.46-.202.528-.568.578-.898.12-.805.42-1.58.321-2.431-.481 1.016-.907 2.045-.899 3.329zm11.127 17.673c-1.031-.525-1.31-.58-2.228-.433.389.17.739.439 1.091.444.367.006.765.524 1.137-.011z"/><path d="M22.843 20.542c-.705-.015-1.189-.354-1.547-1.011-.334-.612-.889-.93-1.398-1.307-.641-.475-1.163-1.011-1.311-1.975a2.998 2.998 0 0 1 .247-1.736 2.8 2.8 0 0 1 .9-1.088c.393-.278.718-.54.9-1.053.205-.591.722-.626 1.18-.733.431-.1.87-.164 1.295-.289.582-.171 1.109-.118 1.534.403.328.405.712.695 1.139.941.445.255.591.553.452 1.086-.095.362-.003.608.114.897.128.315.26.635.348.968.293 1.107-.044 2.039-.946 2.532-.559.305-.987.713-1.126 1.429-.056.289-.212.452-.433.527-.446.15-.899.274-1.348.409zm2.958-4.641c.014-1.95-1.269-3.51-2.938-3.512-1.498 0-3.004 1.167-3.063 3.404-.047 1.79 1.248 3.458 2.936 3.464 2.056.012 3.025-1.632 3.065-3.356zm-6.017 1.864c0-.25.021-.378-.003-.493-.221-1.059-.365-2.109.137-3.129.036-.073-.047-.224-.075-.339-.099.037-.218.044-.292.115-.83.784-1.2 2.667.234 3.847zm3.081-5.865c.347.146.545.25.753.315.765.233 1.417.652 1.871 1.424.09.152.205.378.376.205.091-.092.121-.375.068-.516-.071-.188-.232-.422-.386-.459-.42-.101-.65-.452-.924-.757-.46-.509-.975-.669-1.758-.211zm-.047 7.676-.01-.074c-.22 0-.443-.022-.66.009-.112.016-.213.125-.319.192.096.098.18.252.291.284.593.172 1.19.209 1.774-.054.1-.045.211-.104.274-.197a.525.525 0 0 0 .062-.324c-.004-.039-.143-.099-.211-.086-.401.072-.801.164-1.2.249l-.002.001zm3.03-2c.41-.088.594-.354.618-.764a7.606 7.606 0 0 0-.015-1.065l.002.028c-.006-.091-.117-.172-.179-.258-.091.1-.277.233-.26.293.167.598-.182 1.133-.166 1.764v.001zm3.755 2.7c-.024.014-.119.106-.222.118-.094.013-.231-.024-.289-.099a16.734 16.734 0 0 1-.836-1.176c-.068-.107-.096-.394-.057-.418.128-.081.379-.167.435-.096.33.419.621.88.919 1.332.029.045.02.123.05.34zM15.628 23.56c.153.014.454.025.748.083.073.015.171.18.171.278s-.084.268-.158.289c-.571.163-1.14.204-1.645-.236a.31.31 0 0 1-.064-.108l-.001-.002a.317.317 0 0 1-.017-.105l.001-.028v.001c.011-.066.1-.157.159-.162.219-.021.439-.009.806-.009zM33.53 9.716l.216.136c-.061.126-.099.33-.188.366a7.53 7.53 0 0 1-1.208.404l-.055.011c-.123.028-.303-.112-.417-.227-.131-.133-.053-.423.113-.452.487-.086.977-.152 1.539-.238zM18.988 26.378c.229.123.42.157.513.289.232.327.464.704.673 1.095l.028.057c.103.191.009.398-.164.454-.095.03-.266-.059-.336-.157a11.977 11.977 0 0 1-.741-1.152l-.033-.062c-.055-.1.03-.302.061-.522zm8.966-15.233c.014-.112 0-.24.046-.289.062-.065.194-.118.257-.083.087.048.143.178.202.281.166.286.329.573.487.866.07.131.165.271.171.412a.59.59 0 0 1-.148.39c-.048.05-.244.018-.292-.052-.316-.463-.695-.896-.723-1.526zm.984-4.915c-.068.472-.096.82-.175 1.153a.96.96 0 0 1-.274.456c-.091.084-.249.072-.376.103-.01-.137-.048-.281-.026-.411.067-.402.156-.8.236-1.199.006-.031.004-.064.012-.094.063-.241.199-.424.417-.325.11.05.161.271.186.317zM23.04 9.302c.192.028.441.043.678.109.081.022.201.191.187.263-.025.13-.118.3-.217.339a.711.711 0 0 1-.487.001l.005.002c-.274-.1-.529-.134-.801-.002-.179.087-.348-.004-.395-.21-.064-.276.116-.409.318-.448.216-.041.438-.035.713-.053zm4.266 13.572c-.078.391-.137.734-.221 1.069-.016.066-.137.154-.187.139-.091-.026-.219-.108-.237-.194a1.447 1.447 0 0 1-.013-.575l-.001.009c.064-.343.128-.669.007-1.02-.057-.168-.041-.436.181-.435.119 0 .291.17.345.311.087.225.093.489.127.697zm-3.366-.1c-.044.092-.066.2-.125.246-.36.286-.721.573-1.1.823-.097.064-.267.024-.39-.018-.181-.062-.219-.336-.068-.447.415-.306.832-.609 1.259-.891.068-.045.205.004.294.054.06.035.085.146.131.233zM19.351 4.41c.058.039.169.074.183.136.143.607.281 1.215.394 1.829.031.17-.165.265-.296.163-.414-.32-.671-1.507-.43-2.004.025-.049.086-.074.148-.125zm5.111 1.723c-.125-.096-.259-.144-.277-.227-.02-.09.045-.243.115-.315.297-.306.607-.593.932-.865l.019-.016c.111-.09.342-.154.428-.083.202.163.096.394-.045.562-.189.227-.376.466-.594.65-.167.138-.381.198-.577.294zm-7.864 3.205-.302.329c-.086-.107-.214-.197-.25-.325a26.167 26.167 0 0 1-.382-1.526c-.016-.07.034-.215.085-.239.084-.039.222-.055.285 0 .126.107.269.25.31.41.108.417.165.853.254 1.351zm-3.311 8.42c-.277.585-.488 1.185-1.005 1.504-.087.054-.279-.015-.372-.1-.158-.144 0-.265.077-.388.242-.384.467-.785.724-1.155.066-.095.235-.142.35-.129.078.008.142.161.226.267zm3.134.05c.145.096.25.125.269.189.032.104.049.267 0 .339-.079.115-.215.181-.332.258-.303.2-.603.412-.918.583a.371.371 0 0 1-.356-.034c-.176-.144-.114-.376.027-.478.433-.312.888-.585 1.309-.857zm15.683-2.651c-.111.289-.268.726-.454 1.146-.029.065-.209.1-.285.061-.071-.037-.148-.201-.134-.29.075-.466.157-.935.283-1.385.038-.137.211-.262.344-.308.049-.017.178.197.239.328.035.074.006.187.006.448zM13.2 11.678c.491.507.432 1.196.487 1.831.01.118-.117.287-.219.372-.053.045-.27-.027-.275-.069a41.603 41.603 0 0 1-.184-1.934c-.004-.055.112-.122.192-.201zm11.471 15.701c.097.03.177.061.255.097l-.013-.005c.295.157.591.311.879.484.137.082.274.184.372.315.113.152-.016.442-.174.403-.535-.133-1.058-.319-1.458-.779-.059-.068-.058-.239-.039-.352.011-.064.115-.108.177-.162zM18.16 11.864c.028.102.126.26.091.359-.18.526-.388 1.039-.599 1.549-.026.063-.137.118-.203.108-.057-.008-.137-.101-.152-.172-.112-.568.241-1.585.636-1.841.041-.026.106-.004.226-.004zm15.298 8.625c-.062-.045-.19-.1-.257-.206-.027-.042.06-.234.134-.296.329-.276.665-.539 1.015-.774.094-.063.291-.068.36.003.064.066.074.315.016.406-.293.471-.664.83-1.268.866zm-2.032 4.054c-.254-.03-.364-.033-.47-.061-.045-.011-.111-.072-.112-.112a.46.46 0 0 1 .058-.254.426.426 0 0 1 .205-.148c.391-.135.783-.271 1.18-.381.086-.024.268.042.279.098a.9.9 0 0 1-.051.433c-.024.072-.121.131-.195.157-.34.108-.681.204-.894.267zm-11.784-3.254c-.028.137-.074.442-.161.729-.022.071-.193.14-.272.114s-.171-.175-.169-.268c.008-.531.031-1.063.078-1.592.01-.115.137-.217.21-.325.088.107.23.201.252.323.05.274.039.562.062 1.019zM37.981 4.672c0-1.125.236-1.978.709-2.559.478-.587 1.091-.881 1.837-.881s1.34.253 1.78.76c.446.507.669 1.317.669 2.429s-.236 1.953-.709 2.522c-.473.569-1.104.853-1.893.853-.682 0-1.241-.226-1.676-.677-.225-.235-.403-.559-.532-.974-.124-.42-.185-.912-.185-1.474zm2.522-3.348c-.542 0-.988.278-1.337.835-.344.556-.515 1.372-.515 2.448s.164 1.861.492 2.355c.327.495.763.742 1.305.742.548 0 .994-.278 1.337-.835.349-.563.524-1.375.524-2.439 0-1.069-.166-1.854-.499-2.355-.328-.501-.763-.751-1.305-.751zm3.867 6.435h-.669V1.268h.669v2.986h2.619V1.268h.669v6.491h-.669V4.347H44.37v3.412zm6.725 0h-.105l.701-6.491h.266l1.692 5.999 1.684-5.999h.266l.701 6.491h-.669l-.556-5.192-1.458 5.192h-.508l-1.474-5.128-.54 5.128zm9.668-6.49a.667.667 0 0 1 .153.454c0 .155-.03.312-.089.473l-1.442 3.366v2.197h-.669V5.765l-1.612-4.497h.685l1.539 4.182 1.402-3.255c.059-.155.089-.315.089-.482s-.04-.297-.121-.389l.064-.056zM1.136 9.465c.364-.021.791-.032 1.22-.033h.001c.407 0 .833.049 1.278.147.454.098.899.283 1.335.556.445.261.819.605 1.122 1.029.312.414.563.964.753 1.65s.284 1.52.284 2.5-.142 1.863-.426 2.647c-.274.773-.653 1.367-1.136 1.781-.937.806-2.068 1.209-3.393 1.209-.464 0-.951-.022-1.462-.065h-.71V9.465h1.136zm.042 11.29c.199.022.45.033.752.033s.53-.005.682-.016c.151-.011.36-.054.625-.131.265-.087.511-.202.738-.343s.464-.349.71-.621c.256-.283.473-.615.653-.997.407-.893.611-2.059.611-3.497 0-1.024-.109-1.906-.327-2.647-.218-.752-.469-1.307-.752-1.667a3.001 3.001 0 0 0-1.008-.85c-.398-.218-.715-.343-.951-.376s-.511-.049-.823-.049-.615.016-.909.049v11.111zm37.034.131h-.185V9.448h.483l5.906 10.572V9.448h.185v11.438h-1.036l-5.353-9.477v9.477zM53.343 9.448h.185v6.536c0 1.71-.293 2.968-.88 3.774-.587.795-1.354 1.193-2.3 1.193-.596 0-1.103-.06-1.519-.18a3.145 3.145 0 0 1-1.179-.703c-.757-.675-1.136-2.037-1.136-4.085V9.447h1.179v6.519c0 1.983.26 3.306.781 3.97.265.327.539.55.824.67.293.12.643.18 1.051.18.909 0 1.633-.381 2.172-1.144.549-.773.824-1.999.824-3.676V9.447zm5.028 11.438h-1.179V9.612h-2.456v-.163h6.105v.163H58.37v11.274z"/></symbol><symbol id="icon-Instagram" viewBox="0 0 32 32"><path d="M16.316 32h-.319c-2.508.006-4.826-.058-7.08-.195-2.067-.126-3.953-.84-5.455-2.065-1.45-1.182-2.44-2.781-2.943-4.75-.437-1.715-.461-3.398-.483-5.026A323.738 323.738 0 0 1 0 16.07v-.067c.003-1.414.02-2.798.036-3.966.022-1.628.046-3.311.483-5.026.503-1.97 1.493-3.568 2.943-4.75C4.964 1.036 6.851.322 8.917.196c2.254-.137 4.572-.201 7.086-.195 2.509-.005 4.826.058 7.08.195 2.066.126 3.953.84 5.455 2.065 1.45 1.182 2.44 2.78 2.943 4.75.437 1.715.461 3.398.483 5.026.016 1.168.033 2.553.036 3.96v.006c-.003 1.408-.02 2.792-.036 3.96-.022 1.628-.045 3.311-.483 5.026-.503 1.97-1.493 3.568-2.943 4.75-1.502 1.225-3.389 1.939-5.455 2.065-2.159.131-4.376.195-6.768.195zm-.319-2.5c2.468.006 4.733-.056 6.934-.19 1.563-.095 2.917-.602 4.027-1.507 1.026-.837 1.732-1.991 2.1-3.431.364-1.428.385-2.96.406-4.442.017-1.099.031-2.477.036-3.857v-.072c-.005-1.452-.018-2.83-.039-4.207l.003.278c-.02-1.482-.041-3.015-.406-4.443-.367-1.44-1.074-2.594-2.1-3.431-1.11-.905-2.465-1.412-4.027-1.507a108.807 108.807 0 0 0-6.928-.19c-2.467-.006-4.733.056-6.934.19-1.563.095-2.917.602-4.027 1.507-1.026.837-1.732 1.991-2.1 3.431-.364 1.428-.385 2.96-.405 4.443a363.726 363.726 0 0 0-.036 3.932c.004 1.389.02 2.765.036 3.926.02 1.482.041 3.015.406 4.442.367 1.44 1.074 2.594 2.1 3.431 1.11.905 2.465 1.412 4.027 1.507 2.201.134 4.468.197 6.928.191zm-.06-5.688c-4.308 0-7.813-3.505-7.813-7.812s3.505-7.813 7.813-7.813S23.75 11.692 23.75 16s-3.505 7.812-7.813 7.812zm0-13.125c-2.929 0-5.313 2.383-5.313 5.313s2.383 5.312 5.313 5.312c2.93 0 5.313-2.383 5.313-5.312s-2.383-5.313-5.313-5.313zm8.688-5a1.874 1.874 0 1 0 0 3.75 1.874 1.874 0 1 0 0-3.75z"/></symbol><symbol id="icon-facebook" viewBox="0 0 16 32"><path d="M14.512.006 10.896 0c-4.064 0-6.69 3.092-6.69 7.876v3.63H.568c-.314 0-.568.294-.568.654v5.26c0 .36.254.652.568.652h3.638v13.276c0 .36.254.652.568.652H9.52c.314 0 .568-.292.568-.652V18.072h4.252c.314 0 .568-.292.568-.652l.002-5.26c0-.174-.06-.34-.166-.462a.535.535 0 0 0-.402-.192h-4.254V8.428c0-1.48.308-2.23 1.988-2.23h2.436c.314 0 .568-.294.568-.654V.66c0-.36-.254-.652-.568-.654z"/></symbol><symbol id="icon-chat" viewBox="0 0 40 32"><path fill="#674d40" style="fill:var(--color1,#674d40)" d="M30.413 13.711C30.413 5.429 22.805 0 15.209 0 7.578 0 0 5.455 0 13.711c0 3.125 1.192 6.178 3.358 8.602a.412.412 0 0 1 .082.368l.001-.003c-.681 2.859-2.293 5.44-2.952 6.419a1.09 1.09 0 0 0-.086 1.055L.4 30.145a.848.848 0 0 0 .765.542h.024c3.234-.094 6.984-1.141 9.299-3.753a.3.3 0 0 1 .315-.095l-.002-.001c1.425.386 2.906.584 4.405.584 7.627 0 15.209-5.453 15.209-13.711zM11.068 25.544a1.354 1.354 0 0 0-1.388.438l-.002.002c-2.319 2.618-6.103 3.211-7.895 3.343.819-1.295 2.15-3.676 2.773-6.298a1.872 1.872 0 0 0-.394-1.671l.002.003c-1.967-2.202-3.008-4.847-3.008-7.65 0-6.827 6.302-12.382 14.052-12.382 7.746 0 14.048 5.553 14.048 12.382 0 6.827-6.302 12.382-14.048 12.382h-.019c-1.466 0-2.885-.2-4.231-.574l.111.026z"/><path fill="#674d40" style="fill:var(--color1,#674d40)" d="M34.138 24.749c3.375-1.958 5.391-5.295 5.391-8.924 0-5.131-4.043-9.517-9.613-10.426-.316-.051-.61.201-.655.565s.175.698.491.751c4.994.815 8.619 4.648 8.619 9.111 0 3.119-1.779 6.012-4.757 7.736-.578.339-.888 1.08-.753 1.807.282 1.523.883 2.931 1.363 3.887-3.418-.653-4.715-2.536-5.126-3.351-.252-.503-.727-.815-1.237-.815h-.047c-.64 0-1.284-.051-1.911-.151-.316-.051-.61.201-.653.565-.045.363.175.698.493.751a13.08 13.08 0 0 0 2.071.164h.047a.264.264 0 0 1 .233.149l.001.002c1.568 3.117 5.175 3.915 6.65 4.111.328.043.638-.126.811-.446a1.073 1.073 0 0 0-.008-1.037l.003.005c-.444-.794-1.239-2.387-1.559-4.111a.33.33 0 0 1 .143-.342l.001-.001zM6.197 11.334c-1.107 0-2.007 1.033-2.007 2.302 0 1.271.9 2.304 2.007 2.304s2.007-1.035 2.007-2.304-.9-2.302-2.007-2.302zm0 3.275c-.469 0-.849-.435-.849-.973 0-.536.38-.973.847-.973.471 0 .851.437.851.973 0 .538-.382.975-.849.975zm5.724-3.275c-1.107 0-2.007 1.033-2.007 2.302 0 1.271.9 2.304 2.007 2.304s2.007-1.035 2.007-2.304-.9-2.302-2.007-2.302zm0 3.275c-.467 0-.847-.435-.847-.973 0-.536.38-.973.847-.973.469 0 .849.437.849.973 0 .538-.38.975-.847.975zm5.726-3.275c-1.107 0-2.008 1.033-2.008 2.302 0 1.271.902 2.304 2.008 2.304 1.105 0 2.007-1.035 2.007-2.304s-.902-2.302-2.007-2.302zm0 3.275c-.471 0-.849-.435-.849-.973 0-.536.38-.973.847-.973.471 0 .849.437.849.973 0 .538-.38.975-.847.975zm5.724-3.275c-1.107 0-2.007 1.033-2.007 2.302 0 1.271.9 2.304 2.007 2.304s2.007-1.035 2.007-2.304-.9-2.302-2.007-2.302zm0 3.275c-.467 0-.847-.435-.847-.973 0-.536.38-.973.847-.973.469 0 .849.437.849.973 0 .538-.38.975-.847.975z"/></symbol><symbol id="icon-map" viewBox="0 0 23 32"><path d="M11.733 0c6.47 0 11.733 5.131 11.733 11.435 0 2.496-.811 4.866-2.34 6.854l-8.67 11.381c-.021.026-.055.036-.079.062a.886.886 0 0 1-1.364-.062l-.002-.002c-2.498-3.245-7.074-9.308-8.832-11.595l-.004-.004-.011-.013a11.071 11.071 0 0 1-2.165-6.605v-.017.001C-.001 5.131 5.262 0 11.732 0zm0 17.604c3.484 0 6.33-2.773 6.33-6.17 0-3.394-2.846-6.17-6.33-6.17s-6.33 2.773-6.33 6.17c0 3.394 2.846 6.17 6.33 6.17z"/></symbol><symbol id="icon-close" viewBox="0 0 32 32"><path d="M30.354 32a1.646 1.646 0 0 0 1.162-2.81L2.812.481A1.647 1.647 0 0 0 .483 2.81l28.708 28.708c.322.32.743.484 1.164.484z"/><path d="M1.644 32c.421 0 .843-.16 1.164-.484L31.517 2.81A1.647 1.647 0 0 0 29.188.481L.479 29.19a1.645 1.645 0 0 0 1.164 2.809z"/></symbol><symbol id="icon-clock" viewBox="0 0 32 32"><path fill="#674d40" style="fill:var(--color1,#674d40)" d="M16 0C7.177 0 0 7.177 0 16s7.177 16 16 16 16-7.177 16-16S24.823 0 16 0zm0 30.933C7.765 30.933 1.067 24.234 1.067 16S7.766 1.067 16 1.067c8.235 0 14.933 6.699 14.933 14.933S24.234 30.933 16 30.933z"/><path fill="#674d40" style="fill:var(--color1,#674d40)" d="M16.533 13.877v-5.41a.533.533 0 1 0-1.066 0v5.41a2.132 2.132 0 0 0-1.524 1.524h-3.81a.533.533 0 1 0 0 1.066h3.81a2.13 2.13 0 0 0 2.057 1.6 2.134 2.134 0 0 0 2.133-2.133c0-.99-.683-1.818-1.6-2.057zM16 17.001a1.067 1.067 0 0 1 .002-2.134h.002a1.067 1.067 0 0 1-.002 2.134H16zm0-11.732a.533.533 0 0 0 .533-.533v-.533a.533.533 0 1 0-1.066 0v.533c0 .294.239.533.533.533zm0 21.334a.533.533 0 0 0-.533.533v.533a.533.533 0 1 0 1.066 0v-.533a.533.533 0 0 0-.533-.533zm11.733-11.2H27.2a.533.533 0 1 0 0 1.066h.533a.533.533 0 1 0 0-1.066zm-22.933 0h-.533a.533.533 0 1 0 0 1.066H4.8a.533.533 0 1 0 0-1.066zm19.119-8.142-.376.378a.533.533 0 1 0 .754.754l.376-.378a.533.533 0 1 0-.754-.754zM7.703 23.477l-.376.378a.533.533 0 1 0 .754.754l.376-.378a.533.533 0 1 0-.754-.754zm16.594 0a.533.533 0 1 0-.754.754l.376.378a.533.533 0 1 0 .754-.754l-.376-.378zM8.081 7.261a.533.533 0 1 0-.754.754l.376.378a.53.53 0 0 0 .754 0 .53.53 0 0 0 0-.754l-.376-.378z"/></symbol><symbol id="icon-chef-hat" viewBox="0 0 34 32"><path fill="#674d40" style="fill:var(--color1,#674d40)" d="M24.307 8.344a.48.48 0 0 1-.48-.48 7.029 7.029 0 0 0-14.052-.009v.009a.48.48 0 0 1-.96 0 7.987 7.987 0 0 1 15.972-.006v.006a.48.48 0 0 1-.48.48z"/><path fill="#674d40" style="fill:var(--color1,#674d40)" d="M25.709 19.206h-.003a.48.48 0 0 1-.003-.96 6.98 6.98 0 0 0 6.938-6.883v-.005a6.973 6.973 0 0 0-6.971-6.903h-.056.003c-.707 0-1.413.104-2.09.31a.48.48 0 0 1-.285-.917l.003-.001a8.109 8.109 0 0 1 2.373-.352h.05a7.932 7.932 0 0 1 7.932 7.859v.004a7.943 7.943 0 0 1-7.882 7.848H25.709zm-17.818 0h-.006A7.942 7.942 0 0 1 0 11.363v-.005a7.932 7.932 0 0 1 7.931-7.863h.054-.003c.805 0 1.603.117 2.373.352a.48.48 0 1 1-.285.917l.003.001a6.97 6.97 0 0 0-2.081-.31h-.011.001-.052a6.971 6.971 0 0 0-6.971 6.899v.004a6.98 6.98 0 0 0 6.935 6.888h.002a.482.482 0 0 1 .437.669l.001-.003a.482.482 0 0 1-.443.294h-.002z"/><path fill="#674d40" style="fill:var(--color1,#674d40)" d="M25.709 31.147H7.891a.48.48 0 0 1-.48-.48V18.726a.48.48 0 0 1 .96 0v11.461h16.858V18.726a.48.48 0 0 1 .96 0v11.941a.48.48 0 0 1-.48.48z"/><path fill="#674d40" style="fill:var(--color1,#674d40)" d="M29.05 26.496H11.232a.48.48 0 0 1 0-.96H29.05a.48.48 0 0 1 0 .96z"/></symbol><symbol id="icon-rate-five" viewBox="0 0 181 32"><path d="M14.732 3.903c.399-1.228 2.137-1.228 2.536 0l2.025 6.232c.178.549.69.921 1.268.921h6.552c1.292 0 1.829 1.653.784 2.412l-5.301 3.851a1.333 1.333 0 0 0-.484 1.491l2.025 6.232c.399 1.228-1.007 2.25-2.052 1.491l-5.301-3.851a1.334 1.334 0 0 0-1.567 0l-5.301 3.851c-1.045.759-2.451-.262-2.052-1.491l2.025-6.232a1.335 1.335 0 0 0-.484-1.491l-5.301-3.851c-1.045-.759-.508-2.412.784-2.412h6.552c.578 0 1.09-.372 1.268-.921l2.025-6.232zM164.065 3.903c.399-1.228 2.137-1.228 2.536 0l2.025 6.232c.179.549.689.921 1.268.921h6.552c1.292 0 1.828 1.653.784 2.412l-5.301 3.851a1.333 1.333 0 0 0-.484 1.491l2.024 6.232c.4 1.228-1.007 2.25-2.051 1.491l-5.301-3.851a1.336 1.336 0 0 0-1.568 0l-5.301 3.851c-1.044.759-2.451-.262-2.051-1.491l2.024-6.232a1.334 1.334 0 0 0-.484-1.491l-5.301-3.851c-1.044-.759-.508-2.412.784-2.412h6.552c.579 0 1.089-.372 1.268-.921l2.025-6.232zM126.732 3.903c.399-1.228 2.137-1.228 2.536 0l2.025 6.232c.178.549.69.921 1.268.921h6.552c1.292 0 1.828 1.653.784 2.412l-5.301 3.851a1.333 1.333 0 0 0-.484 1.491l2.024 6.232c.4 1.228-1.007 2.25-2.051 1.491l-5.302-3.851a1.334 1.334 0 0 0-1.567 0l-5.301 3.851c-1.045.759-2.451-.262-2.052-1.491l2.025-6.232a1.334 1.334 0 0 0-.484-1.491l-5.301-3.851c-1.045-.759-.508-2.412.784-2.412h6.552c.578 0 1.09-.372 1.268-.921l2.025-6.232zM89.399 3.903c.399-1.228 2.137-1.228 2.536 0l2.025 6.232c.178.549.69.921 1.268.921h6.552c1.292 0 1.829 1.653.784 2.412l-5.301 3.851a1.333 1.333 0 0 0-.484 1.491l2.025 6.232c.399 1.228-1.007 2.25-2.052 1.491l-5.301-3.851a1.334 1.334 0 0 0-1.567 0l-5.301 3.851c-1.045.759-2.451-.262-2.052-1.491l2.025-6.232a1.334 1.334 0 0 0-.484-1.491l-5.301-3.851c-1.045-.759-.508-2.412.784-2.412h6.552c.578 0 1.09-.372 1.268-.921L89.4 3.903zM52.065 3.903c.399-1.228 2.137-1.228 2.536 0l2.025 6.232c.178.549.69.921 1.268.921h6.552c1.292 0 1.829 1.653.784 2.412l-5.301 3.851a1.333 1.333 0 0 0-.484 1.491l2.025 6.232c.399 1.228-1.007 2.25-2.052 1.491l-5.301-3.851a1.334 1.334 0 0 0-1.567 0l-5.301 3.851c-1.045.759-2.451-.262-2.052-1.491l2.025-6.232a1.334 1.334 0 0 0-.484-1.491l-5.301-3.851c-1.045-.759-.508-2.412.784-2.412h6.552c.578 0 1.09-.372 1.268-.921l2.025-6.232z"/></symbol><symbol id="icon-rate-four" viewBox="0 0 181 32"><path d="M14.732 3.903c.399-1.228 2.137-1.228 2.536 0l2.025 6.232c.178.549.69.921 1.268.921h6.552c1.292 0 1.829 1.653.784 2.412l-5.301 3.851a1.333 1.333 0 0 0-.484 1.491l2.025 6.232c.399 1.228-1.007 2.25-2.052 1.491l-5.301-3.851a1.334 1.334 0 0 0-1.567 0l-5.301 3.851c-1.045.759-2.451-.262-2.052-1.491l2.025-6.232a1.335 1.335 0 0 0-.484-1.491l-5.301-3.851c-1.045-.759-.508-2.412.784-2.412h6.552c.578 0 1.09-.372 1.268-.921l2.025-6.232z"/><path fill="none" stroke="#ab816c" style="stroke:var(--color1,#ab816c)" stroke-width="1.333" d="M164.699 4.109c.2-.614 1.069-.614 1.269 0l2.024 6.232a2 2 0 0 0 1.903 1.382h6.552c.645 0 .915.826.392 1.206l-5.301 3.851a2 2 0 0 0-.727 2.236l2.025 6.232c.2.614-.504 1.125-1.027.745l-5.3-3.851a2.002 2.002 0 0 0-2.352 0l-5.3 3.851c-.523.38-1.227-.131-1.027-.745l2.025-6.232a1.998 1.998 0 0 0-.727-2.236l-5.301-3.851c-.523-.38-.253-1.206.392-1.206h6.552a2 2 0 0 0 1.903-1.382l2.024-6.232z"/><path d="M126.732 3.903c.399-1.228 2.137-1.228 2.536 0l2.025 6.232c.178.549.69.921 1.268.921h6.552c1.292 0 1.828 1.653.784 2.412l-5.301 3.851a1.333 1.333 0 0 0-.484 1.491l2.024 6.232c.4 1.228-1.007 2.25-2.051 1.491l-5.302-3.851a1.334 1.334 0 0 0-1.567 0l-5.301 3.851c-1.045.759-2.451-.262-2.052-1.491l2.025-6.232a1.334 1.334 0 0 0-.484-1.491l-5.301-3.851c-1.045-.759-.508-2.412.784-2.412h6.552c.578 0 1.09-.372 1.268-.921l2.025-6.232zM89.399 3.903c.399-1.228 2.137-1.228 2.536 0l2.025 6.232c.178.549.69.921 1.268.921h6.552c1.292 0 1.829 1.653.784 2.412l-5.301 3.851a1.333 1.333 0 0 0-.484 1.491l2.025 6.232c.399 1.228-1.007 2.25-2.052 1.491l-5.301-3.851a1.334 1.334 0 0 0-1.567 0l-5.301 3.851c-1.045.759-2.451-.262-2.052-1.491l2.025-6.232a1.334 1.334 0 0 0-.484-1.491l-5.301-3.851c-1.045-.759-.508-2.412.784-2.412h6.552c.578 0 1.09-.372 1.268-.921L89.4 3.903zM52.065 3.903c.399-1.228 2.137-1.228 2.536 0l2.025 6.232c.178.549.69.921 1.268.921h6.552c1.292 0 1.829 1.653.784 2.412l-5.301 3.851a1.333 1.333 0 0 0-.484 1.491l2.025 6.232c.399 1.228-1.007 2.25-2.052 1.491l-5.301-3.851a1.334 1.334 0 0 0-1.567 0l-5.301 3.851c-1.045.759-2.451-.262-2.052-1.491l2.025-6.232a1.334 1.334 0 0 0-.484-1.491l-5.301-3.851c-1.045-.759-.508-2.412.784-2.412h6.552c.578 0 1.09-.372 1.268-.921l2.025-6.232z"/></symbol><symbol id="icon-logo-2" viewBox="0 0 190 85"><path d="M112.759 42.492c0 .693-.022 1.386 0 2.08.236 7.045-1.964 13.394-5.496 19.38-1.185 2.007-2.317 4.049-3.337 6.146-.842 1.724-2.011 2.932-3.83 3.639-1.016.393-1.958 1.075-2.81 1.777-3.92 3.236-8.367 5.553-13.123 7.186-3.16 1.083-6.413 2.037-9.845 1.994-1.023-.012-2.049.303-3.074.306-1.025.003-2.05-.33-3.065-.286-4.426.19-8.526-1.172-12.597-2.6-4.443-1.558-8.366-4.02-12.057-6.953-5.207-4.137-8.918-9.349-11.647-15.315-1.47-3.215-2.667-6.534-3.005-10.103-.057-.592-.253-1.178-.427-1.753-1.238-4.003-.526-7.928.24-11.916.586-3.05 1.189-6.064 2.33-8.96 3.015-7.66 7.803-13.933 14.435-18.86C50.981 4.151 57.17 1.63 63.897.545c7.72-1.243 15.258-.348 22.57 2.558 3.65 1.454 7.093 3.296 10.1 5.735 2.804 2.275 5.334 4.937 7.724 7.657 2.166 2.466 3.704 5.402 5.077 8.398 2.144 4.681 3.542 9.526 3.4 14.731-.031.962-.008 1.916-.009 2.868Zm-2.964-9.483c-.214-1.635-.347-3.53-.747-5.37-1.14-5.292-4.205-9.423-8.291-12.796-2.32-1.918-4.848-3.585-7.34-5.28-.844-.574-1.825-1.102-2.81-1.279-2.535-.466-5.098-.902-7.666-1.033-4.458-.227-8.462-1.377-11.827-4.475-2.478-2.28-5.175-2.5-7.75-.494-2.918 2.272-6.24 3.606-9.624 4.926-2.481.968-4.87 2.187-7.256 3.39-1.993 1.008-3.154 2.58-3.126 4.96.016 1.336-.596 2.451-1.833 3.19a28.225 28.225 0 0 0-2.967 2.054c-2.639 2.076-4.695 4.413-5.139 8.041-.35 2.87-1.22 5.706-3.187 8.07a5.41 5.41 0 0 0-1.174 2.838c-.181 2.145-.106 4.315-.053 6.473.015.577.266 1.197.561 1.705.68 1.2 1.42 2.366 2.217 3.492 1.932 2.684 3.611 5.435 4 8.844.375 3.303 1.971 5.995 4.672 8.05 3.911 2.976 7.682 6.136 11.652 9.036 2.134 1.562 4.418 2.928 7.233 3.244 2.815.317 5.574 1.083 8.097 2.5a4.57 4.57 0 0 0 1.707.523c3.56.384 6.857-.498 9.983-2.163.98-.522 1.99-.996 3.004-1.45 2.444-1.093 5.153-1.811 7.281-3.334 2.368-1.698 4.9-2.45 7.617-2.925 1.174-.206 2.134-.69 2.898-1.562.913-1.036 1.757-2.131 2.707-3.132.983-1.032 1.692-2.13 1.864-3.602.264-2.256 1.229-4.247 2.454-6.16 2.074-3.234 3.253-6.806 3.867-10.605.161-.996.253-1.839-.241-2.716-1.428-2.53-.845-5.404-1.297-8.098-.228-1.456.298-3.05.519-4.865l-.005.003ZM92.611 7.73c-.603-.667-.794-.968-1.067-1.155-.493-.34-1.03-.619-1.554-.914-4.482-2.523-9.39-3.75-14.404-4.63C74.578.85 73.519.93 72.49.97c-.267.01-.587.27-.756.505-.078.106.097.48.245.657a9.614 9.614 0 0 0 4.21 2.9 28.187 28.187 0 0 0 8.816 1.655c1.274.035 2.544.276 3.813.449 1.082.153 2.163.337 3.792.592ZM54.54 80.442c-3.008-2.457-5.645-4.653-8.328-6.79-2.221-1.77-4.49-3.479-6.761-5.184-.255-.192-.658-.187-1.216-.33 2.736 4.59 11.871 11.563 16.305 12.304ZM34.274 23.107c1.814-1.386 3.492-2.843 5.335-4.05 2.583-1.682 3.57-3.773 2.96-7.364-1.833 1.498-3.14 3.303-4.553 4.943-1.494 1.73-2.602 3.789-3.847 5.725-.096.156.06.465.105.746Zm61.174 52.385c-1.692-.116-3.396.183-4.458 1.096-2.014 1.731-4.41 2.602-6.848 3.468-1.28.454-2.487 1.12-3.693 1.757-.167.087-.198.555-.163.831.011.093.463.245.648.182 2.19-.745 4.452-1.346 6.525-2.344 2.542-1.219 4.93-2.763 7.362-4.195.255-.143.39-.48.627-.795Zm-64.646-24.01c-.487 1.433-.39 2.227-.084 3.072.848 2.344 1.363 4.818 2.892 6.866.567.76.683 2.458 1.729 2.092.92-.32-.157-1.665-.22-2.571-.241-3.464-2.064-6.256-4.317-9.459ZM47.215 8.345l.227.342c1.265-.469 2.54-.912 3.792-1.414a585.95 585.95 0 0 0 8.135-3.332c.545-.23 1.044-.599 1.51-.972.13-.106.106-.464.066-.686-.022-.099-.279-.206-.427-.213a2.67 2.67 0 0 0-.747.124c-3.675 1.043-7.14 2.587-10.456 4.461-.776.44-1.405 1.121-2.1 1.69Zm64.535 37.202c.222-.258.396-.365.408-.487.358-3.774-.042-7.514-.559-11.244-.026-.188-.286-.456-.463-.478-.195-.026-.5.136-.618.31a1.99 1.99 0 0 0-.352.935 35.816 35.816 0 0 0 .604 9.19c.117.61.623 1.148.98 1.774ZM29.914 35.133c1.434-.547 1.649-1.537 1.802-2.43.375-2.178 1.312-4.275 1.002-6.579-1.499 2.75-2.828 5.534-2.803 9.009ZM64.62 82.966c-3.214-1.421-4.086-1.57-6.948-1.172 1.213.46 2.305 1.189 3.403 1.2 1.145.018 2.384 1.419 3.546-.028Z"/><path d="M71.25 54.701c-2.198-.04-3.708-.959-4.826-2.735-1.042-1.657-2.775-2.517-4.361-3.538-2-1.286-3.628-2.737-4.09-5.344-.32-1.768.052-3.303.77-4.7.603-1.166 1.679-2.25 2.809-2.943 1.225-.752 2.24-1.462 2.806-2.851.64-1.599 2.253-1.696 3.682-1.983 1.345-.27 2.713-.445 4.04-.783 1.813-.463 3.46-.32 4.785 1.092 1.024 1.095 2.22 1.88 3.554 2.545 1.387.69 1.845 1.497 1.41 2.94-.295.98-.01 1.646.356 2.428.399.853.81 1.719 1.084 2.62.913 2.995-.138 5.518-2.95 6.852-1.744.826-3.079 1.928-3.513 3.866-.174.781-.661 1.225-1.35 1.427-1.392.407-2.803.743-4.207 1.107Zm9.227-12.561c.044-5.279-3.959-9.5-9.165-9.506-4.67 0-9.37 3.16-9.552 9.214-.146 4.846 3.892 9.36 9.157 9.376 6.41.032 9.435-4.417 9.56-9.084Zm-18.768 5.046c0-.676.065-1.023-.01-1.335-.69-2.867-1.14-5.707.427-8.469.113-.198-.148-.607-.235-.918-.307.099-.678.12-.911.31-2.587 2.122-3.742 7.219.729 10.412Zm9.609-15.876c1.083.396 1.7.678 2.347.852 2.385.631 4.42 1.765 5.835 3.855.28.412.64 1.023 1.174.554.284-.25.377-1.015.213-1.398-.22-.508-.722-1.142-1.204-1.242-1.31-.274-2.028-1.222-2.881-2.049-1.436-1.378-3.04-1.81-5.484-.572Zm-.147 20.777-.033-.199c-.687 0-1.38-.058-2.057.025-.347.042-.663.337-.993.519.3.265.561.683.907.769 1.848.465 3.71.566 5.533-.147.312-.123.658-.282.854-.533.173-.213.23-.591.194-.878-.014-.107-.445-.267-.658-.233-1.252.196-2.498.443-3.742.674l-.005.003Zm9.45-5.414c1.281-.237 1.853-.958 1.928-2.068.055-.934.041-1.872-.041-2.805-.02-.246-.364-.466-.56-.698-.284.27-.862.632-.81.794.52 1.618-.567 3.067-.516 4.774v.003ZM92.334 53.982c-.074.037-.37.285-.692.32-.292.034-.719-.064-.9-.269a45.97 45.97 0 0 1-2.608-3.184c-.213-.288-.3-1.065-.18-1.132.401-.22 1.183-.451 1.357-.26 1.03 1.134 1.935 2.382 2.866 3.605.09.123.063.333.157.92ZM48.745 62.87c.476.038 1.416.066 2.332.223.229.04.534.486.534.752 0 .267-.264.727-.492.784-1.782.442-3.555.55-5.132-.64a.798.798 0 0 1-.25-.655c.033-.178.31-.426.495-.44.684-.057 1.37-.025 2.513-.025ZM104.581 25.4l.675.368c-.191.342-.309.892-.587.991-1.283.471-2.6.847-3.938 1.123-.385.076-.944-.302-1.3-.615-.41-.36-.165-1.145.351-1.224 1.518-.233 3.047-.412 4.799-.643ZM59.226 70.498c.712.333 1.309.427 1.6.781.798.99 1.527 2.03 2.184 3.118.32.518.028 1.078-.51 1.227-.296.083-.832-.158-1.05-.426a33.896 33.896 0 0 1-2.413-3.287c-.17-.272.094-.817.189-1.413ZM87.19 29.266c.046-.302 0-.649.143-.782.192-.175.604-.32.801-.225.27.13.445.483.63.761a83.76 83.76 0 0 1 1.52 2.344c.22.355.515.733.534 1.116.02.354-.195.813-.461 1.056-.149.136-.76.048-.91-.14-.986-1.253-2.169-2.425-2.256-4.13ZM90.258 15.964c-.213 1.28-.298 2.22-.547 3.121a2.582 2.582 0 0 1-.853 1.235c-.283.228-.776.195-1.174.278-.032-.371-.148-.76-.081-1.112.208-1.089.486-2.165.736-3.246.02-.084.014-.173.038-.255.197-.652.621-1.149 1.301-.88.343.137.503.735.58.86ZM71.862 24.28c.6.074 1.375.115 2.116.294.253.06.626.515.582.711-.077.351-.369.813-.677.917a2.564 2.564 0 0 1-1.503.007c-.853-.271-1.648-.362-2.5-.006-.559.234-1.084-.012-1.233-.568-.2-.746.362-1.107.992-1.213.673-.111 1.367-.093 2.223-.142ZM85.17 61.014c-.242 1.058-.427 1.986-.688 2.893-.051.178-.427.418-.585.377-.284-.069-.683-.293-.74-.525a3.493 3.493 0 0 1-.043-1.533c.2-.93.398-1.812.021-2.761-.179-.455-.128-1.18.564-1.178.372 0 .908.46 1.075.84.272.609.29 1.325.396 1.887ZM74.671 60.742c-.139.249-.206.542-.388.668-1.124.773-2.25 1.55-3.432 2.227-.302.172-.832.066-1.217-.048-.564-.168-.682-.91-.213-1.21 1.293-.828 2.593-1.65 3.926-2.412.214-.123.64.01.916.146.186.094.266.396.408.63ZM60.357 11.037c.182.107.526.2.572.37.446 1.641.876 3.288 1.23 4.95.098.462-.513.719-.923.443-1.29-.868-2.093-4.08-1.341-5.424.078-.133.268-.2.462-.338ZM76.297 15.701c-.388-.259-.807-.39-.864-.615-.06-.242.14-.657.357-.852a36.538 36.538 0 0 1 2.967-2.382c.346-.244 1.066-.417 1.333-.226.63.442.299 1.065-.14 1.521-.588.615-1.173 1.263-1.852 1.76-.52.373-1.188.534-1.8.794ZM51.769 24.377l-.943.89c-.27-.29-.668-.532-.781-.88-.453-1.36-.832-2.743-1.191-4.13-.05-.191.107-.581.267-.647.261-.107.691-.15.89 0 .391.288.838.675.966 1.109.336 1.13.513 2.31.792 3.658ZM41.443 47.167c-.866 1.584-1.523 3.207-3.134 4.071-.271.145-.87-.04-1.16-.271-.494-.392 0-.716.24-1.05.756-1.04 1.455-2.125 2.258-3.125.207-.257.733-.384 1.09-.349.244.023.442.436.706.724ZM51.217 47.301c.452.261.779.339.84.51.1.282.152.724 0 .919-.248.311-.671.49-1.036.699-.947.542-1.88 1.114-2.864 1.577-.3.14-.843.098-1.11-.092-.549-.39-.356-1.017.086-1.293 1.35-.845 2.77-1.585 4.084-2.32ZM100.135 40.126c-.348.783-.836 1.965-1.416 3.1-.09.176-.65.272-.888.167-.221-.1-.462-.544-.418-.784.233-1.263.49-2.53.882-3.749.12-.372.66-.71 1.074-.834.154-.046.556.533.747.886.109.2.019.507.019 1.214ZM41.172 30.711c1.53 1.373 1.348 3.236 1.518 4.957.032.32-.366.777-.684 1.008-.166.121-.843-.074-.859-.186a98.87 98.87 0 0 1-.575-5.234c-.012-.15.348-.332.6-.545ZM76.95 73.207c.257.068.51.15.757.247.92.426 1.845.84 2.742 1.31.427.221.853.498 1.16.852.354.41-.05 1.198-.543 1.09-1.67-.36-3.3-.863-4.548-2.11-.184-.184-.18-.645-.12-.951.035-.173.357-.292.552-.438ZM56.643 31.213c.088.276.391.704.285.973-.56 1.422-1.21 2.812-1.87 4.191-.08.17-.427.32-.631.292-.18-.022-.427-.273-.474-.464-.35-1.538.753-4.29 1.983-4.982.127-.072.33-.01.707-.01ZM104.358 54.557c-.192-.121-.592-.27-.8-.556-.083-.114.186-.634.417-.8a38.022 38.022 0 0 1 3.167-2.096c.295-.171.907-.184 1.124.009.199.178.229.852.049 1.1-.916 1.273-2.07 2.245-3.957 2.343ZM98.019 65.53c-.792-.082-1.137-.09-1.467-.164-.14-.031-.347-.196-.35-.304a1.138 1.138 0 0 1 .18-.687 1.32 1.32 0 0 1 .641-.4c1.22-.366 2.442-.734 3.681-1.031.269-.064.835.113.871.266.081.365-.016.805-.159 1.172-.076.194-.378.356-.61.426-1.06.291-2.125.551-2.787.722ZM61.265 56.723c-.088.372-.23 1.196-.504 1.973-.068.193-.602.378-.847.308s-.534-.474-.526-.727a51.45 51.45 0 0 1 .243-4.308c.031-.312.427-.587.655-.879.273.289.716.543.786.875.154.741.121 1.521.193 2.758ZM118.465 11.747c0-3.045.738-5.354 2.212-6.926 1.491-1.59 3.401-2.385 5.73-2.385 2.328 0 4.18.686 5.553 2.058 1.391 1.372 2.086 3.564 2.086 6.575 0 3.012-.737 5.287-2.211 6.826-1.475 1.54-3.443 2.31-5.906 2.31-2.128 0-3.87-.611-5.227-1.833-.704-.635-1.256-1.514-1.659-2.635-.385-1.137-.578-2.467-.578-3.99Zm7.866-9.06c-1.692 0-3.082.753-4.171 2.259-1.073 1.506-1.609 3.714-1.609 6.625 0 2.912.511 5.036 1.533 6.375 1.022 1.338 2.379 2.007 4.071 2.007 1.709 0 3.1-.752 4.172-2.258 1.089-1.523 1.633-3.723 1.633-6.6 0-2.895-.519-5.02-1.558-6.375-1.022-1.355-2.379-2.033-4.071-2.033Z" fill="#2E2520"/><path d="M138.393 20.104h-2.086V2.537h2.086v8.08h8.167v-8.08h2.086v17.567h-2.086v-9.235h-8.167v9.235ZM159.368 20.104h-.327l2.186-17.567h.83l5.277 16.237 5.252-16.237h.829l2.187 17.567h-2.086L171.782 6.05l-4.549 14.054h-1.583l-4.599-13.878-1.683 13.878Z"/><path d="M189.523 2.537c.318.318.477.728.477 1.23 0 .418-.092.844-.276 1.28l-4.499 9.11v5.947h-2.086v-5.396l-5.026-12.171h2.136l4.8 11.318 4.373-8.809c.184-.418.276-.853.276-1.305 0-.451-.125-.803-.377-1.054l.202-.15ZM3.543 24.72a83.964 83.964 0 0 1 3.808-.089c1.27 0 2.598.133 3.986.398 1.417.266 2.805.767 4.162 1.504 1.388.707 2.554 1.636 3.499 2.786.974 1.12 1.757 2.61 2.347 4.467.59 1.857.886 4.112.886 6.766 0 2.653-.443 5.041-1.329 7.164-.856 2.093-2.037 3.7-3.543 4.82-2.922 2.182-6.45 3.273-10.583 3.273-1.447 0-2.968-.059-4.562-.177H0V24.72h3.543Zm.133 30.559c.62.058 1.402.088 2.347.088.944 0 1.653-.015 2.125-.044.473-.03 1.122-.148 1.949-.354a11.39 11.39 0 0 0 2.303-.929c.708-.383 1.446-.943 2.214-1.68a10.994 10.994 0 0 0 2.037-2.698c1.27-2.417 1.904-5.572 1.904-9.464 0-2.771-.34-5.16-1.018-7.164-.68-2.034-1.462-3.538-2.347-4.511a9.14 9.14 0 0 0-3.145-2.3c-1.24-.59-2.229-.928-2.967-1.017a21.868 21.868 0 0 0-2.568-.132c-.974 0-1.92.044-2.834.132V55.28Z" fill="#2E2520"/><path d="M119.184 55.632h-.575V24.676h1.505l18.423 28.613V24.674h.575v30.957h-3.232l-16.696-25.65v25.65Z"/><path d="M166.381 24.675h.576v17.69c0 4.629-.915 8.034-2.746 10.216-1.83 2.152-4.221 3.228-7.174 3.228-1.86 0-3.439-.162-4.738-.486-1.299-.354-2.524-.988-3.676-1.902-2.361-1.828-3.542-5.513-3.542-11.056v-17.69h3.675v17.646c0 5.366.812 8.948 2.436 10.746.827.885 1.683 1.49 2.568 1.814.916.324 2.008.486 3.277.486 2.835 0 5.093-1.032 6.776-3.096 1.712-2.093 2.568-5.41 2.568-9.95V24.676Z" fill="#2E2520"/><path d="M182.064 55.632h-3.675V25.118h-7.661v-.442h19.042v.442h-7.706v30.514Z"/></symbol><symbol id="icon-close" viewBox="0 0 32 32"><path d="M30.354 32a1.646 1.646 0 0 0 1.162-2.81L2.812.481A1.647 1.647 0 0 0 .483 2.81l28.708 28.708c.322.32.743.484 1.164.484z"/><path d="M1.644 32c.421 0 .843-.16 1.164-.484L31.517 2.81A1.647 1.647 0 0 0 29.188.481L.479 29.19a1.645 1.645 0 0 0 1.164 2.809z"/></symbol><symbol id="icon-menu" viewBox="0 0 60 32"><path d="M2 0h56a2 2 0 1 1 0 4H2a2 2 0 1 1 0-4zM2 14h56a2 2 0 1 1 0 4H2a2 2 0 1 1 0-4zM2 28h56a2 2 0 1 1 0 4H2a2 2 0 1 1 0-4z"/></symbol></defs></svg>