<svg xmlns="http://www.w3.org/2000/svg" fill="none" viewBox="0 0 768 1550" preserveAspectRatio="none" x="0" y="0">
<path fill="#FEF3E4" d="M-34.2116 275.273c9.9264 55.774-27.5736 51.263-47.5644 42.035v684.862c0 133.84-9.504 476.2 0 513.9 5.768 22.88 55.8364-94.93 47.5643-120.56-8.272-25.63-24.8161-119.35 11.3741-129.6s41.3602-33.83 59.9723-63.56c18.6121-29.74 66.1763-88.17 181.9853-43.06s192.325 4.1 247.128-36.91c108.57-81.25 292.712.4 343.888 70 26.855 36.52-46.404 217.07 0 234.48 23.184 8.7 43.864 168.61 43.864-8.7V263.996c-.689 7.518-5.79 20.3-20.68 11.277-43.842-22.145-25.85-89.879-11.374-120.978 7.927-29.732 10.547-99.4485-42.394-140.4582-62.263-48.2302-245.48 45.111-351.769 45.1108-116.124-.0002-172.473-26.6563-241.751-51.26211C116.753-16.9203 61.9508 25.1146 40.2367 58.9475c-21.7141 33.833-22.748 47.1615-55.8362 62.5395-65.1424 23.581-31.0202 84.07-18.6121 153.786Z"/></svg>