<svg xmlns="http://www.w3.org/2000/svg" fill="none" viewBox="0 0 320 1570" preserveAspectRatio="none" x="0" y="0">
<path fill="#FEF3E4" d="M14.8505 105.127c3.4215 21.3-9.50403 19.577-16.39448 16.053v261.548c.00001 51.113-3.27597 938.752-.00012 953.152 1.988122 8.74 19.2457-36.25 16.3945-46.04-2.8512-9.79-8.55364-45.58 3.9204-49.49 12.4741-3.92 14.2561-12.93 20.6713-24.28 6.4153-11.35 22.8098-33.67 62.7269-16.44 39.917 17.22 66.291 1.56 85.18-14.1 37.422-31.03 100.893.15 118.532 26.73 9.256 13.95-15.995 82.9 0 89.55 7.991 3.32 15.119 64.39 15.119-3.32V100.82c-.238 2.871-1.996 7.752-7.128 4.307-15.111-8.4572-8.91-34.3251-3.92-46.2018 2.732-11.3546 3.635-37.9793-14.613-53.64092C273.878-13.1349 210.727 22.5121 174.091 22.5121c-40.025-.0001-59.448-10.18-83.3268-19.57692C66.8853-6.46177 47.9959 9.59125 40.5115 22.5121 33.027 35.4329 32.6707 40.5229 21.2658 46.396c-22.45337 9.0054-10.6921 32.1063-6.4153 58.731Z"/></svg>