<svg xmlns="http://www.w3.org/2000/svg" fill="none" viewBox="0 0 1280 1925" preserveAspectRatio="none" x="0" y="0">
<path fill="#FEF3E4" d="M65.8509 492.039c13.5802 99.691-37.723 91.628-65.072124 75.135V1791.33c.000009 239.23-13.002276 135.56.000004 202.94 7.89115 40.9 50.92592-157.12 39.60902-202.94-11.3168-45.81-8.4876-131.94 41.0238-150.27 49.5114-18.33 56.5844-60.47 82.0474-113.62 25.463-53.14 90.535-157.6 248.971-76.97 158.436 80.64 263.117 7.33 338.092-65.97 148.534-145.22 400.458.71 470.468 125.12 36.74 65.28-63.48 399.1 0 430.23 31.72 15.55 60.01 301.38 60.01-15.55V471.88c-.94 13.439-7.92 36.285-28.29 20.159-59.98-39.584-35.37-160.656-15.56-216.244 10.84-53.145 14.43-177.7595-58-251.0623-85.18-86.2094-335.839 80.6333-481.251 80.6333-158.867 0-235.958-47.6468-330.736-91.6285-94.779-43.9817-169.754 31.1536-199.46 91.6285-29.707 60.475-31.122 84.298-76.3892 111.787-89.12036 42.149-42.4383 150.271-25.4629 274.886Z"/></svg>