<svg xmlns="http://www.w3.org/2000/svg" fill="none" viewBox="0 0 320 420" preserveAspectRatio="none" x="0" y="0">
<path fill="#FEF3E4" d="M12.8728 447.869c0 5.753-7.91695 12.867-12.8728 12.631V0h319.944v84.4139c.125 50.3981 0 349.0741 0 358.2031 0 5.721-8.725 3.312-15.805-5.895-7.08-9.208 6.018-38.6 7.08-47.1 1.061-8.499-2.124-26.205-35.045-47.807-32.921-21.602-81.064-2.479-106.551 10.27-25.487 12.748-47.152-4.958-81.8428-15.582-34.6909-10.624-47.4345 6.375-52.0364 15.582-4.6019 9.207-4.5306 33.996-14.4423 37.537-9.9117 3.542-13.80559 13.103-11.32767 26.914 2.47797 13.811 2.89897 23.896 2.89897 31.333Z"/></svg>