<svg xmlns="http://www.w3.org/2000/svg" fill="none" viewBox="0 0 768 622" preserveAspectRatio="none" x="0" y="0">
<path fill="#FEF3E4" d="M29.9349 591.653c0 13.815-19.0254 30.9-30.9349 30.333V0h768.867v202.724c.3 121.033 0 354.391 0 376.315 0 13.74-20.97 7.954-37.984-14.158-17.013-22.112 14.462-92.699 17.014-113.11 2.552-20.411-5.104-62.934-84.217-114.812-79.114-51.878-194.806-5.953-256.055 24.663-61.249 30.617-113.312-11.906-196.678-37.42-83.367-25.513-113.9913 15.309-125.0502 37.42-11.0588 22.112-10.8876 81.644-34.7067 90.149-23.819 8.504-33.1765 31.467-27.2217 64.634 5.9547 33.168 6.9665 57.388 6.9665 75.248Z"/></svg>