<svg aria-hidden="true" style="position: absolute; width: 0; height: 0; overflow: hidden;" version="1.1" xmlns="http://www.w3.org/2000/svg" xmlns:xlink="http://www.w3.org/1999/xlink">
<defs>
<symbol id="icon-twitter" viewBox="0 0 34 32">
<path d="M34.133 3.669c-1.17 0.587-2.528 1.021-3.96 1.229l-0.072 0.009c1.451-0.969 2.558-2.492 3.078-4.324-1.269 0.857-2.754 1.511-4.349 1.875l-0.088 0.017c-1.284-1.527-3.115-2.475-5.111-2.475-3.874 0-6.993 3.516-6.993 7.825 0 0.619 0.047 1.216 0.162 1.783-5.818-0.318-10.965-3.435-14.423-8.183-0.604 1.145-0.958 2.503-0.958 3.944 0 0.004 0 0.008 0 0.012v-0.001c0 2.709 1.248 5.109 3.108 6.5-1.177-0.040-2.263-0.394-3.188-0.98l0.026 0.015v0.085c0 3.804 2.426 6.961 5.606 7.689-0.57 0.173-1.19 0.256-1.835 0.256-0.448 0-0.9-0.028-1.325-0.132 0.907 3.098 3.479 5.376 6.539 5.449-2.381 2.082-5.404 3.337-8.676 3.337-0.574 0-1.124-0.030-1.675-0.107 3.1 2.234 6.773 3.509 10.735 3.509 12.877 0 19.917-11.925 19.917-22.259 0-0.346-0.011-0.681-0.026-1.011 1.395-1.13 2.563-2.475 3.469-3.993l0.038-0.068z"></path>
</symbol>
<symbol id="icon-tel" viewBox="0 0 32 32">
<path d="M29.43 20.47c-0.010 0-0.021 0-0.033 0-2.027 0-3.978-0.324-5.805-0.924l0.131 0.037c-0.894-0.295-1.991-0.025-2.535 0.519l-3.599 2.649c-4.172-2.171-6.742-4.677-8.938-8.711l2.634-3.414c0.687-0.667 0.93-1.642 0.638-2.555-0.577-1.653-0.911-3.559-0.911-5.543 0-0.009 0-0.018 0-0.026v0.001c-0.002-1.381-1.157-2.503-2.57-2.503h-5.876c-1.415 0-2.567 1.122-2.567 2.503 0 15.815 13.201 28.682 29.43 28.682 1.415 0 2.567-1.122 2.567-2.503v-5.711c0-1.378-1.152-2.501-2.567-2.501z"></path>
</symbol>
<symbol id="icon-people" viewBox="0 0 32 32">
<path fill="#674d40" style="fill: var(--color1, #674d40)" d="M10.607 0c-3.293 0-5.975 3.078-5.975 6.856 0 3.779 2.682 6.856 5.975 6.856s5.976-3.078 5.976-6.856c0-3.779-2.682-6.856-5.978-6.856zM10.607 12.562c-2.749 0-4.98-2.566-4.98-5.714 0-3.145 2.237-5.713 4.98-5.713 2.75 0 4.98 2.566 4.98 5.714 0 3.147-2.235 5.713-4.98 5.713zM22.846 2.846c-2.475 0-4.486 2.306-4.486 5.144 0 2.84 2.011 5.146 4.486 5.146 2.473 0 4.485-2.306 4.485-5.146 0-2.839-2.011-5.144-4.485-5.144zM22.846 12.002c-1.926 0-3.49-1.795-3.49-4.003s1.565-4.003 3.49-4.003c1.925 0 3.49 1.795 3.49 4.003 0 2.21-1.565 4.003-3.49 4.003z"></path>
<path fill="#674d40" style="fill: var(--color1, #674d40)" d="M30.868 20.678c-0.451-3.125-2.144-5.76-5.029-7.142 0 0-1.277 1.108-2.993 1.073-1.876-0.043-2.994-1.073-2.994-1.073s-1.393 0.596-2.517 1.836c-1.039-1.058-2.793-1.92-2.793-1.92s-1.606 1.402-3.941 1.381c-2.449-0.021-3.927-1.381-3.927-1.381s-5.298 2.088-6.417 9.176c0 0-1.198 3.756 1.576 9.371h17.554s1.246-2.488 1.466-4.003h8.731c2.146-3.729 1.283-7.317 1.283-7.317zM18.77 30.857h-16.32c-2.133-4.648-1.21-8.040-1.21-8.040 0.52-3.555 2.511-6.554 5.359-8.076 1.123 0.774 2.513 1.236 4.011 1.236s2.888-0.462 4.036-1.251l-0.024 0.016c2.846 1.522 4.838 4.521 5.358 8.076-0.006 0 0.881 4.177-1.21 8.040zM29.004 26.854h-7.948c0.305-2.018-0.098-4.227-0.098-4.227-0.361-2.494-1.387-4.745-2.891-6.484 0.514-0.533 1.082-0.975 1.705-1.317 1.874 1.234 4.264 1.234 6.141 0 2.107 1.155 3.586 3.392 3.971 6.042 0 0 0.727 2.831-0.881 5.986z"></path>
</symbol>
<symbol id="icon-menu" viewBox="0 0 60 32">
<path d="M2 0h56c1.105 0 2 0.895 2 2s-0.895 2-2 2h-56c-1.105 0-2-0.895-2-2s0.895-2 2-2z"></path>
<path d="M2 14h56c1.105 0 2 0.895 2 2s-0.895 2-2 2h-56c-1.105 0-2-0.895-2-2s0.895-2 2-2z"></path>
<path d="M2 28h56c1.105 0 2 0.895 2 2s-0.895 2-2 2h-56c-1.105 0-2-0.895-2-2s0.895-2 2-2z"></path>
</symbol>
<symbol id="icon-logo" viewBox="0 0 61 32">
<path d="M36.151 16.031c0 0.256-0.007 0.512 0 0.768 0.076 2.603-0.629 4.949-1.762 7.16-0.38 0.742-0.743 1.496-1.070 2.271-0.27 0.637-0.645 1.083-1.228 1.344-0.326 0.145-0.628 0.397-0.901 0.657-1.257 1.196-2.683 2.052-4.208 2.655-1.013 0.4-2.056 0.753-3.156 0.737-0.328-0.004-0.657 0.112-0.986 0.113s-0.657-0.122-0.983-0.105c-1.419 0.070-2.734-0.433-4.039-0.961-1.424-0.576-2.682-1.485-3.865-2.569-1.67-1.529-2.859-3.454-3.734-5.658-0.471-1.188-0.855-2.414-0.964-3.733-0.018-0.219-0.081-0.435-0.137-0.648-0.397-1.479-0.169-2.929 0.077-4.403 0.188-1.127 0.381-2.24 0.747-3.31 0.967-2.83 2.502-5.148 4.628-6.968 1.773-1.516 3.757-2.448 5.914-2.848 2.475-0.459 4.892-0.129 7.236 0.945 1.17 0.537 2.274 1.218 3.238 2.119 0.899 0.841 1.71 1.824 2.477 2.829 0.694 0.911 1.187 1.996 1.628 3.103 0.688 1.729 1.136 3.519 1.090 5.443-0.010 0.355-0.003 0.708-0.003 1.060zM35.201 12.527c-0.068-0.604-0.111-1.305-0.239-1.984-0.365-1.955-1.348-3.482-2.658-4.728-0.744-0.709-1.554-1.324-2.354-1.951-0.271-0.212-0.585-0.407-0.901-0.472-0.812-0.172-1.634-0.333-2.457-0.382-1.429-0.084-2.713-0.509-3.792-1.653-0.794-0.842-1.659-0.924-2.485-0.182-0.936 0.839-2 1.332-3.086 1.82-0.795 0.357-1.561 0.808-2.326 1.253-0.639 0.372-1.011 0.953-1.002 1.833 0.005 0.493-0.191 0.905-0.588 1.179-0.355 0.248-0.665 0.497-0.958 0.765l0.007-0.006c-0.846 0.767-1.505 1.631-1.647 2.971-0.113 1.060-0.391 2.108-1.022 2.981-0.211 0.3-0.341 0.665-0.376 1.049-0.058 0.792-0.034 1.594-0.017 2.392 0.005 0.213 0.085 0.442 0.18 0.63 0.258 0.524 0.494 0.947 0.749 1.357l-0.038-0.066c0.619 0.992 1.158 2.008 1.282 3.268 0.12 1.22 0.632 2.215 1.498 2.974 1.254 1.1 2.463 2.268 3.736 3.339 0.684 0.577 1.417 1.082 2.319 1.199s1.787 0.4 2.596 0.924c0.17 0.105 0.356 0.171 0.547 0.193 1.142 0.142 2.198-0.184 3.201-0.799 0.314-0.193 0.638-0.368 0.963-0.536 0.783-0.404 1.652-0.669 2.334-1.232 0.759-0.627 1.571-0.905 2.442-1.081 0.376-0.076 0.684-0.255 0.929-0.577 0.292-0.383 0.563-0.787 0.868-1.157 0.315-0.381 0.543-0.787 0.598-1.331 0.084-0.833 0.394-1.569 0.787-2.276 0.665-1.194 1.043-2.514 1.24-3.918 0.052-0.368 0.081-0.679-0.077-1.003-0.458-0.935-0.271-1.997-0.416-2.992-0.073-0.538 0.095-1.127 0.166-1.797l-0.002 0.001zM29.692 3.187c-0.193-0.246-0.255-0.357-0.342-0.426-0.158-0.126-0.33-0.229-0.498-0.338-1.437-0.932-3.010-1.385-4.618-1.711-0.323-0.066-0.663-0.036-0.992-0.022-0.086 0.004-0.188 0.1-0.243 0.186-0.025 0.039 0.031 0.177 0.079 0.243 0.358 0.491 0.824 0.861 1.35 1.072 0.908 0.376 1.862 0.583 2.826 0.611 0.408 0.013 0.816 0.102 1.223 0.166 0.347 0.057 0.693 0.125 1.216 0.219zM17.486 30.053c-0.964-0.908-1.81-1.719-2.67-2.509-0.712-0.654-1.44-1.285-2.168-1.915-0.082-0.071-0.211-0.069-0.39-0.122 0.877 1.696 3.806 4.273 5.227 4.546zM10.988 8.869c0.582-0.512 1.12-1.050 1.71-1.496 0.828-0.622 1.145-1.394 0.949-2.721-0.588 0.554-1.007 1.22-1.46 1.826-0.479 0.639-0.834 1.4-1.233 2.115-0.031 0.058 0.019 0.172 0.034 0.276zM30.602 28.224c-0.543-0.043-1.089 0.067-1.429 0.405-0.646 0.64-1.414 0.961-2.196 1.281-0.41 0.168-0.797 0.414-1.184 0.649-0.053 0.032-0.063 0.205-0.052 0.307 0.004 0.034 0.148 0.091 0.208 0.067 0.702-0.276 1.427-0.498 2.092-0.866 0.815-0.45 1.58-1.021 2.36-1.55 0.082-0.053 0.125-0.178 0.201-0.294zM9.875 19.353c-0.156 0.529-0.125 0.823-0.027 1.135 0.272 0.866 0.437 1.78 0.927 2.537 0.182 0.281 0.219 0.908 0.554 0.773 0.295-0.118-0.050-0.615-0.070-0.95-0.077-1.28-0.662-2.311-1.384-3.495zM15.138 3.415l0.073 0.126c0.405-0.173 0.814-0.337 1.216-0.522 1.927-0.857 2.784-1.269 3.636-1.687l-1.028 0.456c0.175-0.085 0.335-0.221 0.484-0.359 0.042-0.039 0.034-0.172 0.021-0.254-0.007-0.037-0.089-0.076-0.137-0.079-0.087 0.002-0.169 0.019-0.245 0.047l0.005-0.002c-1.178 0.385-2.289 0.956-3.352 1.648-0.249 0.162-0.45 0.414-0.673 0.624zM35.828 17.16c0.071-0.095 0.127-0.135 0.131-0.18 0.115-1.394-0.013-2.776-0.179-4.154-0.008-0.069-0.092-0.168-0.148-0.177-0.063-0.009-0.16 0.050-0.198 0.115-0.062 0.102-0.101 0.221-0.113 0.345-0.015 0.25-0.023 0.543-0.023 0.837 0 0.904 0.079 1.789 0.23 2.65l-0.013-0.091c0.038 0.226 0.2 0.424 0.314 0.655zM9.591 13.312c0.46-0.202 0.528-0.568 0.578-0.898 0.12-0.805 0.42-1.58 0.321-2.431-0.481 1.016-0.907 2.045-0.899 3.329h-0zM20.718 30.985c-1.031-0.525-1.31-0.58-2.228-0.433 0.389 0.17 0.739 0.439 1.091 0.444 0.367 0.006 0.765 0.524 1.137-0.011h-0z"></path>
<path d="M22.843 20.542c-0.705-0.015-1.189-0.354-1.547-1.011-0.334-0.612-0.889-0.93-1.398-1.307-0.641-0.475-1.163-1.011-1.311-1.975-0.103-0.653 0.017-1.22 0.247-1.736 0.193-0.431 0.538-0.831 0.9-1.088 0.393-0.278 0.718-0.54 0.9-1.053 0.205-0.591 0.722-0.626 1.18-0.733 0.431-0.1 0.87-0.164 1.295-0.289 0.582-0.171 1.109-0.118 1.534 0.403 0.328 0.405 0.712 0.695 1.139 0.941 0.445 0.255 0.591 0.553 0.452 1.086-0.095 0.362-0.003 0.608 0.114 0.897 0.128 0.315 0.26 0.635 0.348 0.968 0.293 1.107-0.044 2.039-0.946 2.532-0.559 0.305-0.987 0.713-1.126 1.429-0.056 0.289-0.212 0.452-0.433 0.527-0.446 0.15-0.899 0.274-1.348 0.409zM25.801 15.901c0.014-1.95-1.269-3.51-2.938-3.512-1.498 0-3.004 1.167-3.063 3.404-0.047 1.79 1.248 3.458 2.936 3.464 2.056 0.012 3.025-1.632 3.065-3.356zM19.784 17.765c0-0.25 0.021-0.378-0.003-0.493-0.221-1.059-0.365-2.109 0.137-3.129 0.036-0.073-0.047-0.224-0.075-0.339-0.099 0.037-0.218 0.044-0.292 0.115-0.83 0.784-1.2 2.667 0.234 3.847zM22.865 11.9c0.347 0.146 0.545 0.25 0.753 0.315 0.765 0.233 1.417 0.652 1.871 1.424 0.090 0.152 0.205 0.378 0.376 0.205 0.091-0.092 0.121-0.375 0.068-0.516-0.071-0.188-0.232-0.422-0.386-0.459-0.42-0.101-0.65-0.452-0.924-0.757-0.46-0.509-0.975-0.669-1.758-0.211zM22.818 19.576l-0.010-0.074c-0.22 0-0.443-0.022-0.66 0.009-0.112 0.016-0.213 0.125-0.319 0.192 0.096 0.098 0.18 0.252 0.291 0.284 0.593 0.172 1.19 0.209 1.774-0.054 0.1-0.045 0.211-0.104 0.274-0.197 0.055-0.079 0.074-0.218 0.062-0.324-0.004-0.039-0.143-0.099-0.211-0.086-0.401 0.072-0.801 0.164-1.2 0.249l-0.002 0.001zM25.848 17.576c0.41-0.088 0.594-0.354 0.618-0.764 0.007-0.124 0.011-0.27 0.011-0.416 0-0.218-0.009-0.435-0.026-0.649l0.002 0.028c-0.006-0.091-0.117-0.172-0.179-0.258-0.091 0.1-0.277 0.233-0.26 0.293 0.167 0.598-0.182 1.133-0.166 1.764v0.001zM29.603 20.276c-0.024 0.014-0.119 0.106-0.222 0.118-0.094 0.013-0.231-0.024-0.289-0.099-0.292-0.379-0.575-0.769-0.836-1.176-0.068-0.107-0.096-0.394-0.057-0.418 0.128-0.081 0.379-0.167 0.435-0.096 0.33 0.419 0.621 0.88 0.919 1.332 0.029 0.045 0.020 0.123 0.050 0.34zM15.628 23.56c0.153 0.014 0.454 0.025 0.748 0.083 0.073 0.015 0.171 0.18 0.171 0.278s-0.084 0.268-0.158 0.289c-0.571 0.163-1.14 0.204-1.645-0.236-0.028-0.031-0.050-0.067-0.064-0.108l-0.001-0.002c-0.011-0.031-0.017-0.067-0.017-0.105 0-0.009 0-0.019 0.001-0.028l-0 0.001c0.011-0.066 0.1-0.157 0.159-0.162 0.219-0.021 0.439-0.009 0.806-0.009zM33.53 9.716l0.216 0.136c-0.061 0.126-0.099 0.33-0.188 0.366-0.352 0.155-0.773 0.297-1.208 0.404l-0.055 0.011c-0.123 0.028-0.303-0.112-0.417-0.227-0.131-0.133-0.053-0.423 0.113-0.452 0.487-0.086 0.977-0.152 1.539-0.238zM18.988 26.378c0.229 0.123 0.42 0.157 0.513 0.289 0.232 0.327 0.464 0.704 0.673 1.095l0.028 0.057c0.103 0.191 0.009 0.398-0.164 0.454-0.095 0.030-0.266-0.059-0.336-0.157-0.252-0.344-0.508-0.741-0.741-1.152l-0.033-0.062c-0.055-0.1 0.030-0.302 0.061-0.522zM27.954 11.145c0.014-0.112 0-0.24 0.046-0.289 0.062-0.065 0.194-0.118 0.257-0.083 0.087 0.048 0.143 0.178 0.202 0.281 0.166 0.286 0.329 0.573 0.487 0.866 0.070 0.131 0.165 0.271 0.171 0.412 0.007 0.131-0.062 0.3-0.148 0.39-0.048 0.050-0.244 0.018-0.292-0.052-0.316-0.463-0.695-0.896-0.723-1.526zM28.938 6.23c-0.068 0.472-0.096 0.82-0.175 1.153-0.050 0.18-0.145 0.339-0.274 0.456-0.091 0.084-0.249 0.072-0.376 0.103-0.010-0.137-0.048-0.281-0.026-0.411 0.067-0.402 0.156-0.8 0.236-1.199 0.006-0.031 0.004-0.064 0.012-0.094 0.063-0.241 0.199-0.424 0.417-0.325 0.11 0.050 0.161 0.271 0.186 0.317zM23.040 9.302c0.192 0.028 0.441 0.043 0.678 0.109 0.081 0.022 0.201 0.191 0.187 0.263-0.025 0.13-0.118 0.3-0.217 0.339-0.073 0.027-0.157 0.043-0.245 0.043-0.085 0-0.166-0.015-0.242-0.042l0.005 0.002c-0.274-0.1-0.529-0.134-0.801-0.002-0.179 0.087-0.348-0.004-0.395-0.21-0.064-0.276 0.116-0.409 0.318-0.448 0.216-0.041 0.438-0.035 0.713-0.053zM27.306 22.874c-0.078 0.391-0.137 0.734-0.221 1.069-0.016 0.066-0.137 0.154-0.187 0.139-0.091-0.026-0.219-0.108-0.237-0.194-0.022-0.096-0.035-0.206-0.035-0.318 0-0.088 0.008-0.174 0.022-0.257l-0.001 0.009c0.064-0.343 0.128-0.669 0.007-1.020-0.057-0.168-0.041-0.436 0.181-0.435 0.119 0 0.291 0.17 0.345 0.311 0.087 0.225 0.093 0.489 0.127 0.697zM23.94 22.774c-0.044 0.092-0.066 0.2-0.125 0.246-0.36 0.286-0.721 0.573-1.1 0.823-0.097 0.064-0.267 0.024-0.39-0.018-0.181-0.062-0.219-0.336-0.068-0.447 0.415-0.306 0.832-0.609 1.259-0.891 0.068-0.045 0.205 0.004 0.294 0.054 0.060 0.035 0.085 0.146 0.131 0.233zM19.351 4.41c0.058 0.039 0.169 0.074 0.183 0.136 0.143 0.607 0.281 1.215 0.394 1.829 0.031 0.17-0.165 0.265-0.296 0.163-0.414-0.32-0.671-1.507-0.43-2.004 0.025-0.049 0.086-0.074 0.148-0.125zM24.462 6.133c-0.125-0.096-0.259-0.144-0.277-0.227-0.020-0.090 0.045-0.243 0.115-0.315 0.297-0.306 0.607-0.593 0.932-0.865l0.019-0.016c0.111-0.090 0.342-0.154 0.428-0.083 0.202 0.163 0.096 0.394-0.045 0.562-0.189 0.227-0.376 0.466-0.594 0.65-0.167 0.138-0.381 0.198-0.577 0.294zM16.598 9.338l-0.302 0.329c-0.086-0.107-0.214-0.197-0.25-0.325-0.145-0.502-0.267-1.014-0.382-1.526-0.016-0.070 0.034-0.215 0.085-0.239 0.084-0.039 0.222-0.055 0.285 0 0.126 0.107 0.269 0.25 0.31 0.41 0.108 0.417 0.165 0.853 0.254 1.351zM13.287 17.758c-0.277 0.585-0.488 1.185-1.005 1.504-0.087 0.054-0.279-0.015-0.372-0.1-0.158-0.144 0-0.265 0.077-0.388 0.242-0.384 0.467-0.785 0.724-1.155 0.066-0.095 0.235-0.142 0.35-0.129 0.078 0.008 0.142 0.161 0.226 0.267zM16.421 17.808c0.145 0.096 0.25 0.125 0.269 0.189 0.032 0.104 0.049 0.267 0 0.339-0.079 0.115-0.215 0.181-0.332 0.258-0.303 0.2-0.603 0.412-0.918 0.583-0.096 0.052-0.27 0.036-0.356-0.034-0.176-0.144-0.114-0.376 0.027-0.478 0.433-0.312 0.888-0.585 1.309-0.857zM32.104 15.157c-0.111 0.289-0.268 0.726-0.454 1.146-0.029 0.065-0.209 0.1-0.285 0.061-0.071-0.037-0.148-0.201-0.134-0.29 0.075-0.466 0.157-0.935 0.283-1.385 0.038-0.137 0.211-0.262 0.344-0.308 0.049-0.017 0.178 0.197 0.239 0.328 0.035 0.074 0.006 0.187 0.006 0.448zM13.2 11.678c0.491 0.507 0.432 1.196 0.487 1.831 0.010 0.118-0.117 0.287-0.219 0.372-0.053 0.045-0.27-0.027-0.275-0.069-0.077-0.642-0.137-1.288-0.184-1.934-0.004-0.055 0.112-0.122 0.192-0.201zM24.671 27.379c0.097 0.030 0.177 0.061 0.255 0.097l-0.013-0.005c0.295 0.157 0.591 0.311 0.879 0.484 0.137 0.082 0.274 0.184 0.372 0.315 0.113 0.152-0.016 0.442-0.174 0.403-0.535-0.133-1.058-0.319-1.458-0.779-0.059-0.068-0.058-0.239-0.039-0.352 0.011-0.064 0.115-0.108 0.177-0.162zM18.16 11.864c0.028 0.102 0.126 0.26 0.091 0.359-0.18 0.526-0.388 1.039-0.599 1.549-0.026 0.063-0.137 0.118-0.203 0.108-0.057-0.008-0.137-0.101-0.152-0.172-0.112-0.568 0.241-1.585 0.636-1.841 0.041-0.026 0.106-0.004 0.226-0.004zM33.458 20.489c-0.062-0.045-0.19-0.1-0.257-0.206-0.027-0.042 0.060-0.234 0.134-0.296 0.329-0.276 0.665-0.539 1.015-0.774 0.094-0.063 0.291-0.068 0.36 0.003 0.064 0.066 0.074 0.315 0.016 0.406-0.293 0.471-0.664 0.83-1.268 0.866zM31.426 24.543c-0.254-0.030-0.364-0.033-0.47-0.061-0.045-0.011-0.111-0.072-0.112-0.112-0.005-0.090 0.015-0.179 0.058-0.254 0.054-0.071 0.126-0.122 0.205-0.148 0.391-0.135 0.783-0.271 1.18-0.381 0.086-0.024 0.268 0.042 0.279 0.098 0.026 0.135-0.005 0.297-0.051 0.433-0.024 0.072-0.121 0.131-0.195 0.157-0.34 0.108-0.681 0.204-0.894 0.267zM19.642 21.289c-0.028 0.137-0.074 0.442-0.161 0.729-0.022 0.071-0.193 0.14-0.272 0.114s-0.171-0.175-0.169-0.268c0.008-0.531 0.031-1.063 0.078-1.592 0.010-0.115 0.137-0.217 0.21-0.325 0.088 0.107 0.23 0.201 0.252 0.323 0.050 0.274 0.039 0.562 0.062 1.019zM37.981 4.672c0-1.125 0.236-1.978 0.709-2.559 0.478-0.587 1.091-0.881 1.837-0.881s1.34 0.253 1.78 0.76c0.446 0.507 0.669 1.317 0.669 2.429s-0.236 1.953-0.709 2.522c-0.473 0.569-1.104 0.853-1.893 0.853-0.682 0-1.241-0.226-1.676-0.677-0.225-0.235-0.403-0.559-0.532-0.974-0.124-0.42-0.185-0.912-0.185-1.474zM40.503 1.324c-0.542 0-0.988 0.278-1.337 0.835-0.344 0.556-0.515 1.372-0.515 2.448s0.164 1.861 0.492 2.355c0.327 0.495 0.763 0.742 1.305 0.742 0.548 0 0.994-0.278 1.337-0.835 0.349-0.563 0.524-1.375 0.524-2.439 0-1.069-0.166-1.854-0.499-2.355-0.328-0.501-0.763-0.751-1.305-0.751zM44.37 7.759h-0.669v-6.491h0.669v2.986h2.619v-2.986h0.669v6.491h-0.669v-3.412h-2.619v3.412zM51.095 7.759h-0.105l0.701-6.491h0.266l1.692 5.999 1.684-5.999h0.266l0.701 6.491h-0.669l-0.556-5.192-1.458 5.192h-0.508l-1.474-5.128-0.54 5.128zM60.763 1.269c0.102 0.117 0.153 0.269 0.153 0.454 0 0.155-0.030 0.312-0.089 0.473l-1.442 3.366v2.197h-0.669v-1.994l-1.612-4.497h0.685l1.539 4.182 1.402-3.255c0.059-0.155 0.089-0.315 0.089-0.482s-0.040-0.297-0.121-0.389l0.064-0.056zM1.136 9.465c0.364-0.021 0.791-0.032 1.22-0.033h0.001c0.407 0 0.833 0.049 1.278 0.147 0.454 0.098 0.899 0.283 1.335 0.556 0.445 0.261 0.819 0.605 1.122 1.029 0.312 0.414 0.563 0.964 0.753 1.65s0.284 1.52 0.284 2.5-0.142 1.863-0.426 2.647c-0.274 0.773-0.653 1.367-1.136 1.781-0.937 0.806-2.068 1.209-3.393 1.209-0.464 0-0.951-0.022-1.462-0.065h-0.71v-11.421h1.136zM1.178 20.755c0.199 0.022 0.45 0.033 0.752 0.033s0.53-0.005 0.682-0.016c0.151-0.011 0.36-0.054 0.625-0.131 0.265-0.087 0.511-0.202 0.738-0.343s0.464-0.349 0.71-0.621c0.256-0.283 0.473-0.615 0.653-0.997 0.407-0.893 0.611-2.059 0.611-3.497 0-1.024-0.109-1.906-0.327-2.647-0.218-0.752-0.469-1.307-0.752-1.667-0.274-0.359-0.611-0.643-1.008-0.85-0.398-0.218-0.715-0.343-0.951-0.376s-0.511-0.049-0.823-0.049-0.615 0.016-0.909 0.049v11.111zM38.212 20.886h-0.185v-11.438h0.483l5.906 10.572v-10.572h0.185v11.438h-1.036l-5.353-9.477v9.477zM53.343 9.448h0.185v6.536c0 1.71-0.293 2.968-0.88 3.774-0.587 0.795-1.354 1.193-2.3 1.193-0.596 0-1.103-0.060-1.519-0.18-0.417-0.131-0.809-0.365-1.179-0.703-0.757-0.675-1.136-2.037-1.136-4.085v-6.536h1.179v6.519c0 1.983 0.26 3.306 0.781 3.97 0.265 0.327 0.539 0.55 0.824 0.67 0.293 0.12 0.643 0.18 1.051 0.18 0.909 0 1.633-0.381 2.172-1.144 0.549-0.773 0.824-1.999 0.824-3.676v-6.519zM58.371 20.886h-1.179v-11.274h-2.456v-0.163h6.105v0.163h-2.471v11.274z"></path>
</symbol>
<symbol id="icon-Instagram" viewBox="0 0 32 32">
<path d="M16.316 32c-0.106 0-0.212 0-0.319-0-2.508 0.006-4.826-0.058-7.080-0.195-2.067-0.126-3.953-0.84-5.455-2.065-1.45-1.182-2.44-2.781-2.943-4.75-0.437-1.715-0.461-3.398-0.483-5.026-0.018-1.113-0.031-2.503-0.036-3.894l-0-0.067c0.003-1.414 0.020-2.798 0.036-3.966 0.022-1.628 0.046-3.311 0.483-5.026 0.503-1.97 1.493-3.568 2.943-4.75 1.502-1.225 3.389-1.939 5.455-2.065 2.254-0.137 4.572-0.201 7.086-0.195 2.509-0.005 4.826 0.058 7.080 0.195 2.066 0.126 3.953 0.84 5.455 2.065 1.45 1.182 2.44 2.78 2.943 4.75 0.437 1.715 0.461 3.398 0.483 5.026 0.016 1.168 0.033 2.553 0.036 3.96v0.006c-0.003 1.408-0.020 2.792-0.036 3.96-0.022 1.628-0.045 3.311-0.483 5.026-0.503 1.97-1.493 3.568-2.943 4.75-1.502 1.225-3.389 1.939-5.455 2.065-2.159 0.131-4.376 0.195-6.768 0.195zM15.997 29.5c2.468 0.006 4.733-0.056 6.934-0.19 1.563-0.095 2.917-0.602 4.027-1.507 1.026-0.837 1.732-1.991 2.1-3.431 0.364-1.428 0.385-2.96 0.406-4.442 0.017-1.099 0.031-2.477 0.036-3.857l0-0.072c-0.005-1.452-0.018-2.83-0.039-4.207l0.003 0.278c-0.020-1.482-0.041-3.015-0.406-4.443-0.367-1.44-1.074-2.594-2.1-3.431-1.11-0.905-2.465-1.412-4.027-1.507-2.201-0.134-4.467-0.196-6.928-0.19-2.467-0.006-4.733 0.056-6.934 0.19-1.563 0.095-2.917 0.602-4.027 1.507-1.026 0.837-1.732 1.991-2.1 3.431-0.364 1.428-0.385 2.96-0.405 4.443-0.016 1.161-0.032 2.537-0.036 3.932 0.004 1.389 0.020 2.765 0.036 3.926 0.020 1.482 0.041 3.015 0.406 4.442 0.367 1.44 1.074 2.594 2.1 3.431 1.11 0.905 2.465 1.412 4.027 1.507 2.201 0.134 4.468 0.197 6.928 0.191zM15.937 23.812c-4.308 0-7.813-3.505-7.813-7.812s3.505-7.813 7.813-7.813c4.308 0 7.813 3.505 7.813 7.813s-3.505 7.812-7.813 7.812zM15.937 10.687c-2.929 0-5.313 2.383-5.313 5.313s2.383 5.312 5.313 5.312c2.93 0 5.313-2.383 5.313-5.312s-2.383-5.313-5.313-5.313zM24.625 5.687c-1.036 0-1.875 0.839-1.875 1.875s0.839 1.875 1.875 1.875v0c1.036 0 1.875-0.839 1.875-1.875s-0.839-1.875-1.875-1.875v0z"></path>
</symbol>
<symbol id="icon-facebook" viewBox="0 0 16 32">
<path d="M14.512 0.006l-3.616-0.006c-4.064 0-6.69 3.092-6.69 7.876v3.63h-3.638c-0.314 0-0.568 0.294-0.568 0.654v5.26c0 0.36 0.254 0.652 0.568 0.652h3.638v13.276c0 0.36 0.254 0.652 0.568 0.652h4.746c0.314 0 0.568-0.292 0.568-0.652v-13.276h4.252c0.314 0 0.568-0.292 0.568-0.652l0.002-5.26c0-0.174-0.060-0.34-0.166-0.462-0.097-0.116-0.241-0.189-0.402-0.192h-4.254v-3.078c0-1.48 0.308-2.23 1.988-2.23h2.436c0.314 0 0.568-0.294 0.568-0.654v-4.884c0-0.36-0.254-0.652-0.568-0.654z"></path>
</symbol>
<symbol id="icon-chat" viewBox="0 0 40 32">
<path fill="#674d40" style="fill: var(--color1, #674d40)" d="M30.413 13.711c0-8.282-7.608-13.711-15.204-13.711-7.631 0-15.209 5.455-15.209 13.711 0 3.125 1.192 6.178 3.358 8.602 0.059 0.071 0.095 0.163 0.095 0.264 0 0.036-0.005 0.071-0.013 0.104l0.001-0.003c-0.681 2.859-2.293 5.44-2.952 6.419-0.114 0.17-0.182 0.38-0.182 0.605 0 0.16 0.034 0.313 0.096 0.45l-0.003-0.007c0.123 0.313 0.418 0.532 0.765 0.542l0.001 0h0.023c3.234-0.094 6.984-1.141 9.299-3.753 0.056-0.066 0.138-0.107 0.231-0.107 0.029 0 0.057 0.004 0.084 0.012l-0.002-0.001c1.425 0.386 2.906 0.584 4.405 0.584 7.627 0 15.209-5.453 15.209-13.711zM11.068 25.544c-0.105-0.029-0.225-0.046-0.349-0.046-0.417 0-0.79 0.188-1.039 0.484l-0.002 0.002c-2.319 2.618-6.103 3.211-7.895 3.343 0.819-1.295 2.15-3.676 2.773-6.298 0.035-0.136 0.055-0.291 0.055-0.452 0-0.465-0.169-0.891-0.449-1.219l0.002 0.003c-1.967-2.202-3.008-4.847-3.008-7.65 0-6.827 6.302-12.382 14.052-12.382 7.746 0 14.048 5.553 14.048 12.382 0 6.827-6.302 12.382-14.048 12.382-0.006 0-0.012 0-0.019 0-1.466 0-2.885-0.2-4.231-0.574l0.111 0.026z"></path>
<path fill="#674d40" style="fill: var(--color1, #674d40)" d="M34.138 24.749c3.375-1.958 5.391-5.295 5.391-8.924 0-5.131-4.043-9.517-9.613-10.426-0.316-0.051-0.61 0.201-0.655 0.565s0.175 0.698 0.491 0.751c4.994 0.815 8.619 4.648 8.619 9.111 0 3.119-1.779 6.012-4.757 7.736-0.578 0.339-0.888 1.080-0.753 1.807 0.282 1.523 0.883 2.931 1.363 3.887-3.418-0.653-4.715-2.536-5.126-3.351-0.252-0.503-0.727-0.815-1.237-0.815h-0.047c-0.64 0-1.284-0.051-1.911-0.151-0.316-0.051-0.61 0.201-0.653 0.565-0.045 0.363 0.175 0.698 0.493 0.751 0.678 0.109 1.374 0.164 2.071 0.164h0.047c0.103 0.002 0.191 0.062 0.233 0.149l0.001 0.002c1.568 3.117 5.175 3.915 6.65 4.111 0.328 0.043 0.638-0.126 0.811-0.446 0.081-0.148 0.129-0.324 0.129-0.511 0-0.191-0.050-0.371-0.137-0.526l0.003 0.005c-0.444-0.794-1.239-2.387-1.559-4.111-0.004-0.020-0.007-0.043-0.007-0.066 0-0.116 0.060-0.217 0.15-0.276l0.001-0.001zM6.197 11.334c-1.107 0-2.007 1.033-2.007 2.302 0 1.271 0.9 2.304 2.007 2.304s2.007-1.035 2.007-2.304c0-1.269-0.9-2.302-2.007-2.302zM6.197 14.609c-0.469 0-0.849-0.435-0.849-0.973 0-0.536 0.38-0.973 0.847-0.973 0.471 0 0.851 0.437 0.851 0.973 0 0.538-0.382 0.975-0.849 0.975zM11.921 11.334c-1.107 0-2.007 1.033-2.007 2.302 0 1.271 0.9 2.304 2.007 2.304s2.007-1.035 2.007-2.304c0-1.269-0.9-2.302-2.007-2.302zM11.921 14.609c-0.467 0-0.847-0.435-0.847-0.973 0-0.536 0.38-0.973 0.847-0.973 0.469 0 0.849 0.437 0.849 0.973 0 0.538-0.38 0.975-0.847 0.975zM17.647 11.334c-1.107 0-2.008 1.033-2.008 2.302 0 1.271 0.902 2.304 2.008 2.304 1.105 0 2.007-1.035 2.007-2.304s-0.902-2.302-2.007-2.302zM17.647 14.609c-0.471 0-0.849-0.435-0.849-0.973 0-0.536 0.38-0.973 0.847-0.973 0.471 0 0.849 0.437 0.849 0.973 0 0.538-0.38 0.975-0.847 0.975zM23.371 11.334c-1.107 0-2.007 1.033-2.007 2.302 0 1.271 0.9 2.304 2.007 2.304s2.007-1.035 2.007-2.304c0-1.269-0.9-2.302-2.007-2.302zM23.371 14.609c-0.467 0-0.847-0.435-0.847-0.973 0-0.536 0.38-0.973 0.847-0.973 0.469 0 0.849 0.437 0.849 0.973 0 0.538-0.38 0.975-0.847 0.975z"></path>
</symbol>
<symbol id="icon-map" viewBox="0 0 23 32">
<path d="M11.733 0c6.47 0 11.733 5.131 11.733 11.435 0 2.496-0.811 4.866-2.34 6.854l-8.67 11.381c-0.021 0.026-0.055 0.036-0.079 0.062-0.163 0.178-0.396 0.29-0.656 0.29-0.289 0-0.546-0.138-0.708-0.352l-0.002-0.002c-2.498-3.245-7.074-9.308-8.832-11.595l-0.004-0.004-0.011-0.013c-1.353-1.824-2.165-4.12-2.165-6.605 0-0.006 0-0.012 0-0.017v0.001c0-6.304 5.263-11.435 11.733-11.435zM11.733 17.604c3.484 0 6.33-2.773 6.33-6.17 0-3.394-2.846-6.17-6.33-6.17s-6.33 2.773-6.33 6.17c0 3.394 2.846 6.17 6.33 6.17z"></path>
</symbol>
<symbol id="icon-close" viewBox="0 0 32 32">
<path d="M30.354 32c0.909-0.001 1.645-0.737 1.645-1.646 0-0.455-0.184-0.866-0.483-1.164l-28.704-28.709c-0.298-0.298-0.71-0.482-1.164-0.482-0.909 0-1.647 0.737-1.647 1.647 0 0.455 0.184 0.866 0.482 1.164l28.708 28.708c0.322 0.32 0.743 0.484 1.164 0.484z"></path>
<path d="M1.644 32c0.421 0 0.843-0.16 1.164-0.484l28.709-28.706c0.298-0.298 0.482-0.71 0.482-1.164 0-0.909-0.737-1.647-1.647-1.647-0.455 0-0.866 0.184-1.164 0.482l-28.709 28.709c-0.297 0.298-0.481 0.709-0.481 1.163 0 0.909 0.736 1.646 1.645 1.646h0z"></path>
</symbol>
<symbol id="icon-clock" viewBox="0 0 32 32">
<path fill="#674d40" style="fill: var(--color1, #674d40)" d="M16 0c-8.823 0-16 7.177-16 16s7.177 16 16 16 16-7.177 16-16-7.177-16-16-16zM16 30.933c-8.235 0-14.933-6.699-14.933-14.933s6.699-14.933 14.933-14.933c8.235 0 14.933 6.699 14.933 14.933s-6.699 14.933-14.933 14.933z"></path>
<path fill="#674d40" style="fill: var(--color1, #674d40)" d="M16.533 13.877v-5.41c0-0.295-0.239-0.533-0.533-0.533s-0.533 0.239-0.533 0.533v5.41c-0.747 0.195-1.33 0.779-1.524 1.524h-3.81c-0.295 0-0.533 0.239-0.533 0.533s0.239 0.533 0.533 0.533h3.81c0.238 0.919 1.067 1.6 2.057 1.6 1.176 0 2.133-0.955 2.133-2.133 0-0.99-0.683-1.818-1.6-2.057zM16 17.001c-0.588-0.001-1.065-0.478-1.065-1.067s0.478-1.067 1.067-1.067c0.001 0 0.001 0 0.002 0h-0c0.588 0.001 1.065 0.478 1.065 1.067s-0.478 1.067-1.067 1.067c-0.001 0-0.001 0-0.002 0h0zM16 5.269c0.295 0 0.533-0.239 0.533-0.533v-0.533c0-0.295-0.239-0.533-0.533-0.533s-0.533 0.239-0.533 0.533v0.533c0 0.294 0.239 0.533 0.533 0.533zM16 26.603c-0.295 0-0.533 0.239-0.533 0.533v0 0.533c0 0.295 0.239 0.533 0.533 0.533s0.533-0.239 0.533-0.533v-0.533c0-0.295-0.239-0.533-0.533-0.533v0zM27.733 15.403h-0.533c-0.295 0-0.533 0.239-0.533 0.533s0.239 0.533 0.533 0.533h0.533c0.295 0 0.533-0.239 0.533-0.533s-0.239-0.533-0.533-0.533v0zM4.8 15.403h-0.533c-0.295 0-0.533 0.239-0.533 0.533s0.239 0.533 0.533 0.533h0.533c0.295 0 0.533-0.239 0.533-0.533s-0.239-0.533-0.533-0.533v0zM23.919 7.261l-0.376 0.378c-0.097 0.097-0.156 0.23-0.156 0.377 0 0.295 0.239 0.533 0.533 0.533 0.147 0 0.281-0.060 0.377-0.156v0l0.376-0.378c0.097-0.097 0.156-0.23 0.156-0.377 0-0.295-0.239-0.533-0.533-0.533-0.147 0-0.281 0.060-0.377 0.156v0zM7.703 23.477l-0.376 0.378c-0.097 0.097-0.156 0.23-0.156 0.377 0 0.295 0.239 0.533 0.533 0.533 0.147 0 0.281-0.060 0.377-0.156v0l0.376-0.378c0.097-0.097 0.156-0.23 0.156-0.377 0-0.295-0.239-0.533-0.533-0.533-0.147 0-0.281 0.060-0.377 0.156v0zM24.297 23.477c-0.097-0.097-0.23-0.156-0.377-0.156-0.295 0-0.533 0.239-0.533 0.533 0 0.147 0.060 0.281 0.156 0.377v0l0.376 0.378c0.097 0.097 0.23 0.156 0.377 0.156 0.295 0 0.533-0.239 0.533-0.533 0-0.147-0.060-0.281-0.156-0.377v0l-0.376-0.378zM8.081 7.261c-0.097-0.097-0.23-0.156-0.377-0.156-0.295 0-0.533 0.239-0.533 0.533 0 0.147 0.060 0.281 0.156 0.377v0l0.376 0.378c0.096 0.097 0.23 0.157 0.377 0.157s0.281-0.060 0.377-0.157l0-0c0.097-0.097 0.156-0.23 0.156-0.377s-0.060-0.281-0.156-0.377v0l-0.376-0.378z"></path>
</symbol>
<symbol id="icon-chef-hat" viewBox="0 0 34 32">
<path fill="#674d40" style="fill: var(--color1, #674d40)" d="M24.307 8.344c-0.265 0-0.48-0.215-0.48-0.48v0c-0.102-3.802-3.209-6.845-7.026-6.845s-6.924 3.043-7.026 6.836l-0 0.009c0 0.265-0.215 0.48-0.48 0.48s-0.48-0.215-0.48-0.48v0c0.064-4.362 3.615-7.874 7.986-7.874s7.923 3.512 7.986 7.868l0 0.006c0 0.265-0.215 0.48-0.48 0.48v0z"></path>
<path fill="#674d40" style="fill: var(--color1, #674d40)" d="M25.709 19.206c-0.001 0-0.002 0-0.003 0-0.265 0-0.48-0.215-0.48-0.48 0-0.264 0.213-0.478 0.477-0.48h0c3.805-0.023 6.886-3.087 6.938-6.883l0-0.005c-0.039-3.82-3.145-6.903-6.971-6.903-0.019 0-0.037 0-0.056 0l0.003-0c-0.707 0-1.413 0.104-2.090 0.31-0.042 0.013-0.091 0.021-0.141 0.021-0.265 0-0.48-0.215-0.48-0.48 0-0.215 0.141-0.397 0.336-0.458l0.003-0.001c0.768-0.235 1.568-0.352 2.373-0.352 0.015-0 0.032-0 0.050-0 4.356 0 7.893 3.512 7.932 7.859l0 0.004c-0.053 4.326-3.556 7.816-7.882 7.848l-0.003 0h-0.006zM7.891 19.206h-0.006c-4.329-0.031-7.833-3.522-7.885-7.843l-0-0.005c0.039-4.351 3.575-7.863 7.931-7.863 0.018 0 0.036 0 0.054 0h-0.003c0.805 0 1.603 0.117 2.373 0.352 0.198 0.062 0.339 0.244 0.339 0.459 0 0.265-0.215 0.48-0.48 0.48-0.050 0-0.099-0.008-0.144-0.022l0.003 0.001c-0.622-0.197-1.338-0.31-2.081-0.31-0.004 0-0.007 0-0.011 0h0.001c-0.015-0-0.033-0-0.052-0-3.826 0-6.932 3.082-6.971 6.899l-0 0.004c0.051 3.801 3.133 6.865 6.935 6.888h0.002c0.263 0.004 0.475 0.218 0.475 0.482 0 0.066-0.013 0.13-0.038 0.187l0.001-0.003c-0.075 0.174-0.245 0.294-0.443 0.294-0.001 0-0.002 0-0.002 0h0z"></path>
<path fill="#674d40" style="fill: var(--color1, #674d40)" d="M25.709 31.147h-17.818c-0.265 0-0.48-0.215-0.48-0.48v-11.941c0-0.265 0.215-0.48 0.48-0.48s0.48 0.215 0.48 0.48v11.461h16.858v-11.461c0-0.265 0.215-0.48 0.48-0.48s0.48 0.215 0.48 0.48v0 11.941c0 0.265-0.215 0.48-0.48 0.48v0z"></path>
<path fill="#674d40" style="fill: var(--color1, #674d40)" d="M29.050 26.496h-17.818c-0.265 0-0.48-0.215-0.48-0.48s0.215-0.48 0.48-0.48h17.818c0.265 0 0.48 0.215 0.48 0.48s-0.215 0.48-0.48 0.48v0z"></path>
</symbol>
<symbol id="icon-rate-five" viewBox="0 0 181 32">
<path fill="#ab816c" style="fill: var(--color1, #ab816c)" d="M14.732 3.903c0.399-1.228 2.137-1.228 2.536 0l2.025 6.232c0.178 0.549 0.69 0.921 1.268 0.921h6.552c1.292 0 1.829 1.653 0.784 2.412l-5.301 3.851c-0.467 0.339-0.663 0.941-0.484 1.491l2.025 6.232c0.399 1.228-1.007 2.25-2.052 1.491l-5.301-3.851c-0.467-0.339-1.1-0.339-1.567 0l-5.301 3.851c-1.045 0.759-2.451-0.262-2.052-1.491l2.025-6.232c0.178-0.549-0.017-1.151-0.484-1.491l-5.301-3.851c-1.045-0.759-0.508-2.412 0.784-2.412h6.552c0.578 0 1.090-0.372 1.268-0.921l2.025-6.232z"></path>
<path fill="#ab816c" style="fill: var(--color1, #ab816c)" d="M164.065 3.903c0.399-1.228 2.137-1.228 2.536 0l2.025 6.232c0.179 0.549 0.689 0.921 1.268 0.921h6.552c1.292 0 1.828 1.653 0.784 2.412l-5.301 3.851c-0.467 0.339-0.663 0.941-0.484 1.491l2.024 6.232c0.4 1.228-1.007 2.25-2.051 1.491l-5.301-3.851c-0.468-0.339-1.1-0.339-1.568 0l-5.301 3.851c-1.044 0.759-2.451-0.262-2.051-1.491l2.024-6.232c0.179-0.549-0.017-1.151-0.484-1.491l-5.301-3.851c-1.044-0.759-0.508-2.412 0.784-2.412h6.552c0.579 0 1.089-0.372 1.268-0.921l2.025-6.232z"></path>
<path fill="#ab816c" style="fill: var(--color1, #ab816c)" d="M126.732 3.903c0.399-1.228 2.137-1.228 2.536 0l2.025 6.232c0.178 0.549 0.69 0.921 1.268 0.921h6.552c1.292 0 1.828 1.653 0.784 2.412l-5.301 3.851c-0.467 0.339-0.663 0.941-0.484 1.491l2.024 6.232c0.4 1.228-1.007 2.25-2.051 1.491l-5.302-3.851c-0.467-0.339-1.1-0.339-1.567 0l-5.301 3.851c-1.045 0.759-2.451-0.262-2.052-1.491l2.025-6.232c0.179-0.549-0.017-1.151-0.484-1.491l-5.301-3.851c-1.045-0.759-0.508-2.412 0.784-2.412h6.552c0.578 0 1.090-0.372 1.268-0.921l2.025-6.232z"></path>
<path fill="#ab816c" style="fill: var(--color1, #ab816c)" d="M89.399 3.903c0.399-1.228 2.137-1.228 2.536 0l2.025 6.232c0.178 0.549 0.69 0.921 1.268 0.921h6.552c1.292 0 1.829 1.653 0.784 2.412l-5.301 3.851c-0.467 0.339-0.663 0.941-0.484 1.491l2.025 6.232c0.399 1.228-1.007 2.25-2.052 1.491l-5.301-3.851c-0.467-0.339-1.1-0.339-1.567 0l-5.301 3.851c-1.045 0.759-2.451-0.262-2.052-1.491l2.025-6.232c0.179-0.549-0.017-1.151-0.484-1.491l-5.301-3.851c-1.045-0.759-0.508-2.412 0.784-2.412h6.552c0.578 0 1.090-0.372 1.268-0.921l2.025-6.232z"></path>
<path fill="#ab816c" style="fill: var(--color1, #ab816c)" d="M52.065 3.903c0.399-1.228 2.137-1.228 2.536 0l2.025 6.232c0.178 0.549 0.69 0.921 1.268 0.921h6.552c1.292 0 1.829 1.653 0.784 2.412l-5.301 3.851c-0.467 0.339-0.663 0.941-0.484 1.491l2.025 6.232c0.399 1.228-1.007 2.25-2.052 1.491l-5.301-3.851c-0.467-0.339-1.1-0.339-1.567 0l-5.301 3.851c-1.045 0.759-2.451-0.262-2.052-1.491l2.025-6.232c0.179-0.549-0.017-1.151-0.484-1.491l-5.301-3.851c-1.045-0.759-0.508-2.412 0.784-2.412h6.552c0.578 0 1.090-0.372 1.268-0.921l2.025-6.232z"></path>
</symbol>
<symbol id="icon-rate-four" viewBox="0 0 181 32">
<path fill="#ab816c" style="fill: var(--color1, #ab816c)" d="M14.732 3.903c0.399-1.228 2.137-1.228 2.536 0l2.025 6.232c0.178 0.549 0.69 0.921 1.268 0.921h6.552c1.292 0 1.829 1.653 0.784 2.412l-5.301 3.851c-0.467 0.339-0.663 0.941-0.484 1.491l2.025 6.232c0.399 1.228-1.007 2.25-2.052 1.491l-5.301-3.851c-0.467-0.339-1.1-0.339-1.567 0l-5.301 3.851c-1.045 0.759-2.451-0.262-2.052-1.491l2.025-6.232c0.178-0.549-0.017-1.151-0.484-1.491l-5.301-3.851c-1.045-0.759-0.508-2.412 0.784-2.412h6.552c0.578 0 1.090-0.372 1.268-0.921l2.025-6.232z"></path>
<path fill="none" stroke="#ab816c" style="stroke: var(--color1, #ab816c)" stroke-linejoin="miter" stroke-linecap="butt" stroke-miterlimit="4" stroke-width="1.3333" d="M164.699 4.109c0.2-0.614 1.069-0.614 1.269 0l2.024 6.232c0.268 0.824 1.036 1.382 1.903 1.382h6.552c0.645 0 0.915 0.826 0.392 1.206l-5.301 3.851c-0.701 0.509-0.995 1.412-0.727 2.236l2.025 6.232c0.2 0.614-0.504 1.125-1.027 0.745l-5.3-3.851c-0.701-0.509-1.651-0.509-2.352 0l-5.3 3.851c-0.523 0.38-1.227-0.131-1.027-0.745l2.025-6.232c0.268-0.824-0.025-1.727-0.727-2.236l-5.301-3.851c-0.523-0.38-0.253-1.206 0.392-1.206h6.552c0.867 0 1.635-0.558 1.903-1.382l2.024-6.232z"></path>
<path fill="#ab816c" style="fill: var(--color1, #ab816c)" d="M126.732 3.903c0.399-1.228 2.137-1.228 2.536 0l2.025 6.232c0.178 0.549 0.69 0.921 1.268 0.921h6.552c1.292 0 1.828 1.653 0.784 2.412l-5.301 3.851c-0.467 0.339-0.663 0.941-0.484 1.491l2.024 6.232c0.4 1.228-1.007 2.25-2.051 1.491l-5.302-3.851c-0.467-0.339-1.1-0.339-1.567 0l-5.301 3.851c-1.045 0.759-2.451-0.262-2.052-1.491l2.025-6.232c0.179-0.549-0.017-1.151-0.484-1.491l-5.301-3.851c-1.045-0.759-0.508-2.412 0.784-2.412h6.552c0.578 0 1.090-0.372 1.268-0.921l2.025-6.232z"></path>
<path fill="#ab816c" style="fill: var(--color1, #ab816c)" d="M89.399 3.903c0.399-1.228 2.137-1.228 2.536 0l2.025 6.232c0.178 0.549 0.69 0.921 1.268 0.921h6.552c1.292 0 1.829 1.653 0.784 2.412l-5.301 3.851c-0.467 0.339-0.663 0.941-0.484 1.491l2.025 6.232c0.399 1.228-1.007 2.25-2.052 1.491l-5.301-3.851c-0.467-0.339-1.1-0.339-1.567 0l-5.301 3.851c-1.045 0.759-2.451-0.262-2.052-1.491l2.025-6.232c0.179-0.549-0.017-1.151-0.484-1.491l-5.301-3.851c-1.045-0.759-0.508-2.412 0.784-2.412h6.552c0.578 0 1.090-0.372 1.268-0.921l2.025-6.232z"></path>
<path fill="#ab816c" style="fill: var(--color1, #ab816c)" d="M52.065 3.903c0.399-1.228 2.137-1.228 2.536 0l2.025 6.232c0.178 0.549 0.69 0.921 1.268 0.921h6.552c1.292 0 1.829 1.653 0.784 2.412l-5.301 3.851c-0.467 0.339-0.663 0.941-0.484 1.491l2.025 6.232c0.399 1.228-1.007 2.25-2.052 1.491l-5.301-3.851c-0.467-0.339-1.1-0.339-1.567 0l-5.301 3.851c-1.045 0.759-2.451-0.262-2.052-1.491l2.025-6.232c0.179-0.549-0.017-1.151-0.484-1.491l-5.301-3.851c-1.045-0.759-0.508-2.412 0.784-2.412h6.552c0.578 0 1.090-0.372 1.268-0.921l2.025-6.232z"></path>
</symbol>
<symbol id="icon-logo-2" viewBox="0 0 68 32">
<path d="M40.514 15.811c0 0.255-0.008 0.511 0 0.766 0.085 2.598-0.705 4.939-1.975 7.146-0.426 0.74-0.832 1.493-1.199 2.266-0.302 0.636-0.723 1.081-1.376 1.342-0.365 0.145-0.703 0.396-1.009 0.655-1.408 1.193-3.006 2.048-4.715 2.65-1.135 0.4-2.304 0.751-3.537 0.735-0.368-0.004-0.736 0.112-1.105 0.113s-0.736-0.121-1.101-0.105c-1.59 0.070-3.063-0.432-4.526-0.959-1.596-0.574-3.006-1.482-4.332-2.564-1.871-1.526-3.204-3.447-4.185-5.647-0.528-1.186-0.958-2.41-1.080-3.725-0.020-0.218-0.091-0.435-0.153-0.646-0.445-1.476-0.189-2.924 0.086-4.394 0.21-1.125 0.427-2.236 0.837-3.304 1.083-2.825 2.804-5.138 5.187-6.954 1.987-1.513 4.21-2.443 6.628-2.843 2.774-0.459 5.482-0.128 8.11 0.943 1.311 0.536 2.548 1.216 3.628 2.115 1.008 0.839 1.917 1.82 2.776 2.823 0.778 0.909 1.331 1.992 1.824 3.097 0.771 1.726 1.273 3.512 1.222 5.432-0.011 0.355-0.003 0.706-0.003 1.058zM39.449 12.314c-0.077-0.603-0.125-1.302-0.268-1.98-0.409-1.951-1.511-3.475-2.979-4.719-0.833-0.707-1.742-1.322-2.638-1.947-0.303-0.212-0.656-0.406-1.010-0.471-0.91-0.172-1.831-0.333-2.754-0.381-1.602-0.084-3.040-0.508-4.25-1.65-0.89-0.84-1.859-0.922-2.784-0.182-1.049 0.838-2.242 1.33-3.458 1.816-0.891 0.357-1.75 0.806-2.607 1.25-0.716 0.372-1.133 0.951-1.123 1.829 0.006 0.492-0.214 0.904-0.659 1.176-0.371 0.229-0.727 0.482-1.066 0.757-0.948 0.765-1.687 1.627-1.846 2.965-0.126 1.058-0.438 2.104-1.145 2.975-0.236 0.3-0.383 0.663-0.422 1.047-0.065 0.791-0.038 1.591-0.019 2.387 0.005 0.213 0.095 0.441 0.202 0.629 0.244 0.443 0.51 0.873 0.797 1.288 0.694 0.99 1.297 2.004 1.437 3.261 0.135 1.218 0.708 2.21 1.679 2.968 1.405 1.098 2.76 2.263 4.187 3.332 0.767 0.576 1.588 1.080 2.599 1.196s2.003 0.399 2.909 0.922c0.19 0.105 0.398 0.171 0.613 0.193 1.279 0.141 2.463-0.184 3.587-0.798 0.352-0.193 0.715-0.367 1.080-0.535 0.878-0.403 1.851-0.668 2.616-1.229 0.851-0.626 1.76-0.904 2.737-1.079 0.422-0.076 0.767-0.254 1.041-0.576 0.328-0.382 0.631-0.786 0.973-1.155 0.353-0.381 0.608-0.786 0.67-1.328 0.095-0.832 0.442-1.566 0.882-2.272 0.745-1.192 1.169-2.509 1.389-3.91 0.058-0.367 0.091-0.678-0.087-1.002-0.513-0.933-0.304-1.993-0.466-2.986-0.082-0.537 0.107-1.124 0.186-1.794l-0.002 0.001zM33.275 2.992c-0.217-0.246-0.285-0.357-0.383-0.425-0.177-0.126-0.37-0.228-0.559-0.337-1.61-0.93-3.373-1.383-5.175-1.708-0.362-0.066-0.743-0.036-1.112-0.022-0.096 0.004-0.211 0.099-0.272 0.186-0.028 0.039 0.035 0.177 0.088 0.242 0.401 0.49 0.924 0.86 1.513 1.069 1.017 0.376 2.086 0.582 3.167 0.61 0.458 0.013 0.914 0.102 1.37 0.165 0.389 0.057 0.777 0.125 1.362 0.218zM19.596 29.805c-1.081-0.906-2.028-1.716-2.992-2.504-0.798-0.652-1.614-1.282-2.429-1.911-0.092-0.071-0.236-0.069-0.437-0.122 0.983 1.693 4.265 4.264 5.858 4.537zM12.315 8.663c0.652-0.511 1.255-1.048 1.917-1.493 0.928-0.62 1.283-1.392 1.064-2.716-0.659 0.552-1.128 1.218-1.636 1.823-0.537 0.638-0.935 1.397-1.382 2.111-0.034 0.058 0.021 0.172 0.038 0.275zM34.294 27.979c-0.608-0.043-1.22 0.067-1.602 0.404-0.724 0.638-1.585 0.959-2.461 1.279-0.46 0.167-0.894 0.413-1.327 0.648-0.060 0.032-0.071 0.205-0.059 0.306 0.004 0.034 0.166 0.090 0.233 0.067 0.787-0.275 1.599-0.497 2.344-0.864 0.914-0.45 1.771-1.019 2.645-1.547 0.092-0.053 0.14-0.177 0.225-0.293zM11.067 19.126c-0.175 0.528-0.14 0.821-0.030 1.133 0.305 0.864 0.49 1.777 1.039 2.532 0.204 0.28 0.245 0.906 0.621 0.771 0.331-0.118-0.056-0.614-0.079-0.948-0.087-1.277-0.741-2.307-1.551-3.488zM16.964 3.22l0.082 0.126c0.454-0.173 0.913-0.336 1.363-0.521 0.977-0.402 1.951-0.812 2.923-1.229 0.196-0.085 0.375-0.221 0.542-0.358 0.047-0.039 0.038-0.171 0.024-0.253-0.008-0.037-0.1-0.076-0.153-0.079-0.091 0.002-0.181 0.017-0.268 0.046-1.32 0.385-2.565 0.954-3.757 1.645-0.279 0.162-0.505 0.413-0.754 0.623zM40.152 16.937c0.080-0.095 0.142-0.135 0.147-0.18 0.129-1.392-0.015-2.771-0.201-4.146-0.009-0.069-0.103-0.168-0.166-0.176-0.070-0.009-0.179 0.050-0.222 0.115-0.070 0.102-0.114 0.221-0.127 0.345-0.070 1.134 0.003 2.273 0.217 3.389 0.042 0.225 0.224 0.423 0.352 0.654zM10.748 13.097c0.515-0.202 0.592-0.567 0.647-0.896 0.135-0.803 0.471-1.577 0.36-2.426-0.539 1.014-1.016 2.041-1.007 3.322h-0zM23.218 30.735c-1.155-0.524-1.468-0.579-2.496-0.432 0.436 0.169 0.828 0.438 1.223 0.443 0.411 0.006 0.857 0.523 1.274-0.011h-0z"></path>
<path d="M25.6 20.313c-0.79-0.015-1.332-0.354-1.734-1.009-0.374-0.611-0.997-0.928-1.567-1.304-0.719-0.474-1.303-1.009-1.469-1.971-0.115-0.652 0.019-1.218 0.277-1.733 0.217-0.43 0.603-0.83 1.009-1.086 0.44-0.277 0.805-0.539 1.008-1.051 0.23-0.589 0.81-0.625 1.323-0.731 0.483-0.1 0.975-0.164 1.451-0.289 0.652-0.171 1.243-0.118 1.719 0.403 0.368 0.404 0.798 0.693 1.277 0.939 0.498 0.255 0.663 0.552 0.507 1.084-0.106 0.361-0.003 0.607 0.128 0.895 0.143 0.314 0.291 0.634 0.389 0.966 0.328 1.105-0.049 2.035-1.060 2.527-0.626 0.305-1.106 0.711-1.262 1.426-0.062 0.288-0.238 0.451-0.485 0.526-0.5 0.15-1.007 0.274-1.511 0.408zM28.915 15.681c0.016-1.946-1.422-3.503-3.293-3.505-1.678 0-3.367 1.165-3.432 3.397-0.053 1.787 1.398 3.451 3.29 3.457 2.304 0.012 3.39-1.629 3.435-3.35zM22.172 17.542c0-0.25 0.023-0.377-0.003-0.492-0.248-1.057-0.409-2.104 0.153-3.123 0.041-0.073-0.053-0.224-0.084-0.339-0.11 0.037-0.244 0.044-0.327 0.114-0.93 0.783-1.344 2.662 0.262 3.839zM25.624 11.688c0.389 0.146 0.611 0.25 0.843 0.314 0.857 0.233 1.588 0.651 2.097 1.421 0.1 0.152 0.23 0.377 0.422 0.204 0.102-0.092 0.135-0.374 0.077-0.515-0.079-0.187-0.26-0.421-0.433-0.458-0.471-0.101-0.728-0.451-1.035-0.756-0.516-0.508-1.092-0.668-1.971-0.211zM25.571 19.349l-0.012-0.073c-0.247 0-0.496-0.022-0.739 0.009-0.125 0.016-0.238 0.125-0.357 0.191 0.108 0.098 0.202 0.252 0.326 0.284 0.664 0.172 1.333 0.209 1.988-0.054 0.112-0.045 0.237-0.104 0.307-0.196 0.062-0.079 0.082-0.218 0.070-0.324-0.005-0.039-0.16-0.099-0.236-0.086-0.45 0.072-0.897 0.163-1.344 0.249l-0.002 0.001zM28.967 17.353c0.46-0.088 0.666-0.354 0.692-0.763 0.020-0.345 0.015-0.691-0.015-1.034-0.007-0.091-0.131-0.172-0.201-0.257-0.102 0.099-0.31 0.233-0.291 0.293 0.187 0.597-0.204 1.131-0.186 1.761v0.001z"></path>
<path d="M33.175 20.048c-0.026 0.014-0.133 0.105-0.248 0.118-0.105 0.012-0.258-0.024-0.324-0.099-0.327-0.378-0.644-0.767-0.937-1.174-0.077-0.106-0.108-0.393-0.064-0.418 0.144-0.081 0.425-0.166 0.487-0.096 0.37 0.418 0.695 0.878 1.030 1.33 0.033 0.045 0.023 0.123 0.056 0.339z"></path>
<path d="M17.514 23.325c0.171 0.014 0.509 0.025 0.838 0.082 0.082 0.015 0.192 0.179 0.192 0.277s-0.095 0.268-0.177 0.289c-0.64 0.163-1.277 0.203-1.844-0.236-0.032-0.031-0.057-0.068-0.072-0.11s-0.022-0.087-0.018-0.131c0.012-0.066 0.112-0.157 0.178-0.162 0.246-0.021 0.492-0.009 0.903-0.009z"></path>
<path d="M37.576 9.508l0.242 0.136c-0.069 0.126-0.111 0.329-0.211 0.365-0.461 0.174-0.934 0.312-1.415 0.414-0.138 0.028-0.339-0.112-0.467-0.227-0.147-0.133-0.059-0.422 0.126-0.451 0.545-0.086 1.095-0.152 1.724-0.237z"></path>
<path d="M21.28 26.138c0.256 0.123 0.47 0.157 0.575 0.288 0.287 0.365 0.549 0.749 0.785 1.15 0.115 0.191 0.010 0.398-0.184 0.453-0.106 0.030-0.299-0.059-0.377-0.157-0.312-0.386-0.602-0.791-0.867-1.212-0.061-0.1 0.034-0.301 0.068-0.521z"></path>
<path d="M31.328 10.934c0.016-0.112 0-0.239 0.051-0.288 0.069-0.064 0.217-0.118 0.288-0.083 0.097 0.048 0.16 0.178 0.227 0.281 0.186 0.285 0.369 0.572 0.546 0.864 0.079 0.131 0.185 0.27 0.192 0.411 0.008 0.13-0.070 0.3-0.166 0.389-0.053 0.050-0.273 0.018-0.327-0.052-0.354-0.462-0.779-0.894-0.81-1.522z"></path>
<path d="M32.43 6.029c-0.077 0.471-0.107 0.818-0.197 1.151-0.056 0.18-0.163 0.338-0.307 0.455-0.102 0.084-0.279 0.072-0.422 0.103-0.011-0.137-0.053-0.28-0.029-0.41 0.075-0.402 0.175-0.798 0.264-1.197 0.007-0.031 0.005-0.064 0.014-0.094 0.071-0.24 0.223-0.424 0.467-0.324 0.123 0.050 0.181 0.271 0.209 0.317z"></path>
<path d="M25.82 9.095c0.215 0.028 0.494 0.042 0.76 0.108 0.091 0.022 0.225 0.19 0.209 0.262-0.028 0.129-0.133 0.299-0.243 0.338-0.176 0.056-0.364 0.057-0.54 0.003-0.307-0.1-0.592-0.134-0.898-0.002-0.201 0.086-0.389-0.004-0.443-0.209-0.072-0.275 0.13-0.408 0.357-0.447 0.241-0.041 0.491-0.035 0.799-0.053z"></path>
<path d="M30.601 22.641c-0.087 0.39-0.153 0.732-0.247 1.067-0.018 0.066-0.153 0.154-0.21 0.139-0.102-0.026-0.245-0.108-0.266-0.194-0.046-0.185-0.051-0.378-0.015-0.565 0.072-0.343 0.143-0.668 0.008-1.018-0.064-0.168-0.046-0.435 0.202-0.434 0.134 0 0.326 0.17 0.386 0.31 0.098 0.224 0.104 0.488 0.142 0.696z"></path>
<path d="M26.829 22.541c-0.050 0.092-0.074 0.2-0.14 0.246-0.404 0.285-0.808 0.572-1.233 0.821-0.108 0.064-0.299 0.024-0.437-0.018-0.203-0.062-0.245-0.335-0.077-0.446 0.465-0.305 0.932-0.608 1.411-0.889 0.077-0.045 0.23 0.003 0.329 0.054 0.067 0.035 0.096 0.146 0.147 0.232z"></path>
<path d="M21.686 4.212c0.066 0.039 0.189 0.074 0.205 0.136 0.16 0.605 0.315 1.213 0.442 1.826 0.035 0.17-0.184 0.265-0.332 0.163-0.463-0.32-0.752-1.504-0.482-2 0.028-0.049 0.096-0.074 0.166-0.125z"></path>
<path d="M27.413 5.932c-0.14-0.095-0.29-0.144-0.311-0.227-0.022-0.090 0.050-0.242 0.128-0.314 0.34-0.312 0.696-0.605 1.066-0.878 0.125-0.090 0.383-0.154 0.479-0.083 0.226 0.163 0.107 0.393-0.050 0.561-0.212 0.227-0.422 0.466-0.665 0.649-0.187 0.138-0.427 0.197-0.647 0.293z"></path>
<path d="M18.6 9.131l-0.339 0.328c-0.097-0.107-0.24-0.196-0.281-0.325-0.163-0.501-0.299-1.012-0.428-1.523-0.018-0.070 0.038-0.214 0.096-0.238 0.094-0.039 0.248-0.055 0.32 0 0.141 0.106 0.301 0.249 0.347 0.409 0.121 0.416 0.184 0.852 0.285 1.349z"></path>
<path d="M14.89 17.535c-0.311 0.584-0.547 1.183-1.126 1.501-0.097 0.053-0.313-0.015-0.417-0.1-0.177-0.144 0-0.264 0.086-0.387 0.272-0.384 0.523-0.783 0.812-1.152 0.074-0.095 0.263-0.141 0.392-0.128 0.087 0.008 0.159 0.161 0.253 0.267z"></path>
<path d="M18.402 17.584c0.162 0.096 0.28 0.125 0.302 0.188 0.036 0.104 0.055 0.267 0 0.339-0.089 0.115-0.241 0.181-0.372 0.258-0.34 0.2-0.675 0.411-1.029 0.581-0.108 0.052-0.303 0.036-0.399-0.034-0.197-0.144-0.128-0.375 0.031-0.477 0.485-0.312 0.996-0.584 1.467-0.855z"></path>
<path d="M35.978 14.938c-0.125 0.289-0.3 0.724-0.509 1.143-0.032 0.065-0.234 0.1-0.319 0.061-0.079-0.037-0.166-0.2-0.15-0.289 0.084-0.466 0.176-0.933 0.317-1.382 0.043-0.137 0.237-0.262 0.386-0.308 0.055-0.017 0.2 0.196 0.268 0.327 0.039 0.074 0.007 0.187 0.007 0.448z"></path>
<path d="M14.793 11.467c0.55 0.506 0.485 1.193 0.546 1.828 0.011 0.118-0.132 0.286-0.246 0.372-0.060 0.045-0.303-0.027-0.309-0.068-0.087-0.641-0.153-1.285-0.207-1.93-0.004-0.055 0.125-0.122 0.215-0.201z"></path>
<path d="M27.648 27.137c0.092 0.025 0.183 0.055 0.272 0.091 0.33 0.157 0.663 0.31 0.985 0.483 0.153 0.082 0.307 0.184 0.417 0.314 0.127 0.151-0.018 0.442-0.195 0.402-0.6-0.133-1.185-0.318-1.634-0.778-0.066-0.068-0.065-0.238-0.043-0.351 0.013-0.064 0.128-0.108 0.199-0.161z"></path>
<path d="M20.352 11.652c0.032 0.102 0.141 0.26 0.102 0.359-0.201 0.524-0.434 1.037-0.672 1.546-0.029 0.063-0.153 0.118-0.227 0.108-0.064-0.008-0.153-0.101-0.17-0.171-0.126-0.567 0.271-1.582 0.713-1.837 0.046-0.026 0.118-0.004 0.254-0.004z"></path>
<path d="M37.496 20.26c-0.069-0.045-0.213-0.099-0.288-0.205-0.030-0.042 0.067-0.234 0.15-0.295 0.369-0.275 0.745-0.538 1.138-0.773 0.106-0.063 0.326-0.068 0.404 0.003 0.072 0.066 0.082 0.314 0.018 0.405-0.329 0.47-0.744 0.828-1.421 0.864z"></path>
<path d="M35.218 24.306c-0.284-0.030-0.408-0.033-0.527-0.061-0.050-0.011-0.125-0.072-0.126-0.112-0.005-0.089 0.017-0.178 0.065-0.253 0.061-0.071 0.141-0.122 0.23-0.147 0.439-0.135 0.877-0.271 1.323-0.38 0.097-0.024 0.3 0.042 0.313 0.098 0.029 0.134-0.006 0.297-0.057 0.432-0.027 0.071-0.136 0.131-0.219 0.157-0.381 0.107-0.764 0.203-1.002 0.266z"></path>
<path d="M22.012 21.059c-0.031 0.137-0.082 0.441-0.181 0.727-0.025 0.071-0.216 0.14-0.304 0.114s-0.192-0.175-0.189-0.268c0.009-0.53 0.035-1.061 0.087-1.588 0.011-0.115 0.153-0.217 0.235-0.324 0.098 0.106 0.257 0.2 0.282 0.323 0.056 0.273 0.044 0.561 0.069 1.017z"></path>
<path d="M42.564 4.474c0-1.123 0.265-1.974 0.795-2.554 0.536-0.586 1.222-0.879 2.059-0.879s1.502 0.253 1.995 0.759c0.5 0.506 0.749 1.314 0.749 2.425s-0.265 1.95-0.795 2.517c-0.53 0.568-1.237 0.851-2.122 0.851-0.764 0-1.391-0.225-1.878-0.676-0.253-0.234-0.452-0.558-0.596-0.972-0.138-0.42-0.208-0.91-0.208-1.471zM45.391 1.133c-0.608 0-1.108 0.278-1.499 0.833-0.385 0.555-0.578 1.37-0.578 2.443s0.184 1.857 0.551 2.351c0.367 0.494 0.855 0.74 1.463 0.74 0.614 0 1.114-0.278 1.499-0.833 0.391-0.561 0.587-1.373 0.587-2.434 0-1.067-0.187-1.851-0.56-2.35-0.367-0.5-0.855-0.75-1.463-0.75z"></path>
<path d="M49.724 7.556h-0.749v-6.478h0.749v2.98h2.935v-2.98h0.749v6.478h-0.749v-3.405h-2.935v3.405z"></path>
<path d="M57.261 7.556h-0.117l0.786-6.478h0.298l1.896 5.987 1.887-5.987h0.298l0.786 6.478h-0.749l-0.623-5.182-1.634 5.182h-0.569l-1.652-5.117-0.605 5.117z"></path>
<path d="M68.095 1.078c0.114 0.117 0.172 0.268 0.172 0.453 0 0.154-0.033 0.312-0.099 0.472l-1.616 3.359v2.193h-0.749v-1.99l-1.806-4.488h0.767l1.725 4.173 1.571-3.248c0.066-0.154 0.099-0.315 0.099-0.481s-0.045-0.296-0.135-0.389l0.072-0.056z"></path>
<path d="M1.273 9.258c0.467-0.022 0.923-0.033 1.368-0.033 0.456 0 0.933 0.049 1.432 0.147 0.509 0.098 1.008 0.283 1.496 0.554 0.499 0.261 0.918 0.603 1.257 1.027 0.35 0.413 0.631 0.962 0.843 1.647s0.318 1.517 0.318 2.495c0 0.978-0.159 1.859-0.477 2.642-0.308 0.772-0.732 1.364-1.273 1.777-1.050 0.804-2.318 1.207-3.803 1.207-0.52 0-1.066-0.022-1.639-0.065h-0.796v-11.399h1.273zM1.321 20.526c0.223 0.022 0.504 0.033 0.843 0.033s0.594-0.005 0.764-0.016c0.17-0.011 0.403-0.054 0.7-0.13 0.297-0.087 0.573-0.201 0.827-0.342s0.52-0.348 0.796-0.62c0.286-0.283 0.53-0.614 0.732-0.995 0.456-0.891 0.684-2.055 0.684-3.49 0-1.022-0.122-1.902-0.366-2.642-0.244-0.75-0.525-1.305-0.843-1.663-0.308-0.359-0.684-0.641-1.13-0.848-0.446-0.217-0.801-0.342-1.066-0.375s-0.573-0.049-0.923-0.049-0.69 0.016-1.018 0.049v11.089z"></path>
<path d="M42.823 20.656h-0.207v-11.415h0.541l6.619 10.551v-10.551h0.207v11.415h-1.162l-5.999-9.458v9.458z"></path>
<path d="M59.781 9.241h0.207v6.523c0 1.707-0.329 2.962-0.987 3.767-0.658 0.794-1.517 1.19-2.578 1.19-0.668 0-1.236-0.060-1.702-0.179-0.467-0.13-0.907-0.364-1.321-0.701-0.849-0.674-1.273-2.033-1.273-4.077v-6.523h1.321v6.507c0 1.979 0.292 3.3 0.875 3.963 0.297 0.326 0.605 0.549 0.923 0.669 0.329 0.12 0.721 0.179 1.177 0.179 1.018 0 1.83-0.381 2.434-1.142 0.615-0.772 0.923-1.995 0.923-3.669v-6.507z"></path>
<path d="M65.415 20.656h-1.321v-11.252h-2.753v-0.163h6.842v0.163h-2.769v11.252z"></path>
</symbol>
</defs>
</svg>
